<?xml version="1.0" encoding="utf-8" standalone="no"?>
<!DOCTYPE svg PUBLIC "-//W3C//DTD SVG 1.1//EN"
  "http://www.w3.org/Graphics/SVG/1.1/DTD/svg11.dtd">
<svg xmlns:xlink="http://www.w3.org/1999/xlink" width="720pt" height="576pt" viewBox="0 0 720 576" xmlns="http://www.w3.org/2000/svg" version="1.1">
 <metadata>
  <rdf:RDF xmlns:dc="http://purl.org/dc/elements/1.1/" xmlns:cc="http://creativecommons.org/ns#" xmlns:rdf="http://www.w3.org/1999/02/22-rdf-syntax-ns#">
   <cc:Work>
    <dc:type rdf:resource="http://purl.org/dc/dcmitype/StillImage"/>
    <dc:date>2023-06-04T13:49:22.430364</dc:date>
    <dc:format>image/svg+xml</dc:format>
    <dc:creator>
     <cc:Agent>
      <dc:title>Matplotlib v3.5.1, https://matplotlib.org/</dc:title>
     </cc:Agent>
    </dc:creator>
   </cc:Work>
  </rdf:RDF>
 </metadata>
 <defs>
  <style type="text/css">*{stroke-linejoin: round; stroke-linecap: butt}</style>
 </defs>
 <g id="figure_1">
  <g id="patch_1">
   <path d="M 0 576 
L 720 576 
L 720 0 
L 0 0 
z
" style="fill: #ffffff"/>
  </g>
  <g id="axes_1">
   <g id="patch_2">
    <path d="M 91.8 512.64 
L 646.2 512.64 
L 646.2 69.12 
L 91.8 69.12 
z
" style="fill: #ffffff"/>
   </g>
   <g id="PathCollection_1">
    <path d="M 305.778947 401.486644 
L 307.168421 401.575627 
L 308.557895 401.647112 
L 309.947368 401.701131 
L 311.336842 401.73771 
L 312.726316 401.756866 
L 314.115789 401.758607 
L 315.505263 401.742935 
L 316.894737 401.709841 
L 318.284211 401.659312 
L 319.673684 401.591323 
L 321.063158 401.505842 
L 321.383557 401.482105 
L 322.452632 401.402826 
L 323.842105 401.282224 
L 325.231579 401.143982 
L 326.621053 400.988034 
L 328.010526 400.814306 
L 329.4 400.622719 
L 330.789474 400.413185 
L 331.050349 400.370526 
L 332.178947 400.185555 
L 333.568421 399.939745 
L 334.957895 399.675651 
L 336.347368 399.393155 
L 336.967743 399.258947 
L 337.736842 399.092047 
L 339.126316 398.772176 
L 340.515789 398.433456 
L 341.627716 398.147368 
L 341.905263 398.075688 
L 343.294737 397.69853 
L 344.684211 397.301992 
L 345.574292 397.035789 
L 346.073684 396.885765 
L 347.463158 396.44951 
L 348.852632 395.99326 
L 349.054697 395.924211 
L 350.242105 395.516352 
L 351.631579 395.018885 
L 352.186106 394.812632 
L 353.021053 394.500307 
L 354.410526 393.960449 
L 355.054492 393.701053 
L 355.8 393.398882 
L 357.189474 392.815335 
L 357.709489 392.589474 
L 358.578947 392.209279 
L 359.968421 391.58062 
L 360.188605 391.477895 
L 361.357895 390.92838 
L 362.515392 390.366316 
L 362.747368 390.252807 
L 364.136842 389.552728 
L 364.710928 389.254737 
L 365.526316 388.828007 
L 366.796599 388.143158 
L 366.915789 388.078345 
L 368.305263 387.30238 
L 368.777057 387.031579 
L 369.694737 386.500012 
L 370.669325 385.92 
L 371.084211 385.670725 
L 372.473684 384.813756 
L 372.482133 384.808421 
L 373.863158 383.927535 
L 374.21602 383.696842 
L 375.252632 383.011989 
L 375.883286 382.585263 
L 376.642105 382.066198 
L 377.488487 381.473684 
L 378.031579 381.089174 
L 379.035754 380.362105 
L 379.421053 380.07985 
L 380.528839 379.250526 
L 380.810526 379.037077 
L 381.971148 378.138947 
L 382.2 377.959621 
L 383.365781 377.027368 
L 383.589474 376.846154 
L 384.715559 375.915789 
L 384.978947 375.695249 
L 386.023052 374.804211 
L 386.368421 374.505374 
L 387.2906 373.692632 
L 387.757895 373.274883 
L 388.52034 372.581053 
L 389.147368 372.002012 
L 389.71422 371.469474 
L 390.536842 370.684868 
L 390.874017 370.357895 
L 391.926316 369.32142 
L 392.001354 369.246316 
L 393.095869 368.134737 
L 393.315789 367.907814 
L 394.160102 367.023158 
L 394.705263 366.442263 
L 395.195992 365.911579 
L 396.094737 364.922722 
L 396.204697 364.8 
L 397.185157 363.688421 
L 397.484211 363.343435 
L 398.139762 362.576842 
L 398.873684 361.702506 
L 399.070237 361.465263 
L 399.975603 360.353684 
L 400.263158 359.994189 
L 400.857294 359.242105 
L 401.652632 358.215044 
L 401.717302 358.130526 
L 402.553578 357.018947 
L 403.042105 356.356207 
L 403.369225 355.907368 
L 404.163785 354.795789 
L 404.431579 354.413794 
L 404.937582 353.684211 
L 405.692203 352.572632 
L 405.821053 352.37918 
L 406.426404 351.461053 
L 407.142745 350.349474 
L 407.210526 350.242245 
L 407.839362 349.237895 
L 408.518966 348.126316 
L 408.6 347.99108 
L 409.179797 347.014737 
L 409.824096 345.903158 
L 409.989474 345.611616 
L 410.450738 344.791579 
L 411.06106 343.68 
L 411.378947 343.087171 
L 411.654929 342.568421 
L 412.232499 341.456842 
L 412.768421 340.397867 
L 412.794848 340.345263 
L 413.340794 339.233684 
L 413.872014 338.122105 
L 414.157895 337.508174 
L 414.388087 337.010526 
L 414.889114 335.898947 
L 415.375934 334.787368 
L 415.547368 334.385281 
L 415.848056 333.675789 
L 416.305965 332.564211 
L 416.750143 331.452632 
L 416.936842 330.971634 
L 417.180291 330.341053 
L 417.596699 329.229474 
L 417.999811 328.117895 
L 418.326316 327.187619 
L 418.389647 327.006316 
L 418.765994 325.894737 
L 419.129438 324.783158 
L 419.480077 323.671579 
L 419.715789 322.89693 
L 419.8179 322.56 
L 420.142902 321.448421 
L 420.455439 320.336842 
L 420.755599 319.225263 
L 421.043468 318.113684 
L 421.105263 317.86497 
L 421.318973 317.002105 
L 421.58234 315.890526 
L 421.833692 314.778947 
L 422.0731 313.667368 
L 422.300635 312.555789 
L 422.494737 311.55583 
L 422.516352 311.444211 
L 422.720256 310.332632 
L 422.912499 309.221053 
L 423.093138 308.109474 
L 423.262223 306.997895 
L 423.419806 305.886316 
L 423.565933 304.774737 
L 423.700648 303.663158 
L 423.823991 302.551579 
L 423.884211 301.954244 
L 423.935995 301.44 
L 424.036696 300.328421 
L 424.126134 299.216842 
L 424.204333 298.105263 
L 424.271319 296.993684 
L 424.327109 295.882105 
L 424.371722 294.770526 
L 424.405169 293.658947 
L 424.427462 292.547368 
L 424.438607 291.435789 
L 424.438607 290.324211 
L 424.427462 289.212632 
L 424.405169 288.101053 
L 424.371722 286.989474 
L 424.327109 285.877895 
L 424.271319 284.766316 
L 424.204333 283.654737 
L 424.126134 282.543158 
L 424.036696 281.431579 
L 423.935995 280.32 
L 423.884211 279.805756 
L 423.823991 279.208421 
L 423.700648 278.096842 
L 423.565933 276.985263 
L 423.419806 275.873684 
L 423.262223 274.762105 
L 423.093138 273.650526 
L 422.912499 272.538947 
L 422.720256 271.427368 
L 422.516352 270.315789 
L 422.494737 270.20417 
L 422.300635 269.204211 
L 422.0731 268.092632 
L 421.833692 266.981053 
L 421.58234 265.869474 
L 421.318973 264.757895 
L 421.105263 263.89503 
L 421.043468 263.646316 
L 420.755599 262.534737 
L 420.455439 261.423158 
L 420.142902 260.311579 
L 419.8179 259.2 
L 419.715789 258.86307 
L 419.480077 258.088421 
L 419.129438 256.976842 
L 418.765994 255.865263 
L 418.389647 254.753684 
L 418.326316 254.572381 
L 417.999811 253.642105 
L 417.596699 252.530526 
L 417.180291 251.418947 
L 416.936842 250.788366 
L 416.750143 250.307368 
L 416.305965 249.195789 
L 415.848056 248.084211 
L 415.547368 247.374719 
L 415.375934 246.972632 
L 414.889114 245.861053 
L 414.388087 244.749474 
L 414.157895 244.251826 
L 413.872014 243.637895 
L 413.340794 242.526316 
L 412.794848 241.414737 
L 412.768421 241.362133 
L 412.232499 240.303158 
L 411.654929 239.191579 
L 411.378947 238.672829 
L 411.06106 238.08 
L 410.450738 236.968421 
L 409.989474 236.148384 
L 409.824096 235.856842 
L 409.179797 234.745263 
L 408.6 233.76892 
L 408.518966 233.633684 
L 407.839362 232.522105 
L 407.210526 231.517755 
L 407.142745 231.410526 
L 406.426404 230.298947 
L 405.821053 229.38082 
L 405.692203 229.187368 
L 404.937582 228.075789 
L 404.431579 227.346206 
L 404.163785 226.964211 
L 403.369225 225.852632 
L 403.042105 225.403793 
L 402.553578 224.741053 
L 401.717302 223.629474 
L 401.652632 223.544956 
L 400.857294 222.517895 
L 400.263158 221.765811 
L 399.975603 221.406316 
L 399.070237 220.294737 
L 398.873684 220.057494 
L 398.139762 219.183158 
L 397.484211 218.416565 
L 397.185157 218.071579 
L 396.204697 216.96 
L 396.094737 216.837278 
L 395.195992 215.848421 
L 394.705263 215.317737 
L 394.160102 214.736842 
L 393.315789 213.852186 
L 393.095869 213.625263 
L 392.001354 212.513684 
L 391.926316 212.43858 
L 390.874017 211.402105 
L 390.536842 211.075132 
L 389.71422 210.290526 
L 389.147368 209.757988 
L 388.52034 209.178947 
L 387.757895 208.485117 
L 387.2906 208.067368 
L 386.368421 207.254626 
L 386.023052 206.955789 
L 384.978947 206.064751 
L 384.715559 205.844211 
L 383.589474 204.913846 
L 383.365781 204.732632 
L 382.2 203.800379 
L 381.971148 203.621053 
L 380.810526 202.722923 
L 380.528839 202.509474 
L 379.421053 201.68015 
L 379.035754 201.397895 
L 378.031579 200.670826 
L 377.488487 200.286316 
L 376.642105 199.693802 
L 375.883286 199.174737 
L 375.252632 198.748011 
L 374.21602 198.063158 
L 373.863158 197.832465 
L 372.482133 196.951579 
L 372.473684 196.946244 
L 371.084211 196.089275 
L 370.669325 195.84 
L 369.694737 195.259988 
L 368.777057 194.728421 
L 368.305263 194.45762 
L 366.915789 193.681655 
L 366.796599 193.616842 
L 365.526316 192.931993 
L 364.710928 192.505263 
L 364.136842 192.207272 
L 362.747368 191.507193 
L 362.515392 191.393684 
L 361.357895 190.83162 
L 360.188605 190.282105 
L 359.968421 190.17938 
L 358.578947 189.550721 
L 357.709489 189.170526 
L 357.189474 188.944665 
L 355.8 188.361118 
L 355.054492 188.058947 
L 354.410526 187.799551 
L 353.021053 187.259693 
L 352.186106 186.947368 
L 351.631579 186.741115 
L 350.242105 186.243648 
L 349.054697 185.835789 
L 348.852632 185.76674 
L 347.463158 185.31049 
L 346.073684 184.874235 
L 345.574292 184.724211 
L 344.684211 184.458008 
L 343.294737 184.06147 
L 341.905263 183.684312 
L 341.627716 183.612632 
L 340.515789 183.326544 
L 339.126316 182.987824 
L 337.736842 182.667953 
L 336.967743 182.501053 
L 336.347368 182.366845 
L 334.957895 182.084349 
L 333.568421 181.820255 
L 332.178947 181.574445 
L 331.050349 181.389474 
L 330.789474 181.346815 
L 329.4 181.137281 
L 328.010526 180.945694 
L 326.621053 180.771966 
L 325.231579 180.616018 
L 323.842105 180.477776 
L 322.452632 180.357174 
L 321.383557 180.277895 
L 321.063158 180.254158 
L 319.673684 180.168677 
L 318.284211 180.100688 
L 316.894737 180.050159 
L 315.505263 180.017065 
L 314.115789 180.001393 
L 312.726316 180.003134 
L 311.336842 180.02229 
L 309.947368 180.058869 
L 308.557895 180.112888 
L 307.168421 180.184373 
L 305.778947 180.273356 
L 305.719697 180.277895 
L 304.389474 180.379886 
L 303 180.504011 
L 301.610526 180.645789 
L 300.221053 180.805287 
L 298.831579 180.98258 
L 297.442105 181.177749 
L 296.06181 181.389474 
L 296.052632 181.390885 
L 294.663158 181.62215 
L 293.273684 181.871608 
L 291.884211 182.139372 
L 290.494737 182.425564 
L 290.149865 182.501053 
L 289.105263 182.730426 
L 287.715789 183.054055 
L 286.326316 183.396563 
L 285.494869 183.612632 
L 284.936842 183.758201 
L 283.547368 184.139222 
L 282.157895 184.539657 
L 281.546146 184.724211 
L 280.768421 184.959895 
L 279.378947 185.400134 
L 278.063514 185.835789 
L 277.989474 185.860434 
L 276.6 186.341496 
L 275.210526 186.843084 
L 274.932142 186.947368 
L 273.821053 187.365976 
L 272.431579 187.910064 
L 272.064416 188.058947 
L 271.042105 188.476092 
L 269.652632 189.063986 
L 269.408861 189.170526 
L 268.263158 189.674667 
L 266.929794 190.282105 
L 266.873684 190.30785 
L 265.484211 190.964846 
L 264.60609 191.393684 
L 264.094737 191.645334 
L 262.705263 192.350111 
L 262.407964 192.505263 
L 261.315789 193.079957 
L 260.325165 193.616842 
L 259.926316 193.834874 
L 258.536842 194.615786 
L 258.341582 194.728421 
L 257.147368 195.423651 
L 256.451173 195.84 
L 255.757895 196.258586 
L 254.639651 196.951579 
L 254.368421 197.121344 
L 252.978947 198.012919 
L 252.902451 198.063158 
L 251.589474 198.934564 
L 251.236092 199.174737 
L 250.2 199.886637 
L 249.631543 200.286316 
L 248.810526 200.870139 
L 248.084711 201.397895 
L 247.421053 201.886148 
L 246.591881 202.509474 
L 246.031579 202.935823 
L 245.149674 203.621053 
L 244.642105 204.020412 
L 243.755017 204.732632 
L 243.252632 205.141254 
L 242.405111 205.844211 
L 241.863158 206.299789 
L 241.097407 206.955789 
L 240.473684 207.497564 
L 239.82958 208.067368 
L 239.084211 208.736237 
L 238.599511 209.178947 
L 237.694737 210.017589 
L 237.405264 210.290526 
L 236.305263 211.343529 
L 236.245073 211.402105 
L 235.119107 212.513684 
L 234.915789 212.717547 
L 234.0247 213.625263 
L 233.526316 214.141329 
L 232.959911 214.736842 
L 232.136842 215.616899 
L 231.923474 215.848421 
L 230.915484 216.96 
L 230.747368 217.148426 
L 229.935209 218.071579 
L 229.357895 218.739795 
L 228.97999 219.183158 
L 228.049464 220.294737 
L 227.968421 220.393148 
L 227.144733 221.406316 
L 226.578947 222.115942 
L 226.262414 222.517895 
L 225.403049 223.629474 
L 225.189474 223.910786 
L 224.566493 224.741053 
L 223.8 225.784146 
L 223.75024 225.852632 
L 222.956507 226.964211 
L 222.410526 227.745431 
L 222.182098 228.075789 
L 221.428196 229.187368 
L 221.021053 229.800504 
L 220.69339 230.298947 
L 219.977674 231.410526 
L 219.631579 231.959677 
L 219.280469 232.522105 
L 218.601406 233.633684 
L 218.242105 234.235082 
L 217.940012 234.745263 
L 217.296181 235.856842 
L 216.852632 236.641044 
L 216.669009 236.968421 
L 216.059092 238.08 
L 215.464735 239.191579 
L 215.463158 239.194593 
L 214.887511 240.303158 
L 214.325406 241.414737 
L 214.073684 241.924916 
L 213.779067 242.526316 
L 213.24812 243.637895 
L 212.731741 244.749474 
L 212.684211 244.854335 
L 212.230838 245.861053 
L 211.744231 246.972632 
L 211.294737 248.029777 
L 211.27173 248.084211 
L 210.814005 249.195789 
L 210.36999 250.307368 
L 209.939569 251.418947 
L 209.905263 251.510108 
L 209.523245 252.530526 
L 209.120257 253.642105 
L 208.73044 254.753684 
L 208.515789 255.386108 
L 208.353902 255.865263 
L 207.990554 256.976842 
L 207.639996 258.088421 
L 207.302132 259.2 
L 207.126316 259.800063 
L 206.977018 260.311579 
L 206.664543 261.423158 
L 206.364435 262.534737 
L 206.07661 263.646316 
L 205.800985 264.757895 
L 205.736842 265.028001 
L 205.537613 265.869474 
L 205.286295 266.981053 
L 205.046914 268.092632 
L 204.819401 269.204211 
L 204.60369 270.315789 
L 204.399717 271.427368 
L 204.347368 271.729595 
L 204.207472 272.538947 
L 204.026848 273.650526 
L 203.857773 274.762105 
L 203.700198 275.873684 
L 203.554076 276.985263 
L 203.419365 278.096842 
L 203.296023 279.208421 
L 203.184014 280.32 
L 203.083303 281.431579 
L 202.993861 282.543158 
L 202.957895 283.054189 
L 202.915661 283.654737 
L 202.848678 284.766316 
L 202.792889 285.877895 
L 202.748277 286.989474 
L 202.71483 288.101053 
L 202.692538 289.212632 
L 202.681393 290.324211 
L 202.681393 291.435789 
L 202.692538 292.547368 
L 202.71483 293.658947 
L 202.748277 294.770526 
L 202.792889 295.882105 
L 202.848678 296.993684 
L 202.915661 298.105263 
L 202.957895 298.705811 
L 202.993861 299.216842 
L 203.083303 300.328421 
L 203.184014 301.44 
L 203.296023 302.551579 
L 203.419365 303.663158 
L 203.554076 304.774737 
L 203.700198 305.886316 
L 203.857773 306.997895 
L 204.026848 308.109474 
L 204.207472 309.221053 
L 204.347368 310.030405 
L 204.399717 310.332632 
L 204.60369 311.444211 
L 204.819401 312.555789 
L 205.046914 313.667368 
L 205.286295 314.778947 
L 205.537613 315.890526 
L 205.736842 316.731999 
L 205.800985 317.002105 
L 206.07661 318.113684 
L 206.364435 319.225263 
L 206.664543 320.336842 
L 206.977018 321.448421 
L 207.126316 321.959937 
L 207.302132 322.56 
L 207.639996 323.671579 
L 207.990554 324.783158 
L 208.353902 325.894737 
L 208.515789 326.373892 
L 208.73044 327.006316 
L 209.120257 328.117895 
L 209.523245 329.229474 
L 209.905263 330.249892 
L 209.939569 330.341053 
L 210.36999 331.452632 
L 210.814005 332.564211 
L 211.27173 333.675789 
L 211.294737 333.730223 
L 211.744231 334.787368 
L 212.230838 335.898947 
L 212.684211 336.905665 
L 212.731741 337.010526 
L 213.24812 338.122105 
L 213.779067 339.233684 
L 214.073684 339.835084 
L 214.325406 340.345263 
L 214.887511 341.456842 
L 215.463158 342.565407 
L 215.464735 342.568421 
L 216.059092 343.68 
L 216.669009 344.791579 
L 216.852632 345.118956 
L 217.296181 345.903158 
L 217.940012 347.014737 
L 218.242105 347.524918 
L 218.601406 348.126316 
L 219.280469 349.237895 
L 219.631579 349.800323 
L 219.977674 350.349474 
L 220.69339 351.461053 
L 221.021053 351.959496 
L 221.428196 352.572632 
L 222.182098 353.684211 
L 222.410526 354.014569 
L 222.956507 354.795789 
L 223.75024 355.907368 
L 223.8 355.975854 
L 224.566493 357.018947 
L 225.189474 357.849214 
L 225.403049 358.130526 
L 226.262414 359.242105 
L 226.578947 359.644058 
L 227.144733 360.353684 
L 227.968421 361.366852 
L 228.049464 361.465263 
L 228.97999 362.576842 
L 229.357895 363.020205 
L 229.935209 363.688421 
L 230.747368 364.611574 
L 230.915484 364.8 
L 231.923474 365.911579 
L 232.136842 366.143101 
L 232.959911 367.023158 
L 233.526316 367.618671 
L 234.0247 368.134737 
L 234.915789 369.042453 
L 235.119107 369.246316 
L 236.245073 370.357895 
L 236.305263 370.416471 
L 237.405264 371.469474 
L 237.694737 371.742411 
L 238.599511 372.581053 
L 239.084211 373.023763 
L 239.82958 373.692632 
L 240.473684 374.262436 
L 241.097407 374.804211 
L 241.863158 375.460211 
L 242.405111 375.915789 
L 243.252632 376.618746 
L 243.755017 377.027368 
L 244.642105 377.739588 
L 245.149674 378.138947 
L 246.031579 378.824177 
L 246.591881 379.250526 
L 247.421053 379.873852 
L 248.084711 380.362105 
L 248.810526 380.889861 
L 249.631543 381.473684 
L 250.2 381.873363 
L 251.236092 382.585263 
L 251.589474 382.825436 
L 252.902451 383.696842 
L 252.978947 383.747081 
L 254.368421 384.638656 
L 254.639651 384.808421 
L 255.757895 385.501414 
L 256.451173 385.92 
L 257.147368 386.336349 
L 258.341582 387.031579 
L 258.536842 387.144214 
L 259.926316 387.925126 
L 260.325165 388.143158 
L 261.315789 388.680043 
L 262.407964 389.254737 
L 262.705263 389.409889 
L 264.094737 390.114666 
L 264.60609 390.366316 
L 265.484211 390.795154 
L 266.873684 391.45215 
L 266.929794 391.477895 
L 268.263158 392.085333 
L 269.408861 392.589474 
L 269.652632 392.696014 
L 271.042105 393.283908 
L 272.064416 393.701053 
L 272.431579 393.849936 
L 273.821053 394.394024 
L 274.932142 394.812632 
L 275.210526 394.916916 
L 276.6 395.418504 
L 277.989474 395.899566 
L 278.063514 395.924211 
L 279.378947 396.359866 
L 280.768421 396.800105 
L 281.546146 397.035789 
L 282.157895 397.220343 
L 283.547368 397.620778 
L 284.936842 398.001799 
L 285.494869 398.147368 
L 286.326316 398.363437 
L 287.715789 398.705945 
L 289.105263 399.029574 
L 290.149865 399.258947 
L 290.494737 399.334436 
L 291.884211 399.620628 
L 293.273684 399.888392 
L 294.663158 400.13785 
L 296.052632 400.369115 
L 296.06181 400.370526 
L 297.442105 400.582251 
L 298.831579 400.77742 
L 300.221053 400.954713 
L 301.610526 401.114211 
L 303 401.255989 
L 304.389474 401.380114 
L 305.719697 401.482105 
z
" clip-path="url(#pe19b884631)" style="fill: #16a085"/>
   </g>
   <g id="matplotlib.axis_1">
    <g id="xtick_1">
     <g id="line2d_1">
      <defs>
       <path id="mefb5d43df4" d="M 0 0 
L 0 3.5 
" style="stroke: #000000; stroke-width: 0.8"/>
      </defs>
      <g>
       <use xlink:href="#mefb5d43df4" x="91.8" y="512.64" style="stroke: #000000; stroke-width: 0.8"/>
      </g>
     </g>
     <g id="text_1">
      <!-- −3 -->
      <g transform="translate(83.691797 527.998281)scale(0.11 -0.11)">
       <defs>
        <path id="DejaVuSans-2212" d="M 678 2272 
L 4684 2272 
L 4684 1741 
L 678 1741 
L 678 2272 
z
" transform="scale(0.015625)"/>
        <path id="DejaVuSans-33" d="M 2597 2516 
Q 3050 2419 3304 2112 
Q 3559 1806 3559 1356 
Q 3559 666 3084 287 
Q 2609 -91 1734 -91 
Q 1441 -91 1130 -33 
Q 819 25 488 141 
L 488 750 
Q 750 597 1062 519 
Q 1375 441 1716 441 
Q 2309 441 2620 675 
Q 2931 909 2931 1356 
Q 2931 1769 2642 2001 
Q 2353 2234 1838 2234 
L 1294 2234 
L 1294 2753 
L 1863 2753 
Q 2328 2753 2575 2939 
Q 2822 3125 2822 3475 
Q 2822 3834 2567 4026 
Q 2313 4219 1838 4219 
Q 1578 4219 1281 4162 
Q 984 4106 628 3988 
L 628 4550 
Q 988 4650 1302 4700 
Q 1616 4750 1894 4750 
Q 2613 4750 3031 4423 
Q 3450 4097 3450 3541 
Q 3450 3153 3228 2886 
Q 3006 2619 2597 2516 
z
" transform="scale(0.015625)"/>
       </defs>
       <use xlink:href="#DejaVuSans-2212"/>
       <use xlink:href="#DejaVuSans-33" x="83.789062"/>
      </g>
     </g>
    </g>
    <g id="xtick_2">
     <g id="line2d_2">
      <g>
       <use xlink:href="#mefb5d43df4" x="202.68" y="512.64" style="stroke: #000000; stroke-width: 0.8"/>
      </g>
     </g>
     <g id="text_2">
      <!-- −2 -->
      <g transform="translate(194.571797 527.998281)scale(0.11 -0.11)">
       <defs>
        <path id="DejaVuSans-32" d="M 1228 531 
L 3431 531 
L 3431 0 
L 469 0 
L 469 531 
Q 828 903 1448 1529 
Q 2069 2156 2228 2338 
Q 2531 2678 2651 2914 
Q 2772 3150 2772 3378 
Q 2772 3750 2511 3984 
Q 2250 4219 1831 4219 
Q 1534 4219 1204 4116 
Q 875 4013 500 3803 
L 500 4441 
Q 881 4594 1212 4672 
Q 1544 4750 1819 4750 
Q 2544 4750 2975 4387 
Q 3406 4025 3406 3419 
Q 3406 3131 3298 2873 
Q 3191 2616 2906 2266 
Q 2828 2175 2409 1742 
Q 1991 1309 1228 531 
z
" transform="scale(0.015625)"/>
       </defs>
       <use xlink:href="#DejaVuSans-2212"/>
       <use xlink:href="#DejaVuSans-32" x="83.789062"/>
      </g>
     </g>
    </g>
    <g id="xtick_3">
     <g id="line2d_3">
      <g>
       <use xlink:href="#mefb5d43df4" x="313.56" y="512.64" style="stroke: #000000; stroke-width: 0.8"/>
      </g>
     </g>
     <g id="text_3">
      <!-- −1 -->
      <g transform="translate(305.451797 527.998281)scale(0.11 -0.11)">
       <defs>
        <path id="DejaVuSans-31" d="M 794 531 
L 1825 531 
L 1825 4091 
L 703 3866 
L 703 4441 
L 1819 4666 
L 2450 4666 
L 2450 531 
L 3481 531 
L 3481 0 
L 794 0 
L 794 531 
z
" transform="scale(0.015625)"/>
       </defs>
       <use xlink:href="#DejaVuSans-2212"/>
       <use xlink:href="#DejaVuSans-31" x="83.789062"/>
      </g>
     </g>
    </g>
    <g id="xtick_4">
     <g id="line2d_4">
      <g>
       <use xlink:href="#mefb5d43df4" x="424.44" y="512.64" style="stroke: #000000; stroke-width: 0.8"/>
      </g>
     </g>
     <g id="text_4">
      <!-- 0 -->
      <g transform="translate(420.940625 527.998281)scale(0.11 -0.11)">
       <defs>
        <path id="DejaVuSans-30" d="M 2034 4250 
Q 1547 4250 1301 3770 
Q 1056 3291 1056 2328 
Q 1056 1369 1301 889 
Q 1547 409 2034 409 
Q 2525 409 2770 889 
Q 3016 1369 3016 2328 
Q 3016 3291 2770 3770 
Q 2525 4250 2034 4250 
z
M 2034 4750 
Q 2819 4750 3233 4129 
Q 3647 3509 3647 2328 
Q 3647 1150 3233 529 
Q 2819 -91 2034 -91 
Q 1250 -91 836 529 
Q 422 1150 422 2328 
Q 422 3509 836 4129 
Q 1250 4750 2034 4750 
z
" transform="scale(0.015625)"/>
       </defs>
       <use xlink:href="#DejaVuSans-30"/>
      </g>
     </g>
    </g>
    <g id="xtick_5">
     <g id="line2d_5">
      <g>
       <use xlink:href="#mefb5d43df4" x="535.32" y="512.64" style="stroke: #000000; stroke-width: 0.8"/>
      </g>
     </g>
     <g id="text_5">
      <!-- 1 -->
      <g transform="translate(531.820625 527.998281)scale(0.11 -0.11)">
       <use xlink:href="#DejaVuSans-31"/>
      </g>
     </g>
    </g>
    <g id="xtick_6">
     <g id="line2d_6">
      <g>
       <use xlink:href="#mefb5d43df4" x="646.2" y="512.64" style="stroke: #000000; stroke-width: 0.8"/>
      </g>
     </g>
     <g id="text_6">
      <!-- 2 -->
      <g transform="translate(642.700625 527.998281)scale(0.11 -0.11)">
       <use xlink:href="#DejaVuSans-32"/>
      </g>
     </g>
    </g>
    <g id="text_7">
     <!-- Re(z) -->
     <g transform="translate(351.007812 544.92375)scale(0.14 -0.14)">
      <defs>
       <path id="DejaVuSans-52" d="M 2841 2188 
Q 3044 2119 3236 1894 
Q 3428 1669 3622 1275 
L 4263 0 
L 3584 0 
L 2988 1197 
Q 2756 1666 2539 1819 
Q 2322 1972 1947 1972 
L 1259 1972 
L 1259 0 
L 628 0 
L 628 4666 
L 2053 4666 
Q 2853 4666 3247 4331 
Q 3641 3997 3641 3322 
Q 3641 2881 3436 2590 
Q 3231 2300 2841 2188 
z
M 1259 4147 
L 1259 2491 
L 2053 2491 
Q 2509 2491 2742 2702 
Q 2975 2913 2975 3322 
Q 2975 3731 2742 3939 
Q 2509 4147 2053 4147 
L 1259 4147 
z
" transform="scale(0.015625)"/>
       <path id="DejaVuSans-65" d="M 3597 1894 
L 3597 1613 
L 953 1613 
Q 991 1019 1311 708 
Q 1631 397 2203 397 
Q 2534 397 2845 478 
Q 3156 559 3463 722 
L 3463 178 
Q 3153 47 2828 -22 
Q 2503 -91 2169 -91 
Q 1331 -91 842 396 
Q 353 884 353 1716 
Q 353 2575 817 3079 
Q 1281 3584 2069 3584 
Q 2775 3584 3186 3129 
Q 3597 2675 3597 1894 
z
M 3022 2063 
Q 3016 2534 2758 2815 
Q 2500 3097 2075 3097 
Q 1594 3097 1305 2825 
Q 1016 2553 972 2059 
L 3022 2063 
z
" transform="scale(0.015625)"/>
       <path id="DejaVuSans-28" d="M 1984 4856 
Q 1566 4138 1362 3434 
Q 1159 2731 1159 2009 
Q 1159 1288 1364 580 
Q 1569 -128 1984 -844 
L 1484 -844 
Q 1016 -109 783 600 
Q 550 1309 550 2009 
Q 550 2706 781 3412 
Q 1013 4119 1484 4856 
L 1984 4856 
z
" transform="scale(0.015625)"/>
       <path id="DejaVuSans-7a" d="M 353 3500 
L 3084 3500 
L 3084 2975 
L 922 459 
L 3084 459 
L 3084 0 
L 275 0 
L 275 525 
L 2438 3041 
L 353 3041 
L 353 3500 
z
" transform="scale(0.015625)"/>
       <path id="DejaVuSans-29" d="M 513 4856 
L 1013 4856 
Q 1481 4119 1714 3412 
Q 1947 2706 1947 2009 
Q 1947 1309 1714 600 
Q 1481 -109 1013 -844 
L 513 -844 
Q 928 -128 1133 580 
Q 1338 1288 1338 2009 
Q 1338 2731 1133 3434 
Q 928 4138 513 4856 
z
" transform="scale(0.015625)"/>
      </defs>
      <use xlink:href="#DejaVuSans-52"/>
      <use xlink:href="#DejaVuSans-65" x="64.982422"/>
      <use xlink:href="#DejaVuSans-28" x="126.505859"/>
      <use xlink:href="#DejaVuSans-7a" x="165.519531"/>
      <use xlink:href="#DejaVuSans-29" x="218.009766"/>
     </g>
    </g>
   </g>
   <g id="matplotlib.axis_2">
    <g id="ytick_1">
     <g id="line2d_7">
      <defs>
       <path id="mc2db9b0abd" d="M 0 0 
L -3.5 0 
" style="stroke: #000000; stroke-width: 0.8"/>
      </defs>
      <g>
       <use xlink:href="#mc2db9b0abd" x="91.8" y="512.64" style="stroke: #000000; stroke-width: 0.8"/>
      </g>
     </g>
     <g id="text_8">
      <!-- −2.0 -->
      <g transform="translate(58.088906 516.819141)scale(0.11 -0.11)">
       <defs>
        <path id="DejaVuSans-2e" d="M 684 794 
L 1344 794 
L 1344 0 
L 684 0 
L 684 794 
z
" transform="scale(0.015625)"/>
       </defs>
       <use xlink:href="#DejaVuSans-2212"/>
       <use xlink:href="#DejaVuSans-32" x="83.789062"/>
       <use xlink:href="#DejaVuSans-2e" x="147.412109"/>
       <use xlink:href="#DejaVuSans-30" x="179.199219"/>
      </g>
     </g>
    </g>
    <g id="ytick_2">
     <g id="line2d_8">
      <g>
       <use xlink:href="#mc2db9b0abd" x="91.8" y="457.2" style="stroke: #000000; stroke-width: 0.8"/>
      </g>
     </g>
     <g id="text_9">
      <!-- −1.5 -->
      <g transform="translate(58.088906 461.379141)scale(0.11 -0.11)">
       <defs>
        <path id="DejaVuSans-35" d="M 691 4666 
L 3169 4666 
L 3169 4134 
L 1269 4134 
L 1269 2991 
Q 1406 3038 1543 3061 
Q 1681 3084 1819 3084 
Q 2600 3084 3056 2656 
Q 3513 2228 3513 1497 
Q 3513 744 3044 326 
Q 2575 -91 1722 -91 
Q 1428 -91 1123 -41 
Q 819 9 494 109 
L 494 744 
Q 775 591 1075 516 
Q 1375 441 1709 441 
Q 2250 441 2565 725 
Q 2881 1009 2881 1497 
Q 2881 1984 2565 2268 
Q 2250 2553 1709 2553 
Q 1456 2553 1204 2497 
Q 953 2441 691 2322 
L 691 4666 
z
" transform="scale(0.015625)"/>
       </defs>
       <use xlink:href="#DejaVuSans-2212"/>
       <use xlink:href="#DejaVuSans-31" x="83.789062"/>
       <use xlink:href="#DejaVuSans-2e" x="147.412109"/>
       <use xlink:href="#DejaVuSans-35" x="179.199219"/>
      </g>
     </g>
    </g>
    <g id="ytick_3">
     <g id="line2d_9">
      <g>
       <use xlink:href="#mc2db9b0abd" x="91.8" y="401.76" style="stroke: #000000; stroke-width: 0.8"/>
      </g>
     </g>
     <g id="text_10">
      <!-- −1.0 -->
      <g transform="translate(58.088906 405.939141)scale(0.11 -0.11)">
       <use xlink:href="#DejaVuSans-2212"/>
       <use xlink:href="#DejaVuSans-31" x="83.789062"/>
       <use xlink:href="#DejaVuSans-2e" x="147.412109"/>
       <use xlink:href="#DejaVuSans-30" x="179.199219"/>
      </g>
     </g>
    </g>
    <g id="ytick_4">
     <g id="line2d_10">
      <g>
       <use xlink:href="#mc2db9b0abd" x="91.8" y="346.32" style="stroke: #000000; stroke-width: 0.8"/>
      </g>
     </g>
     <g id="text_11">
      <!-- −0.5 -->
      <g transform="translate(58.088906 350.499141)scale(0.11 -0.11)">
       <use xlink:href="#DejaVuSans-2212"/>
       <use xlink:href="#DejaVuSans-30" x="83.789062"/>
       <use xlink:href="#DejaVuSans-2e" x="147.412109"/>
       <use xlink:href="#DejaVuSans-35" x="179.199219"/>
      </g>
     </g>
    </g>
    <g id="ytick_5">
     <g id="line2d_11">
      <g>
       <use xlink:href="#mc2db9b0abd" x="91.8" y="290.88" style="stroke: #000000; stroke-width: 0.8"/>
      </g>
     </g>
     <g id="text_12">
      <!-- 0.0 -->
      <g transform="translate(67.306562 295.059141)scale(0.11 -0.11)">
       <use xlink:href="#DejaVuSans-30"/>
       <use xlink:href="#DejaVuSans-2e" x="63.623047"/>
       <use xlink:href="#DejaVuSans-30" x="95.410156"/>
      </g>
     </g>
    </g>
    <g id="ytick_6">
     <g id="line2d_12">
      <g>
       <use xlink:href="#mc2db9b0abd" x="91.8" y="235.44" style="stroke: #000000; stroke-width: 0.8"/>
      </g>
     </g>
     <g id="text_13">
      <!-- 0.5 -->
      <g transform="translate(67.306562 239.619141)scale(0.11 -0.11)">
       <use xlink:href="#DejaVuSans-30"/>
       <use xlink:href="#DejaVuSans-2e" x="63.623047"/>
       <use xlink:href="#DejaVuSans-35" x="95.410156"/>
      </g>
     </g>
    </g>
    <g id="ytick_7">
     <g id="line2d_13">
      <g>
       <use xlink:href="#mc2db9b0abd" x="91.8" y="180" style="stroke: #000000; stroke-width: 0.8"/>
      </g>
     </g>
     <g id="text_14">
      <!-- 1.0 -->
      <g transform="translate(67.306562 184.179141)scale(0.11 -0.11)">
       <use xlink:href="#DejaVuSans-31"/>
       <use xlink:href="#DejaVuSans-2e" x="63.623047"/>
       <use xlink:href="#DejaVuSans-30" x="95.410156"/>
      </g>
     </g>
    </g>
    <g id="ytick_8">
     <g id="line2d_14">
      <g>
       <use xlink:href="#mc2db9b0abd" x="91.8" y="124.56" style="stroke: #000000; stroke-width: 0.8"/>
      </g>
     </g>
     <g id="text_15">
      <!-- 1.5 -->
      <g transform="translate(67.306562 128.739141)scale(0.11 -0.11)">
       <use xlink:href="#DejaVuSans-31"/>
       <use xlink:href="#DejaVuSans-2e" x="63.623047"/>
       <use xlink:href="#DejaVuSans-35" x="95.410156"/>
      </g>
     </g>
    </g>
    <g id="ytick_9">
     <g id="line2d_15">
      <g>
       <use xlink:href="#mc2db9b0abd" x="91.8" y="69.12" style="stroke: #000000; stroke-width: 0.8"/>
      </g>
     </g>
     <g id="text_16">
      <!-- 2.0 -->
      <g transform="translate(67.306562 73.299141)scale(0.11 -0.11)">
       <use xlink:href="#DejaVuSans-32"/>
       <use xlink:href="#DejaVuSans-2e" x="63.623047"/>
       <use xlink:href="#DejaVuSans-30" x="95.410156"/>
      </g>
     </g>
    </g>
    <g id="text_17">
     <!-- Im(z) -->
     <g transform="translate(51.177344 308.899531)rotate(-90)scale(0.14 -0.14)">
      <defs>
       <path id="DejaVuSans-49" d="M 628 4666 
L 1259 4666 
L 1259 0 
L 628 0 
L 628 4666 
z
" transform="scale(0.015625)"/>
       <path id="DejaVuSans-6d" d="M 3328 2828 
Q 3544 3216 3844 3400 
Q 4144 3584 4550 3584 
Q 5097 3584 5394 3201 
Q 5691 2819 5691 2113 
L 5691 0 
L 5113 0 
L 5113 2094 
Q 5113 2597 4934 2840 
Q 4756 3084 4391 3084 
Q 3944 3084 3684 2787 
Q 3425 2491 3425 1978 
L 3425 0 
L 2847 0 
L 2847 2094 
Q 2847 2600 2669 2842 
Q 2491 3084 2119 3084 
Q 1678 3084 1418 2786 
Q 1159 2488 1159 1978 
L 1159 0 
L 581 0 
L 581 3500 
L 1159 3500 
L 1159 2956 
Q 1356 3278 1631 3431 
Q 1906 3584 2284 3584 
Q 2666 3584 2933 3390 
Q 3200 3197 3328 2828 
z
" transform="scale(0.015625)"/>
      </defs>
      <use xlink:href="#DejaVuSans-49"/>
      <use xlink:href="#DejaVuSans-6d" x="29.492188"/>
      <use xlink:href="#DejaVuSans-28" x="126.904297"/>
      <use xlink:href="#DejaVuSans-7a" x="165.917969"/>
      <use xlink:href="#DejaVuSans-29" x="218.408203"/>
     </g>
    </g>
   </g>
   <g id="line2d_16">
    <path d="M 91.8 290.88 
L 646.2 290.88 
" clip-path="url(#pe19b884631)" style="fill: none; stroke: #000000; stroke-width: 1.5; stroke-linecap: square"/>
   </g>
   <g id="line2d_17">
    <path d="M 424.44 512.64 
L 424.44 69.12 
" clip-path="url(#pe19b884631)" style="fill: none; stroke: #000000; stroke-width: 1.5; stroke-linecap: square"/>
   </g>
   <g id="patch_3">
    <path d="M 91.8 512.64 
L 91.8 69.12 
" style="fill: none; stroke: #000000; stroke-width: 0.8; stroke-linejoin: miter; stroke-linecap: square"/>
   </g>
   <g id="patch_4">
    <path d="M 646.2 512.64 
L 646.2 69.12 
" style="fill: none; stroke: #000000; stroke-width: 0.8; stroke-linejoin: miter; stroke-linecap: square"/>
   </g>
   <g id="patch_5">
    <path d="M 91.8 512.64 
L 646.2 512.64 
" style="fill: none; stroke: #000000; stroke-width: 0.8; stroke-linejoin: miter; stroke-linecap: square"/>
   </g>
   <g id="patch_6">
    <path d="M 91.8 69.12 
L 646.2 69.12 
" style="fill: none; stroke: #000000; stroke-width: 0.8; stroke-linejoin: miter; stroke-linecap: square"/>
   </g>
  </g>
 </g>
 <defs>
  <clipPath id="pe19b884631">
   <rect x="91.8" y="69.12" width="554.4" height="443.52"/>
  </clipPath>
 </defs>
</svg>
