<?xml version="1.0" encoding="utf-8" standalone="no"?>
<!DOCTYPE svg PUBLIC "-//W3C//DTD SVG 1.1//EN"
  "http://www.w3.org/Graphics/SVG/1.1/DTD/svg11.dtd">
<svg xmlns:xlink="http://www.w3.org/1999/xlink" width="720pt" height="576pt" viewBox="0 0 720 576" xmlns="http://www.w3.org/2000/svg" version="1.1">
 <metadata>
  <rdf:RDF xmlns:dc="http://purl.org/dc/elements/1.1/" xmlns:cc="http://creativecommons.org/ns#" xmlns:rdf="http://www.w3.org/1999/02/22-rdf-syntax-ns#">
   <cc:Work>
    <dc:type rdf:resource="http://purl.org/dc/dcmitype/StillImage"/>
    <dc:date>2023-06-05T17:34:43.227335</dc:date>
    <dc:format>image/svg+xml</dc:format>
    <dc:creator>
     <cc:Agent>
      <dc:title>Matplotlib v3.5.1, https://matplotlib.org/</dc:title>
     </cc:Agent>
    </dc:creator>
   </cc:Work>
  </rdf:RDF>
 </metadata>
 <defs>
  <style type="text/css">*{stroke-linejoin: round; stroke-linecap: butt}</style>
 </defs>
 <g id="figure_1">
  <g id="patch_1">
   <path d="M 0 576 
L 720 576 
L 720 0 
L 0 0 
z
" style="fill: #ffffff"/>
  </g>
  <g id="axes_1">
   <g id="patch_2">
    <path d="M 91.8 512.64 
L 646.2 512.64 
L 646.2 69.12 
L 91.8 69.12 
z
" style="fill: #ffffff"/>
   </g>
   <g id="PathCollection_1">
    <path d="M 93.189474 512.64 
L 94.578947 512.64 
L 95.968421 512.64 
L 97.357895 512.64 
L 98.747368 512.64 
L 100.136842 512.64 
L 101.526316 512.64 
L 102.915789 512.64 
L 104.305263 512.64 
L 105.694737 512.64 
L 107.084211 512.64 
L 108.473684 512.64 
L 109.863158 512.64 
L 111.252632 512.64 
L 112.642105 512.64 
L 114.031579 512.64 
L 115.421053 512.64 
L 116.810526 512.64 
L 118.2 512.64 
L 119.589474 512.64 
L 120.978947 512.64 
L 122.368421 512.64 
L 123.757895 512.64 
L 125.147368 512.64 
L 126.536842 512.64 
L 127.926316 512.64 
L 129.315789 512.64 
L 130.705263 512.64 
L 132.094737 512.64 
L 133.484211 512.64 
L 134.873684 512.64 
L 136.263158 512.64 
L 137.652632 512.64 
L 139.042105 512.64 
L 140.431579 512.64 
L 141.821053 512.64 
L 143.210526 512.64 
L 144.6 512.64 
L 145.989474 512.64 
L 147.378947 512.64 
L 148.768421 512.64 
L 150.157895 512.64 
L 151.547368 512.64 
L 152.936842 512.64 
L 154.326316 512.64 
L 155.715789 512.64 
L 157.105263 512.64 
L 158.494737 512.64 
L 159.884211 512.64 
L 161.273684 512.64 
L 162.663158 512.64 
L 164.052632 512.64 
L 165.442105 512.64 
L 166.831579 512.64 
L 168.221053 512.64 
L 169.610526 512.64 
L 171 512.64 
L 172.389474 512.64 
L 173.778947 512.64 
L 175.168421 512.64 
L 176.557895 512.64 
L 177.947368 512.64 
L 179.336842 512.64 
L 180.726316 512.64 
L 182.115789 512.64 
L 183.505263 512.64 
L 184.894737 512.64 
L 186.284211 512.64 
L 187.673684 512.64 
L 189.063158 512.64 
L 190.452632 512.64 
L 191.842105 512.64 
L 193.231579 512.64 
L 194.621053 512.64 
L 196.010526 512.64 
L 197.4 512.64 
L 198.789474 512.64 
L 200.178947 512.64 
L 201.568421 512.64 
L 202.957895 512.64 
L 204.347368 512.64 
L 205.736842 512.64 
L 207.126316 512.64 
L 208.515789 512.64 
L 209.905263 512.64 
L 211.294737 512.64 
L 212.684211 512.64 
L 214.073684 512.64 
L 215.463158 512.64 
L 216.852632 512.64 
L 218.242105 512.64 
L 219.631579 512.64 
L 221.021053 512.64 
L 222.410526 512.64 
L 223.8 512.64 
L 225.189474 512.64 
L 226.578947 512.64 
L 227.968421 512.64 
L 229.357895 512.64 
L 230.747368 512.64 
L 232.136842 512.64 
L 233.526316 512.64 
L 234.915789 512.64 
L 236.305263 512.64 
L 237.694737 512.64 
L 239.084211 512.64 
L 240.473684 512.64 
L 241.863158 512.64 
L 243.252632 512.64 
L 244.642105 512.64 
L 246.031579 512.64 
L 247.421053 512.64 
L 248.810526 512.64 
L 250.2 512.64 
L 251.589474 512.64 
L 252.978947 512.64 
L 254.368421 512.64 
L 255.757895 512.64 
L 257.147368 512.64 
L 258.536842 512.64 
L 259.926316 512.64 
L 261.315789 512.64 
L 262.705263 512.64 
L 264.094737 512.64 
L 265.484211 512.64 
L 266.873684 512.64 
L 268.263158 512.64 
L 269.652632 512.64 
L 271.042105 512.64 
L 272.431579 512.64 
L 273.821053 512.64 
L 275.210526 512.64 
L 276.6 512.64 
L 277.989474 512.64 
L 279.378947 512.64 
L 280.768421 512.64 
L 282.157895 512.64 
L 283.547368 512.64 
L 284.936842 512.64 
L 286.326316 512.64 
L 287.715789 512.64 
L 289.105263 512.64 
L 290.494737 512.64 
L 291.884211 512.64 
L 293.273684 512.64 
L 294.663158 512.64 
L 296.052632 512.64 
L 297.442105 512.64 
L 298.831579 512.64 
L 300.221053 512.64 
L 301.610526 512.64 
L 303 512.64 
L 304.389474 512.64 
L 305.778947 512.64 
L 307.168421 512.64 
L 308.557895 512.64 
L 309.947368 512.64 
L 311.336842 512.64 
L 312.726316 512.64 
L 314.115789 512.64 
L 315.505263 512.64 
L 316.894737 512.64 
L 318.284211 512.64 
L 319.673684 512.64 
L 321.063158 512.64 
L 322.452632 512.64 
L 323.842105 512.64 
L 325.231579 512.64 
L 326.621053 512.64 
L 328.010526 512.64 
L 329.4 512.64 
L 330.789474 512.64 
L 332.178947 512.64 
L 333.568421 512.64 
L 334.957895 512.64 
L 336.347368 512.64 
L 337.736842 512.64 
L 339.126316 512.64 
L 340.515789 512.64 
L 341.905263 512.64 
L 343.294737 512.64 
L 344.684211 512.64 
L 346.073684 512.64 
L 347.463158 512.64 
L 348.852632 512.64 
L 350.242105 512.64 
L 351.631579 512.64 
L 353.021053 512.64 
L 354.410526 512.64 
L 355.8 512.64 
L 357.189474 512.64 
L 358.578947 512.64 
L 359.968421 512.64 
L 361.357895 512.64 
L 362.747368 512.64 
L 364.136842 512.64 
L 365.526316 512.64 
L 366.915789 512.64 
L 368.305263 512.64 
L 369.694737 512.64 
L 371.084211 512.64 
L 372.473684 512.64 
L 373.863158 512.64 
L 375.252632 512.64 
L 376.642105 512.64 
L 378.031579 512.64 
L 379.421053 512.64 
L 380.810526 512.64 
L 382.2 512.64 
L 383.589474 512.64 
L 384.978947 512.64 
L 386.368421 512.64 
L 387.757895 512.64 
L 389.147368 512.64 
L 390.536842 512.64 
L 391.926316 512.64 
L 393.315789 512.64 
L 394.705263 512.64 
L 396.094737 512.64 
L 397.484211 512.64 
L 398.873684 512.64 
L 400.263158 512.64 
L 401.652632 512.64 
L 403.042105 512.64 
L 404.431579 512.64 
L 405.821053 512.64 
L 407.210526 512.64 
L 408.6 512.64 
L 409.989474 512.64 
L 411.378947 512.64 
L 412.768421 512.64 
L 414.157895 512.64 
L 415.547368 512.64 
L 416.936842 512.64 
L 418.326316 512.64 
L 419.715789 512.64 
L 421.105263 512.64 
L 422.494737 512.64 
L 423.884211 512.64 
L 425.273684 512.64 
L 426.663158 512.64 
L 428.052632 512.64 
L 429.442105 512.64 
L 430.831579 512.64 
L 432.221053 512.64 
L 433.610526 512.64 
L 435 512.64 
L 436.389474 512.64 
L 437.778947 512.64 
L 439.168421 512.64 
L 440.557895 512.64 
L 441.947368 512.64 
L 443.336842 512.64 
L 444.726316 512.64 
L 446.115789 512.64 
L 447.505263 512.64 
L 448.894737 512.64 
L 450.284211 512.64 
L 451.673684 512.64 
L 453.063158 512.64 
L 454.452632 512.64 
L 455.842105 512.64 
L 457.231579 512.64 
L 458.621053 512.64 
L 460.010526 512.64 
L 461.4 512.64 
L 462.789474 512.64 
L 464.178947 512.64 
L 465.568421 512.64 
L 466.957895 512.64 
L 468.347368 512.64 
L 469.736842 512.64 
L 471.126316 512.64 
L 472.515789 512.64 
L 473.905263 512.64 
L 475.294737 512.64 
L 476.684211 512.64 
L 478.073684 512.64 
L 479.463158 512.64 
L 480.852632 512.64 
L 482.242105 512.64 
L 483.631579 512.64 
L 485.021053 512.64 
L 486.410526 512.64 
L 487.8 512.64 
L 489.189474 512.64 
L 490.578947 512.64 
L 491.968421 512.64 
L 493.357895 512.64 
L 494.747368 512.64 
L 496.136842 512.64 
L 497.526316 512.64 
L 498.915789 512.64 
L 500.305263 512.64 
L 501.694737 512.64 
L 503.084211 512.64 
L 504.473684 512.64 
L 505.863158 512.64 
L 507.252632 512.64 
L 508.642105 512.64 
L 510.031579 512.64 
L 511.421053 512.64 
L 512.810526 512.64 
L 514.2 512.64 
L 515.589474 512.64 
L 516.978947 512.64 
L 518.368421 512.64 
L 519.757895 512.64 
L 521.147368 512.64 
L 522.536842 512.64 
L 523.926316 512.64 
L 525.315789 512.64 
L 526.705263 512.64 
L 528.094737 512.64 
L 529.484211 512.64 
L 530.873684 512.64 
L 532.263158 512.64 
L 533.652632 512.64 
L 535.042105 512.64 
L 536.431579 512.64 
L 537.821053 512.64 
L 539.210526 512.64 
L 540.6 512.64 
L 541.989474 512.64 
L 543.378947 512.64 
L 544.768421 512.64 
L 546.157895 512.64 
L 547.547368 512.64 
L 548.936842 512.64 
L 550.326316 512.64 
L 551.715789 512.64 
L 553.105263 512.64 
L 554.494737 512.64 
L 555.884211 512.64 
L 557.273684 512.64 
L 558.663158 512.64 
L 560.052632 512.64 
L 561.442105 512.64 
L 562.831579 512.64 
L 564.221053 512.64 
L 565.610526 512.64 
L 567 512.64 
L 568.389474 512.64 
L 569.778947 512.64 
L 571.168421 512.64 
L 572.557895 512.64 
L 573.947368 512.64 
L 575.336842 512.64 
L 576.726316 512.64 
L 578.115789 512.64 
L 579.505263 512.64 
L 580.894737 512.64 
L 582.284211 512.64 
L 583.673684 512.64 
L 585.063158 512.64 
L 586.452632 512.64 
L 587.842105 512.64 
L 589.231579 512.64 
L 590.621053 512.64 
L 592.010526 512.64 
L 593.4 512.64 
L 594.789474 512.64 
L 596.178947 512.64 
L 597.568421 512.64 
L 598.957895 512.64 
L 600.347368 512.64 
L 601.736842 512.64 
L 603.126316 512.64 
L 604.515789 512.64 
L 605.905263 512.64 
L 607.294737 512.64 
L 608.684211 512.64 
L 610.073684 512.64 
L 611.463158 512.64 
L 612.852632 512.64 
L 614.242105 512.64 
L 615.631579 512.64 
L 617.021053 512.64 
L 618.410526 512.64 
L 619.8 512.64 
L 621.189474 512.64 
L 622.578947 512.64 
L 623.968421 512.64 
L 625.357895 512.64 
L 626.747368 512.64 
L 628.136842 512.64 
L 629.526316 512.64 
L 630.915789 512.64 
L 632.305263 512.64 
L 633.694737 512.64 
L 635.084211 512.64 
L 636.473684 512.64 
L 637.863158 512.64 
L 639.252632 512.64 
L 640.642105 512.64 
L 642.031579 512.64 
L 643.421053 512.64 
L 644.810526 512.64 
L 646.2 512.64 
L 646.2 511.528421 
L 646.2 510.416842 
L 646.2 509.305263 
L 646.2 508.193684 
L 646.2 507.082105 
L 646.2 505.970526 
L 646.2 504.858947 
L 646.2 503.747368 
L 646.2 502.635789 
L 646.2 501.524211 
L 646.2 500.412632 
L 646.2 499.301053 
L 646.2 498.189474 
L 646.2 497.077895 
L 646.2 495.966316 
L 646.2 494.854737 
L 646.2 493.743158 
L 646.2 492.631579 
L 646.2 491.52 
L 646.2 490.408421 
L 646.2 489.296842 
L 646.2 488.185263 
L 646.2 487.073684 
L 646.2 485.962105 
L 646.2 484.850526 
L 646.2 483.738947 
L 646.2 482.627368 
L 646.2 481.515789 
L 646.2 480.404211 
L 646.2 479.292632 
L 646.2 478.181053 
L 646.2 477.069474 
L 646.2 475.957895 
L 646.2 474.846316 
L 646.2 473.734737 
L 646.2 472.623158 
L 646.2 471.511579 
L 646.2 470.4 
L 646.2 469.288421 
L 646.2 468.176842 
L 646.2 467.065263 
L 646.2 465.953684 
L 646.2 464.842105 
L 646.2 463.730526 
L 646.2 462.618947 
L 646.2 461.507368 
L 646.2 460.395789 
L 646.2 459.284211 
L 646.2 458.172632 
L 646.2 457.061053 
L 646.2 455.949474 
L 646.2 454.837895 
L 646.2 453.726316 
L 646.2 452.614737 
L 646.2 451.503158 
L 646.2 450.391579 
L 646.2 449.28 
L 646.2 448.168421 
L 646.2 447.056842 
L 646.2 445.945263 
L 646.2 444.833684 
L 646.2 443.722105 
L 646.2 442.610526 
L 646.2 441.498947 
L 646.2 440.387368 
L 646.2 439.275789 
L 646.2 438.164211 
L 646.2 437.052632 
L 646.2 435.941053 
L 646.2 434.829474 
L 646.2 433.717895 
L 646.2 432.606316 
L 646.2 431.494737 
L 646.2 430.383158 
L 646.2 429.271579 
L 646.2 428.16 
L 646.2 427.048421 
L 646.2 425.936842 
L 646.2 424.825263 
L 646.2 423.713684 
L 646.2 422.602105 
L 646.2 421.490526 
L 646.2 420.378947 
L 646.2 419.267368 
L 646.2 418.155789 
L 646.2 417.044211 
L 646.2 415.932632 
L 646.2 414.821053 
L 646.2 413.709474 
L 646.2 412.597895 
L 646.2 411.486316 
L 646.2 410.374737 
L 646.2 409.263158 
L 646.2 408.151579 
L 646.2 407.04 
L 646.2 405.928421 
L 646.2 404.816842 
L 646.2 403.705263 
L 646.2 402.593684 
L 646.2 401.482105 
L 646.2 400.370526 
L 646.2 399.258947 
L 646.2 398.147368 
L 646.2 397.035789 
L 646.2 395.924211 
L 646.2 394.812632 
L 646.2 393.701053 
L 646.2 392.589474 
L 646.2 391.477895 
L 646.2 390.366316 
L 646.2 389.254737 
L 646.2 388.143158 
L 646.2 387.031579 
L 646.2 385.92 
L 646.2 384.808421 
L 646.2 383.696842 
L 646.2 382.585263 
L 646.2 381.473684 
L 646.2 380.362105 
L 646.2 379.250526 
L 646.2 378.138947 
L 646.2 377.027368 
L 646.2 375.915789 
L 646.2 374.804211 
L 646.2 373.692632 
L 646.2 372.581053 
L 646.2 371.469474 
L 646.2 370.357895 
L 646.2 369.246316 
L 646.2 368.134737 
L 646.2 367.023158 
L 646.2 365.911579 
L 646.2 364.8 
L 646.2 363.688421 
L 646.2 362.576842 
L 646.2 361.465263 
L 646.2 360.353684 
L 646.2 359.242105 
L 646.2 358.130526 
L 646.2 357.018947 
L 646.2 355.907368 
L 646.2 354.795789 
L 646.2 353.684211 
L 646.2 352.572632 
L 646.2 351.461053 
L 646.2 350.349474 
L 646.2 349.237895 
L 646.2 348.126316 
L 646.2 347.014737 
L 646.2 345.903158 
L 646.2 344.791579 
L 646.2 343.68 
L 646.2 342.568421 
L 646.2 341.456842 
L 646.2 340.345263 
L 646.2 339.233684 
L 646.2 338.122105 
L 646.2 337.010526 
L 646.2 335.898947 
L 646.2 334.787368 
L 646.2 333.675789 
L 646.2 332.564211 
L 646.2 331.452632 
L 646.2 330.341053 
L 646.2 329.229474 
L 646.2 328.117895 
L 646.2 327.006316 
L 646.2 325.894737 
L 646.2 324.783158 
L 646.2 323.671579 
L 646.2 322.56 
L 646.2 321.448421 
L 646.2 320.336842 
L 646.2 319.225263 
L 646.2 318.113684 
L 646.2 317.002105 
L 646.2 315.890526 
L 646.2 314.778947 
L 646.2 313.667368 
L 646.2 312.555789 
L 646.2 311.444211 
L 646.2 310.332632 
L 646.2 309.221053 
L 646.2 308.109474 
L 646.2 306.997895 
L 646.2 305.886316 
L 646.2 304.774737 
L 646.2 303.663158 
L 646.2 302.551579 
L 646.2 301.44 
L 646.2 300.328421 
L 646.2 299.216842 
L 646.2 298.105263 
L 646.2 296.993684 
L 646.2 295.882105 
L 646.2 294.770526 
L 646.2 293.658947 
L 646.2 292.547368 
L 646.2 291.435789 
L 646.2 290.324211 
L 646.2 289.212632 
L 646.2 288.101053 
L 646.2 286.989474 
L 646.2 285.877895 
L 646.2 284.766316 
L 646.2 283.654737 
L 646.2 282.543158 
L 646.2 281.431579 
L 646.2 280.32 
L 646.2 279.208421 
L 646.2 278.096842 
L 646.2 276.985263 
L 646.2 275.873684 
L 646.2 274.762105 
L 646.2 273.650526 
L 646.2 272.538947 
L 646.2 271.427368 
L 646.2 270.315789 
L 646.2 269.204211 
L 646.2 268.092632 
L 646.2 266.981053 
L 646.2 265.869474 
L 646.2 264.757895 
L 646.2 263.646316 
L 646.2 262.534737 
L 646.2 261.423158 
L 646.2 260.311579 
L 646.2 259.2 
L 646.2 258.088421 
L 646.2 256.976842 
L 646.2 255.865263 
L 646.2 254.753684 
L 646.2 253.642105 
L 646.2 252.530526 
L 646.2 251.418947 
L 646.2 250.307368 
L 646.2 249.195789 
L 646.2 248.084211 
L 646.2 246.972632 
L 646.2 245.861053 
L 646.2 244.749474 
L 646.2 243.637895 
L 646.2 242.526316 
L 646.2 241.414737 
L 646.2 240.303158 
L 646.2 239.191579 
L 646.2 238.08 
L 646.2 236.968421 
L 646.2 235.856842 
L 646.2 234.745263 
L 646.2 233.633684 
L 646.2 232.522105 
L 646.2 231.410526 
L 646.2 230.298947 
L 646.2 229.187368 
L 646.2 228.075789 
L 646.2 226.964211 
L 646.2 225.852632 
L 646.2 224.741053 
L 646.2 223.629474 
L 646.2 222.517895 
L 646.2 221.406316 
L 646.2 220.294737 
L 646.2 219.183158 
L 646.2 218.071579 
L 646.2 216.96 
L 646.2 215.848421 
L 646.2 214.736842 
L 646.2 213.625263 
L 646.2 212.513684 
L 646.2 211.402105 
L 646.2 210.290526 
L 646.2 209.178947 
L 646.2 208.067368 
L 646.2 206.955789 
L 646.2 205.844211 
L 646.2 204.732632 
L 646.2 203.621053 
L 646.2 202.509474 
L 646.2 201.397895 
L 646.2 200.286316 
L 646.2 199.174737 
L 646.2 198.063158 
L 646.2 196.951579 
L 646.2 195.84 
L 646.2 194.728421 
L 646.2 193.616842 
L 646.2 192.505263 
L 646.2 191.393684 
L 646.2 190.282105 
L 646.2 189.170526 
L 646.2 188.058947 
L 646.2 186.947368 
L 646.2 185.835789 
L 646.2 184.724211 
L 646.2 183.612632 
L 646.2 182.501053 
L 646.2 181.389474 
L 646.2 180.277895 
L 646.2 179.166316 
L 646.2 178.054737 
L 646.2 176.943158 
L 646.2 175.831579 
L 646.2 174.72 
L 646.2 173.608421 
L 646.2 172.496842 
L 646.2 171.385263 
L 646.2 170.273684 
L 646.2 169.162105 
L 646.2 168.050526 
L 646.2 166.938947 
L 646.2 165.827368 
L 646.2 164.715789 
L 646.2 163.604211 
L 646.2 162.492632 
L 646.2 161.381053 
L 646.2 160.269474 
L 646.2 159.157895 
L 646.2 158.046316 
L 646.2 156.934737 
L 646.2 155.823158 
L 646.2 154.711579 
L 646.2 153.6 
L 646.2 152.488421 
L 646.2 151.376842 
L 646.2 150.265263 
L 646.2 149.153684 
L 646.2 148.042105 
L 646.2 146.930526 
L 646.2 145.818947 
L 646.2 144.707368 
L 646.2 143.595789 
L 646.2 142.484211 
L 646.2 141.372632 
L 646.2 140.261053 
L 646.2 139.149474 
L 646.2 138.037895 
L 646.2 136.926316 
L 646.2 135.814737 
L 646.2 134.703158 
L 646.2 133.591579 
L 646.2 132.48 
L 646.2 131.368421 
L 646.2 130.256842 
L 646.2 129.145263 
L 646.2 128.033684 
L 646.2 126.922105 
L 646.2 125.810526 
L 646.2 124.698947 
L 646.2 123.587368 
L 646.2 122.475789 
L 646.2 121.364211 
L 646.2 120.252632 
L 646.2 119.141053 
L 646.2 118.029474 
L 646.2 116.917895 
L 646.2 115.806316 
L 646.2 114.694737 
L 646.2 113.583158 
L 646.2 112.471579 
L 646.2 111.36 
L 646.2 110.248421 
L 646.2 109.136842 
L 646.2 108.025263 
L 646.2 106.913684 
L 646.2 105.802105 
L 646.2 104.690526 
L 646.2 103.578947 
L 646.2 102.467368 
L 646.2 101.355789 
L 646.2 100.244211 
L 646.2 99.132632 
L 646.2 98.021053 
L 646.2 96.909474 
L 646.2 95.797895 
L 646.2 94.686316 
L 646.2 93.574737 
L 646.2 92.463158 
L 646.2 91.351579 
L 646.2 90.24 
L 646.2 89.128421 
L 646.2 88.016842 
L 646.2 86.905263 
L 646.2 85.793684 
L 646.2 84.682105 
L 646.2 83.570526 
L 646.2 82.458947 
L 646.2 81.347368 
L 646.2 80.235789 
L 646.2 79.124211 
L 646.2 78.012632 
L 646.2 76.901053 
L 646.2 75.789474 
L 646.2 74.677895 
L 646.2 73.566316 
L 646.2 72.454737 
L 646.2 71.343158 
L 646.2 70.231579 
L 646.2 69.12 
L 644.810526 69.12 
L 643.421053 69.12 
L 642.031579 69.12 
L 640.642105 69.12 
L 639.252632 69.12 
L 637.863158 69.12 
L 636.473684 69.12 
L 635.084211 69.12 
L 633.694737 69.12 
L 632.305263 69.12 
L 630.915789 69.12 
L 629.526316 69.12 
L 628.136842 69.12 
L 626.747368 69.12 
L 625.357895 69.12 
L 623.968421 69.12 
L 622.578947 69.12 
L 621.189474 69.12 
L 619.8 69.12 
L 618.410526 69.12 
L 617.021053 69.12 
L 615.631579 69.12 
L 614.242105 69.12 
L 612.852632 69.12 
L 611.463158 69.12 
L 610.073684 69.12 
L 608.684211 69.12 
L 607.294737 69.12 
L 605.905263 69.12 
L 604.515789 69.12 
L 603.126316 69.12 
L 601.736842 69.12 
L 600.347368 69.12 
L 598.957895 69.12 
L 597.568421 69.12 
L 596.178947 69.12 
L 594.789474 69.12 
L 593.4 69.12 
L 592.010526 69.12 
L 590.621053 69.12 
L 589.231579 69.12 
L 587.842105 69.12 
L 586.452632 69.12 
L 585.063158 69.12 
L 583.673684 69.12 
L 582.284211 69.12 
L 580.894737 69.12 
L 579.505263 69.12 
L 578.115789 69.12 
L 576.726316 69.12 
L 575.336842 69.12 
L 573.947368 69.12 
L 572.557895 69.12 
L 571.168421 69.12 
L 569.778947 69.12 
L 568.389474 69.12 
L 567 69.12 
L 565.610526 69.12 
L 564.221053 69.12 
L 562.831579 69.12 
L 561.442105 69.12 
L 560.052632 69.12 
L 558.663158 69.12 
L 557.273684 69.12 
L 555.884211 69.12 
L 554.494737 69.12 
L 553.105263 69.12 
L 551.715789 69.12 
L 550.326316 69.12 
L 548.936842 69.12 
L 547.547368 69.12 
L 546.157895 69.12 
L 544.768421 69.12 
L 543.378947 69.12 
L 541.989474 69.12 
L 540.6 69.12 
L 539.210526 69.12 
L 537.821053 69.12 
L 536.431579 69.12 
L 535.042105 69.12 
L 533.652632 69.12 
L 532.263158 69.12 
L 530.873684 69.12 
L 529.484211 69.12 
L 528.094737 69.12 
L 526.705263 69.12 
L 525.315789 69.12 
L 523.926316 69.12 
L 522.536842 69.12 
L 521.147368 69.12 
L 519.757895 69.12 
L 518.368421 69.12 
L 516.978947 69.12 
L 515.589474 69.12 
L 514.2 69.12 
L 512.810526 69.12 
L 511.421053 69.12 
L 510.031579 69.12 
L 508.642105 69.12 
L 507.252632 69.12 
L 505.863158 69.12 
L 504.473684 69.12 
L 503.084211 69.12 
L 501.694737 69.12 
L 500.305263 69.12 
L 498.915789 69.12 
L 497.526316 69.12 
L 496.136842 69.12 
L 494.747368 69.12 
L 493.357895 69.12 
L 491.968421 69.12 
L 490.578947 69.12 
L 489.189474 69.12 
L 487.8 69.12 
L 486.410526 69.12 
L 485.021053 69.12 
L 483.631579 69.12 
L 482.242105 69.12 
L 480.852632 69.12 
L 479.463158 69.12 
L 478.073684 69.12 
L 476.684211 69.12 
L 475.294737 69.12 
L 473.905263 69.12 
L 472.515789 69.12 
L 471.126316 69.12 
L 469.736842 69.12 
L 468.347368 69.12 
L 466.957895 69.12 
L 465.568421 69.12 
L 464.178947 69.12 
L 462.789474 69.12 
L 461.4 69.12 
L 460.010526 69.12 
L 458.621053 69.12 
L 457.231579 69.12 
L 455.842105 69.12 
L 454.452632 69.12 
L 453.063158 69.12 
L 451.673684 69.12 
L 450.284211 69.12 
L 448.894737 69.12 
L 447.505263 69.12 
L 446.115789 69.12 
L 444.726316 69.12 
L 443.336842 69.12 
L 441.947368 69.12 
L 440.557895 69.12 
L 439.168421 69.12 
L 437.778947 69.12 
L 436.389474 69.12 
L 435 69.12 
L 433.610526 69.12 
L 432.221053 69.12 
L 430.831579 69.12 
L 429.442105 69.12 
L 428.052632 69.12 
L 426.663158 69.12 
L 425.273684 69.12 
L 423.884211 69.12 
L 422.494737 69.12 
L 421.105263 69.12 
L 419.715789 69.12 
L 418.326316 69.12 
L 416.936842 69.12 
L 415.547368 69.12 
L 414.157895 69.12 
L 412.768421 69.12 
L 411.378947 69.12 
L 409.989474 69.12 
L 408.6 69.12 
L 407.210526 69.12 
L 405.821053 69.12 
L 404.431579 69.12 
L 403.042105 69.12 
L 401.652632 69.12 
L 400.263158 69.12 
L 398.873684 69.12 
L 397.484211 69.12 
L 396.094737 69.12 
L 394.705263 69.12 
L 393.315789 69.12 
L 391.926316 69.12 
L 390.536842 69.12 
L 389.147368 69.12 
L 387.757895 69.12 
L 386.368421 69.12 
L 384.978947 69.12 
L 383.589474 69.12 
L 382.2 69.12 
L 380.810526 69.12 
L 379.421053 69.12 
L 378.031579 69.12 
L 376.642105 69.12 
L 375.252632 69.12 
L 373.863158 69.12 
L 372.473684 69.12 
L 371.084211 69.12 
L 369.694737 69.12 
L 368.305263 69.12 
L 366.915789 69.12 
L 365.526316 69.12 
L 364.136842 69.12 
L 362.747368 69.12 
L 361.357895 69.12 
L 359.968421 69.12 
L 358.578947 69.12 
L 357.189474 69.12 
L 355.8 69.12 
L 354.410526 69.12 
L 353.021053 69.12 
L 351.631579 69.12 
L 350.242105 69.12 
L 348.852632 69.12 
L 347.463158 69.12 
L 346.073684 69.12 
L 344.684211 69.12 
L 343.294737 69.12 
L 341.905263 69.12 
L 340.515789 69.12 
L 339.126316 69.12 
L 337.736842 69.12 
L 336.347368 69.12 
L 334.957895 69.12 
L 333.568421 69.12 
L 332.178947 69.12 
L 330.789474 69.12 
L 329.4 69.12 
L 328.010526 69.12 
L 326.621053 69.12 
L 325.231579 69.12 
L 323.842105 69.12 
L 322.452632 69.12 
L 321.063158 69.12 
L 319.673684 69.12 
L 318.284211 69.12 
L 316.894737 69.12 
L 315.505263 69.12 
L 314.115789 69.12 
L 312.726316 69.12 
L 311.336842 69.12 
L 309.947368 69.12 
L 308.557895 69.12 
L 307.168421 69.12 
L 305.778947 69.12 
L 304.389474 69.12 
L 303 69.12 
L 301.610526 69.12 
L 300.221053 69.12 
L 298.831579 69.12 
L 297.442105 69.12 
L 296.052632 69.12 
L 294.663158 69.12 
L 293.273684 69.12 
L 291.884211 69.12 
L 290.494737 69.12 
L 289.105263 69.12 
L 287.715789 69.12 
L 286.326316 69.12 
L 284.936842 69.12 
L 283.547368 69.12 
L 282.157895 69.12 
L 280.768421 69.12 
L 279.378947 69.12 
L 277.989474 69.12 
L 276.6 69.12 
L 275.210526 69.12 
L 273.821053 69.12 
L 272.431579 69.12 
L 271.042105 69.12 
L 269.652632 69.12 
L 268.263158 69.12 
L 266.873684 69.12 
L 265.484211 69.12 
L 264.094737 69.12 
L 262.705263 69.12 
L 261.315789 69.12 
L 259.926316 69.12 
L 258.536842 69.12 
L 257.147368 69.12 
L 255.757895 69.12 
L 254.368421 69.12 
L 252.978947 69.12 
L 251.589474 69.12 
L 250.2 69.12 
L 248.810526 69.12 
L 247.421053 69.12 
L 246.031579 69.12 
L 244.642105 69.12 
L 243.252632 69.12 
L 241.863158 69.12 
L 240.473684 69.12 
L 239.084211 69.12 
L 237.694737 69.12 
L 236.305263 69.12 
L 234.915789 69.12 
L 233.526316 69.12 
L 232.136842 69.12 
L 230.747368 69.12 
L 229.357895 69.12 
L 227.968421 69.12 
L 226.578947 69.12 
L 225.189474 69.12 
L 223.8 69.12 
L 222.410526 69.12 
L 221.021053 69.12 
L 219.631579 69.12 
L 218.242105 69.12 
L 216.852632 69.12 
L 215.463158 69.12 
L 214.073684 69.12 
L 212.684211 69.12 
L 211.294737 69.12 
L 209.905263 69.12 
L 208.515789 69.12 
L 207.126316 69.12 
L 205.736842 69.12 
L 204.347368 69.12 
L 202.957895 69.12 
L 201.568421 69.12 
L 200.178947 69.12 
L 198.789474 69.12 
L 197.4 69.12 
L 196.010526 69.12 
L 194.621053 69.12 
L 193.231579 69.12 
L 191.842105 69.12 
L 190.452632 69.12 
L 189.063158 69.12 
L 187.673684 69.12 
L 186.284211 69.12 
L 184.894737 69.12 
L 183.505263 69.12 
L 182.115789 69.12 
L 180.726316 69.12 
L 179.336842 69.12 
L 177.947368 69.12 
L 176.557895 69.12 
L 175.168421 69.12 
L 173.778947 69.12 
L 172.389474 69.12 
L 171 69.12 
L 169.610526 69.12 
L 168.221053 69.12 
L 166.831579 69.12 
L 165.442105 69.12 
L 164.052632 69.12 
L 162.663158 69.12 
L 161.273684 69.12 
L 159.884211 69.12 
L 158.494737 69.12 
L 157.105263 69.12 
L 155.715789 69.12 
L 154.326316 69.12 
L 152.936842 69.12 
L 151.547368 69.12 
L 150.157895 69.12 
L 148.768421 69.12 
L 147.378947 69.12 
L 145.989474 69.12 
L 144.6 69.12 
L 143.210526 69.12 
L 141.821053 69.12 
L 140.431579 69.12 
L 139.042105 69.12 
L 137.652632 69.12 
L 136.263158 69.12 
L 134.873684 69.12 
L 133.484211 69.12 
L 132.094737 69.12 
L 130.705263 69.12 
L 129.315789 69.12 
L 127.926316 69.12 
L 126.536842 69.12 
L 125.147368 69.12 
L 123.757895 69.12 
L 122.368421 69.12 
L 120.978947 69.12 
L 119.589474 69.12 
L 118.2 69.12 
L 116.810526 69.12 
L 115.421053 69.12 
L 114.031579 69.12 
L 112.642105 69.12 
L 111.252632 69.12 
L 109.863158 69.12 
L 108.473684 69.12 
L 107.084211 69.12 
L 105.694737 69.12 
L 104.305263 69.12 
L 102.915789 69.12 
L 101.526316 69.12 
L 100.136842 69.12 
L 98.747368 69.12 
L 97.357895 69.12 
L 95.968421 69.12 
L 94.578947 69.12 
L 93.189474 69.12 
L 91.8 69.12 
L 91.8 70.231579 
L 91.8 71.343158 
L 91.8 72.454737 
L 91.8 73.566316 
L 91.8 74.677895 
L 91.8 75.789474 
L 91.8 76.901053 
L 91.8 78.012632 
L 91.8 79.124211 
L 91.8 80.235789 
L 91.8 81.347368 
L 91.8 82.458947 
L 91.8 83.570526 
L 91.8 84.682105 
L 91.8 85.793684 
L 91.8 86.905263 
L 91.8 88.016842 
L 91.8 89.128421 
L 91.8 90.24 
L 91.8 91.351579 
L 91.8 92.463158 
L 91.8 93.574737 
L 91.8 94.686316 
L 91.8 95.797895 
L 91.8 96.909474 
L 91.8 98.021053 
L 91.8 99.132632 
L 91.8 100.244211 
L 91.8 101.355789 
L 91.8 102.467368 
L 91.8 103.578947 
L 91.8 104.690526 
L 91.8 105.802105 
L 91.8 106.913684 
L 91.8 108.025263 
L 91.8 109.136842 
L 91.8 110.248421 
L 91.8 111.36 
L 91.8 112.471579 
L 91.8 113.583158 
L 91.8 114.694737 
L 91.8 115.806316 
L 91.8 116.917895 
L 91.8 118.029474 
L 91.8 119.141053 
L 91.8 120.252632 
L 91.8 121.364211 
L 91.8 122.475789 
L 91.8 123.587368 
L 91.8 124.698947 
L 91.8 125.810526 
L 91.8 126.922105 
L 91.8 128.033684 
L 91.8 129.145263 
L 91.8 130.256842 
L 91.8 131.368421 
L 91.8 132.48 
L 91.8 133.591579 
L 91.8 134.703158 
L 91.8 135.814737 
L 91.8 136.926316 
L 91.8 138.037895 
L 91.8 139.149474 
L 91.8 140.261053 
L 91.8 141.372632 
L 91.8 142.484211 
L 91.8 143.595789 
L 91.8 144.707368 
L 91.8 145.818947 
L 91.8 146.930526 
L 91.8 148.042105 
L 91.8 149.153684 
L 91.8 150.265263 
L 91.8 151.376842 
L 91.8 152.488421 
L 91.8 153.6 
L 91.8 154.711579 
L 91.8 155.823158 
L 91.8 156.934737 
L 91.8 158.046316 
L 91.8 159.157895 
L 91.8 160.269474 
L 91.8 161.381053 
L 91.8 162.492632 
L 91.8 163.604211 
L 91.8 164.715789 
L 91.8 165.827368 
L 91.8 166.938947 
L 91.8 168.050526 
L 91.8 169.162105 
L 91.8 170.273684 
L 91.8 171.385263 
L 91.8 172.496842 
L 91.8 173.608421 
L 91.8 174.72 
L 91.8 175.831579 
L 91.8 176.943158 
L 91.8 178.054737 
L 91.8 179.166316 
L 91.8 180.277895 
L 91.8 181.389474 
L 91.8 182.501053 
L 91.8 183.612632 
L 91.8 184.724211 
L 91.8 185.835789 
L 91.8 186.947368 
L 91.8 188.058947 
L 91.8 189.170526 
L 91.8 190.282105 
L 91.8 191.393684 
L 91.8 192.505263 
L 91.8 193.616842 
L 91.8 194.728421 
L 91.8 195.84 
L 91.8 196.951579 
L 91.8 198.063158 
L 91.8 199.174737 
L 91.8 200.286316 
L 91.8 201.397895 
L 91.8 202.509474 
L 91.8 203.621053 
L 91.8 204.732632 
L 91.8 205.844211 
L 91.8 206.955789 
L 91.8 208.067368 
L 91.8 209.178947 
L 91.8 210.290526 
L 91.8 211.402105 
L 91.8 212.513684 
L 91.8 213.625263 
L 91.8 214.736842 
L 91.8 215.848421 
L 91.8 216.96 
L 91.8 218.071579 
L 91.8 219.183158 
L 91.8 220.294737 
L 91.8 221.406316 
L 91.8 222.517895 
L 91.8 223.629474 
L 91.8 224.741053 
L 91.8 225.852632 
L 91.8 226.964211 
L 91.8 228.075789 
L 91.8 229.187368 
L 91.8 230.298947 
L 91.8 231.410526 
L 91.8 232.522105 
L 91.8 233.633684 
L 91.8 234.745263 
L 91.8 235.856842 
L 91.8 236.968421 
L 91.8 238.08 
L 91.8 239.191579 
L 91.8 240.303158 
L 91.8 241.414737 
L 91.8 242.526316 
L 91.8 243.637895 
L 91.8 244.749474 
L 91.8 245.861053 
L 91.8 246.972632 
L 91.8 248.084211 
L 91.8 249.195789 
L 91.8 250.307368 
L 91.8 251.418947 
L 91.8 252.530526 
L 91.8 253.642105 
L 91.8 254.753684 
L 91.8 255.865263 
L 91.8 256.976842 
L 91.8 258.088421 
L 91.8 259.2 
L 91.8 260.311579 
L 91.8 261.423158 
L 91.8 262.534737 
L 91.8 263.646316 
L 91.8 264.757895 
L 91.8 265.869474 
L 91.8 266.981053 
L 91.8 268.092632 
L 91.8 269.204211 
L 91.8 270.315789 
L 91.8 271.427368 
L 91.8 272.538947 
L 91.8 273.650526 
L 91.8 274.762105 
L 91.8 275.873684 
L 91.8 276.985263 
L 91.8 278.096842 
L 91.8 279.208421 
L 91.8 280.32 
L 91.8 281.431579 
L 91.8 282.543158 
L 91.8 283.654737 
L 91.8 284.766316 
L 91.8 285.877895 
L 91.8 286.989474 
L 91.8 288.101053 
L 91.8 289.212632 
L 91.8 290.324211 
L 91.8 291.435789 
L 91.8 292.547368 
L 91.8 293.658947 
L 91.8 294.770526 
L 91.8 295.882105 
L 91.8 296.993684 
L 91.8 298.105263 
L 91.8 299.216842 
L 91.8 300.328421 
L 91.8 301.44 
L 91.8 302.551579 
L 91.8 303.663158 
L 91.8 304.774737 
L 91.8 305.886316 
L 91.8 306.997895 
L 91.8 308.109474 
L 91.8 309.221053 
L 91.8 310.332632 
L 91.8 311.444211 
L 91.8 312.555789 
L 91.8 313.667368 
L 91.8 314.778947 
L 91.8 315.890526 
L 91.8 317.002105 
L 91.8 318.113684 
L 91.8 319.225263 
L 91.8 320.336842 
L 91.8 321.448421 
L 91.8 322.56 
L 91.8 323.671579 
L 91.8 324.783158 
L 91.8 325.894737 
L 91.8 327.006316 
L 91.8 328.117895 
L 91.8 329.229474 
L 91.8 330.341053 
L 91.8 331.452632 
L 91.8 332.564211 
L 91.8 333.675789 
L 91.8 334.787368 
L 91.8 335.898947 
L 91.8 337.010526 
L 91.8 338.122105 
L 91.8 339.233684 
L 91.8 340.345263 
L 91.8 341.456842 
L 91.8 342.568421 
L 91.8 343.68 
L 91.8 344.791579 
L 91.8 345.903158 
L 91.8 347.014737 
L 91.8 348.126316 
L 91.8 349.237895 
L 91.8 350.349474 
L 91.8 351.461053 
L 91.8 352.572632 
L 91.8 353.684211 
L 91.8 354.795789 
L 91.8 355.907368 
L 91.8 357.018947 
L 91.8 358.130526 
L 91.8 359.242105 
L 91.8 360.353684 
L 91.8 361.465263 
L 91.8 362.576842 
L 91.8 363.688421 
L 91.8 364.8 
L 91.8 365.911579 
L 91.8 367.023158 
L 91.8 368.134737 
L 91.8 369.246316 
L 91.8 370.357895 
L 91.8 371.469474 
L 91.8 372.581053 
L 91.8 373.692632 
L 91.8 374.804211 
L 91.8 375.915789 
L 91.8 377.027368 
L 91.8 378.138947 
L 91.8 379.250526 
L 91.8 380.362105 
L 91.8 381.473684 
L 91.8 382.585263 
L 91.8 383.696842 
L 91.8 384.808421 
L 91.8 385.92 
L 91.8 387.031579 
L 91.8 388.143158 
L 91.8 389.254737 
L 91.8 390.366316 
L 91.8 391.477895 
L 91.8 392.589474 
L 91.8 393.701053 
L 91.8 394.812632 
L 91.8 395.924211 
L 91.8 397.035789 
L 91.8 398.147368 
L 91.8 399.258947 
L 91.8 400.370526 
L 91.8 401.482105 
L 91.8 402.593684 
L 91.8 403.705263 
L 91.8 404.816842 
L 91.8 405.928421 
L 91.8 407.04 
L 91.8 408.151579 
L 91.8 409.263158 
L 91.8 410.374737 
L 91.8 411.486316 
L 91.8 412.597895 
L 91.8 413.709474 
L 91.8 414.821053 
L 91.8 415.932632 
L 91.8 417.044211 
L 91.8 418.155789 
L 91.8 419.267368 
L 91.8 420.378947 
L 91.8 421.490526 
L 91.8 422.602105 
L 91.8 423.713684 
L 91.8 424.825263 
L 91.8 425.936842 
L 91.8 427.048421 
L 91.8 428.16 
L 91.8 429.271579 
L 91.8 430.383158 
L 91.8 431.494737 
L 91.8 432.606316 
L 91.8 433.717895 
L 91.8 434.829474 
L 91.8 435.941053 
L 91.8 437.052632 
L 91.8 438.164211 
L 91.8 439.275789 
L 91.8 440.387368 
L 91.8 441.498947 
L 91.8 442.610526 
L 91.8 443.722105 
L 91.8 444.833684 
L 91.8 445.945263 
L 91.8 447.056842 
L 91.8 448.168421 
L 91.8 449.28 
L 91.8 450.391579 
L 91.8 451.503158 
L 91.8 452.614737 
L 91.8 453.726316 
L 91.8 454.837895 
L 91.8 455.949474 
L 91.8 457.061053 
L 91.8 458.172632 
L 91.8 459.284211 
L 91.8 460.395789 
L 91.8 461.507368 
L 91.8 462.618947 
L 91.8 463.730526 
L 91.8 464.842105 
L 91.8 465.953684 
L 91.8 467.065263 
L 91.8 468.176842 
L 91.8 469.288421 
L 91.8 470.4 
L 91.8 471.511579 
L 91.8 472.623158 
L 91.8 473.734737 
L 91.8 474.846316 
L 91.8 475.957895 
L 91.8 477.069474 
L 91.8 478.181053 
L 91.8 479.292632 
L 91.8 480.404211 
L 91.8 481.515789 
L 91.8 482.627368 
L 91.8 483.738947 
L 91.8 484.850526 
L 91.8 485.962105 
L 91.8 487.073684 
L 91.8 488.185263 
L 91.8 489.296842 
L 91.8 490.408421 
L 91.8 491.52 
L 91.8 492.631579 
L 91.8 493.743158 
L 91.8 494.854737 
L 91.8 495.966316 
L 91.8 497.077895 
L 91.8 498.189474 
L 91.8 499.301053 
L 91.8 500.412632 
L 91.8 501.524211 
L 91.8 502.635789 
L 91.8 503.747368 
L 91.8 504.858947 
L 91.8 505.970526 
L 91.8 507.082105 
L 91.8 508.193684 
L 91.8 509.305263 
L 91.8 510.416842 
L 91.8 511.528421 
L 91.8 512.64 
z
M 527.504364 401.482105 
L 526.705263 401.425377 
L 525.315789 401.309222 
L 523.926316 401.17527 
L 522.536842 401.023331 
L 521.147368 400.853189 
L 519.757895 400.664606 
L 518.368421 400.457318 
L 517.83353 400.370526 
L 516.978947 400.233728 
L 515.589474 399.992833 
L 514.2 399.73261 
L 512.810526 399.452693 
L 511.910696 399.258947 
L 511.421053 399.154704 
L 510.031579 398.840207 
L 508.642105 398.505068 
L 507.252632 398.148822 
L 507.247236 398.147368 
L 505.863158 397.777898 
L 504.473684 397.385157 
L 503.302356 397.035789 
L 503.084211 396.971221 
L 501.694737 396.54098 
L 500.305263 396.087435 
L 499.826513 395.924211 
L 498.915789 395.6155 
L 497.526316 395.122124 
L 496.692459 394.812632 
L 496.136842 394.607328 
L 494.747368 394.072413 
L 493.82356 393.701053 
L 493.357895 393.514441 
L 491.968421 392.935977 
L 491.169018 392.589474 
L 490.578947 392.334149 
L 489.189474 391.709806 
L 488.691351 391.477895 
L 487.8 391.06305 
L 486.410526 390.390172 
L 486.362658 390.366316 
L 485.021053 389.696998 
L 484.167101 389.254737 
L 483.631579 388.976864 
L 482.242105 388.231061 
L 482.082854 388.143158 
L 480.852632 387.46185 
L 480.101116 387.031579 
L 479.463158 386.664793 
L 478.208383 385.92 
L 478.073684 385.839642 
L 476.684211 384.988516 
L 476.398189 384.808421 
L 475.294737 384.109099 
L 474.662274 383.696842 
L 473.905263 383.19974 
L 472.994283 382.585263 
L 472.515789 382.259819 
L 471.38913 381.473684 
L 471.126316 381.288607 
L 469.842275 380.362105 
L 469.736842 380.285254 
L 468.349673 379.250526 
L 468.347368 379.248788 
L 466.957895 378.17853 
L 466.90757 378.138947 
L 465.568421 377.072405 
L 465.512981 377.027368 
L 464.178947 375.929022 
L 464.163172 375.915789 
L 462.855352 374.804211 
L 462.789474 374.747395 
L 461.587274 373.692632 
L 461.4 373.525707 
L 460.35704 372.581053 
L 460.010526 372.261897 
L 459.162917 371.469474 
L 458.621053 370.953836 
L 458.003394 370.357895 
L 457.231579 369.599186 
L 456.877157 369.246316 
L 455.842105 368.195381 
L 455.783071 368.134737 
L 454.717471 367.023158 
L 454.452632 366.741302 
L 453.680947 365.911579 
L 453.063158 365.232466 
L 452.673354 364.8 
L 451.693881 363.688421 
L 451.673684 363.665133 
L 450.73718 362.576842 
L 450.284211 362.037301 
L 449.807215 361.465263 
L 448.903614 360.353684 
L 448.894737 360.342583 
L 448.019462 359.242105 
L 447.505263 358.577725 
L 447.160692 358.130526 
L 446.324247 357.018947 
L 446.115789 356.735873 
L 445.507553 355.907368 
L 444.726316 354.810891 
L 444.715579 354.795789 
L 443.938943 353.684211 
L 443.336842 352.794952 
L 443.186442 352.572632 
L 442.45018 351.461053 
L 441.947368 350.67878 
L 441.735607 350.349474 
L 441.037226 349.237895 
L 440.557895 348.451432 
L 440.359396 348.126316 
L 439.696642 347.014737 
L 439.168421 346.099591 
L 439.054698 345.903158 
L 438.42554 344.791579 
L 437.818181 343.68 
L 437.778947 343.606581 
L 437.22155 342.568421 
L 436.644988 341.456842 
L 436.389474 340.950012 
L 436.082779 340.345263 
L 435.535479 339.233684 
L 435.007621 338.122105 
L 435 338.105667 
L 434.488396 337.010526 
L 433.987646 335.898947 
L 433.610526 335.032543 
L 433.502876 334.787368 
L 433.028144 333.675789 
L 432.570903 332.564211 
L 432.221053 331.682721 
L 432.128791 331.452632 
L 431.696001 330.341053 
L 431.279686 329.229474 
L 430.879484 328.117895 
L 430.831579 327.980601 
L 430.487441 327.006316 
L 430.109912 325.894737 
L 429.74764 324.783158 
L 429.442105 323.806429 
L 429.399342 323.671579 
L 429.058881 322.56 
L 428.732941 321.448421 
L 428.421238 320.336842 
L 428.123495 319.225263 
L 428.052632 318.949541 
L 427.834363 318.113684 
L 427.557207 317.002105 
L 427.293462 315.890526 
L 427.042893 314.778947 
L 426.805275 313.667368 
L 426.663158 312.966464 
L 426.578375 312.555789 
L 426.360801 311.444211 
L 426.155809 310.332632 
L 425.963217 309.221053 
L 425.782854 308.109474 
L 425.614556 306.997895 
L 425.458172 305.886316 
L 425.313559 304.774737 
L 425.273684 304.442264 
L 425.178251 303.663158 
L 425.05373 302.551579 
L 424.94088 301.44 
L 424.839602 300.328421 
L 424.749805 299.216842 
L 424.67141 298.105263 
L 424.604344 296.993684 
L 424.548549 295.882105 
L 424.503973 294.770526 
L 424.470577 293.658947 
L 424.448329 292.547368 
L 424.437211 291.435789 
L 424.437211 290.324211 
L 424.448329 289.212632 
L 424.470577 288.101053 
L 424.503973 286.989474 
L 424.548549 285.877895 
L 424.604344 284.766316 
L 424.67141 283.654737 
L 424.749805 282.543158 
L 424.839602 281.431579 
L 424.94088 280.32 
L 425.05373 279.208421 
L 425.178251 278.096842 
L 425.273684 277.317736 
L 425.313559 276.985263 
L 425.458172 275.873684 
L 425.614556 274.762105 
L 425.782854 273.650526 
L 425.963217 272.538947 
L 426.155809 271.427368 
L 426.360801 270.315789 
L 426.578375 269.204211 
L 426.663158 268.793536 
L 426.805275 268.092632 
L 427.042893 266.981053 
L 427.293462 265.869474 
L 427.557207 264.757895 
L 427.834363 263.646316 
L 428.052632 262.810459 
L 428.123495 262.534737 
L 428.421238 261.423158 
L 428.732941 260.311579 
L 429.058881 259.2 
L 429.399342 258.088421 
L 429.442105 257.953571 
L 429.74764 256.976842 
L 430.109912 255.865263 
L 430.487441 254.753684 
L 430.831579 253.779399 
L 430.879484 253.642105 
L 431.279686 252.530526 
L 431.696001 251.418947 
L 432.128791 250.307368 
L 432.221053 250.077279 
L 432.570903 249.195789 
L 433.028144 248.084211 
L 433.502876 246.972632 
L 433.610526 246.727457 
L 433.987646 245.861053 
L 434.488396 244.749474 
L 435 243.654333 
L 435.007621 243.637895 
L 435.535479 242.526316 
L 436.082779 241.414737 
L 436.389474 240.809988 
L 436.644988 240.303158 
L 437.22155 239.191579 
L 437.778947 238.153419 
L 437.818181 238.08 
L 438.42554 236.968421 
L 439.054698 235.856842 
L 439.168421 235.660409 
L 439.696642 234.745263 
L 440.359396 233.633684 
L 440.557895 233.308568 
L 441.037226 232.522105 
L 441.735607 231.410526 
L 441.947368 231.08122 
L 442.45018 230.298947 
L 443.186442 229.187368 
L 443.336842 228.965048 
L 443.938943 228.075789 
L 444.715579 226.964211 
L 444.726316 226.949109 
L 445.507553 225.852632 
L 446.115789 225.024127 
L 446.324247 224.741053 
L 447.160692 223.629474 
L 447.505263 223.182275 
L 448.019462 222.517895 
L 448.894737 221.417417 
L 448.903614 221.406316 
L 449.807215 220.294737 
L 450.284211 219.722699 
L 450.73718 219.183158 
L 451.673684 218.094867 
L 451.693881 218.071579 
L 452.673354 216.96 
L 453.063158 216.527534 
L 453.680947 215.848421 
L 454.452632 215.018698 
L 454.717471 214.736842 
L 455.783071 213.625263 
L 455.842105 213.564619 
L 456.877157 212.513684 
L 457.231579 212.160814 
L 458.003394 211.402105 
L 458.621053 210.806164 
L 459.162917 210.290526 
L 460.010526 209.498103 
L 460.35704 209.178947 
L 461.4 208.234293 
L 461.587274 208.067368 
L 462.789474 207.012605 
L 462.855352 206.955789 
L 464.163172 205.844211 
L 464.178947 205.830978 
L 465.512981 204.732632 
L 465.568421 204.687595 
L 466.90757 203.621053 
L 466.957895 203.58147 
L 468.347368 202.511212 
L 468.349673 202.509474 
L 469.736842 201.474746 
L 469.842275 201.397895 
L 471.126316 200.471393 
L 471.38913 200.286316 
L 472.515789 199.500181 
L 472.994283 199.174737 
L 473.905263 198.56026 
L 474.662274 198.063158 
L 475.294737 197.650901 
L 476.398189 196.951579 
L 476.684211 196.771484 
L 478.073684 195.920358 
L 478.208383 195.84 
L 479.463158 195.095207 
L 480.101116 194.728421 
L 480.852632 194.29815 
L 482.082854 193.616842 
L 482.242105 193.528939 
L 483.631579 192.783136 
L 484.167101 192.505263 
L 485.021053 192.063002 
L 486.362658 191.393684 
L 486.410526 191.369828 
L 487.8 190.69695 
L 488.691351 190.282105 
L 489.189474 190.050194 
L 490.578947 189.425851 
L 491.169018 189.170526 
L 491.968421 188.824023 
L 493.357895 188.245559 
L 493.82356 188.058947 
L 494.747368 187.687587 
L 496.136842 187.152672 
L 496.692459 186.947368 
L 497.526316 186.637876 
L 498.915789 186.1445 
L 499.826513 185.835789 
L 500.305263 185.672565 
L 501.694737 185.21902 
L 503.084211 184.788779 
L 503.302356 184.724211 
L 504.473684 184.374843 
L 505.863158 183.982102 
L 507.247236 183.612632 
L 507.252632 183.611178 
L 508.642105 183.254932 
L 510.031579 182.919793 
L 511.421053 182.605296 
L 511.910696 182.501053 
L 512.810526 182.307307 
L 514.2 182.02739 
L 515.589474 181.767167 
L 516.978947 181.526272 
L 517.83353 181.389474 
L 518.368421 181.302682 
L 519.757895 181.095394 
L 521.147368 180.906811 
L 522.536842 180.736669 
L 523.926316 180.58473 
L 525.315789 180.450778 
L 526.705263 180.334623 
L 527.504364 180.277895 
L 528.094737 180.235254 
L 529.484211 180.152577 
L 530.873684 180.087617 
L 532.263158 180.040284 
L 533.652632 180.010513 
L 535.042105 179.998261 
L 536.431579 180.003511 
L 537.821053 180.026271 
L 539.210526 180.066573 
L 540.6 180.124472 
L 541.989474 180.20005 
L 543.148483 180.277895 
L 543.378947 180.293106 
L 544.768421 180.402191 
L 546.157895 180.529002 
L 547.547368 180.673722 
L 548.936842 180.836555 
L 550.326316 181.017731 
L 551.715789 181.217504 
L 552.809969 181.389474 
L 553.105263 181.435249 
L 554.494737 181.668509 
L 555.884211 181.920959 
L 557.273684 182.192953 
L 558.663158 182.48487 
L 558.735722 182.501053 
L 560.052632 182.791542 
L 561.442105 183.11837 
L 562.831579 183.466116 
L 563.386222 183.612632 
L 564.221053 183.831151 
L 565.610526 184.215091 
L 567 184.621198 
L 567.336539 184.724211 
L 568.389474 185.044161 
L 569.778947 185.488312 
L 570.814118 185.835789 
L 571.168421 185.954005 
L 572.557895 186.437561 
L 573.947368 186.945869 
L 573.951322 186.947368 
L 575.336842 187.470511 
L 576.726316 188.021091 
L 576.818641 188.058947 
L 578.115789 188.589366 
L 579.473531 189.170526 
L 579.505263 189.184082 
L 580.894737 189.797009 
L 581.949069 190.282105 
L 582.284211 190.436214 
L 583.673684 191.097035 
L 584.275605 191.393684 
L 585.063158 191.782141 
L 586.452632 192.493794 
L 586.474424 192.505263 
L 587.842105 193.226656 
L 588.5563 193.616842 
L 589.231579 193.98691 
L 590.539743 194.728421 
L 590.621053 194.774693 
L 592.010526 195.586651 
L 592.431219 195.84 
L 593.4 196.426571 
L 594.241597 196.951579 
L 594.789474 197.29551 
L 595.97791 198.063158 
L 596.178947 198.19395 
L 597.568421 199.121799 
L 597.645875 199.174737 
L 598.957895 200.079218 
L 599.250898 200.286316 
L 600.347368 201.068726 
L 600.797845 201.397895 
L 601.736842 202.091233 
L 602.290658 202.509474 
L 603.126316 203.147776 
L 603.732853 203.621053 
L 604.515789 204.239532 
L 605.127562 204.732632 
L 605.905263 205.367823 
L 606.477569 205.844211 
L 607.294737 206.53413 
L 607.785345 206.955789 
L 608.684211 207.740097 
L 609.053076 208.067368 
L 610.073684 208.98755 
L 610.282691 209.178947 
L 611.463158 210.278501 
L 611.475883 210.290526 
L 612.635938 211.402105 
L 612.852632 211.613572 
L 613.763056 212.513684 
L 614.242105 212.996617 
L 614.858288 213.625263 
L 615.631579 214.430472 
L 615.922615 214.736842 
L 616.957547 215.848421 
L 617.021053 215.91775 
L 617.966763 216.96 
L 618.410526 217.460417 
L 618.947937 218.071579 
L 619.8 219.064019 
L 619.901528 219.183158 
L 620.832479 220.294737 
L 621.189474 220.731111 
L 621.738522 221.406316 
L 622.578947 222.467586 
L 622.618585 222.517895 
L 623.479718 223.629474 
L 623.968421 224.277771 
L 624.316357 224.741053 
L 625.13131 225.852632 
L 625.357895 226.168667 
L 625.926922 226.964211 
L 626.698736 228.075789 
L 626.747368 228.147176 
L 627.455284 229.187368 
L 628.136842 230.221937 
L 628.187568 230.298947 
L 628.905784 231.410526 
L 629.526316 232.403289 
L 629.600667 232.522105 
L 630.282145 233.633684 
L 630.915789 234.703408 
L 630.940642 234.745263 
L 631.587515 235.856842 
L 632.212068 236.968421 
L 632.305263 237.138164 
L 632.824511 238.08 
L 633.417397 239.191579 
L 633.694737 239.726565 
L 633.995254 240.303158 
L 634.558101 241.414737 
L 635.084211 242.491356 
L 635.101407 242.526316 
L 635.635648 243.637895 
L 636.150854 244.749474 
L 636.473684 245.468909 
L 636.651093 245.861053 
L 637.139714 246.972632 
L 637.610486 248.084211 
L 637.863158 248.700589 
L 638.068144 249.195789 
L 638.514011 250.307368 
L 638.943087 251.418947 
L 639.252632 252.250537 
L 639.358034 252.530526 
L 639.763561 253.642105 
L 640.153231 254.753684 
L 640.527383 255.865263 
L 640.642105 256.218227 
L 640.89195 256.976842 
L 641.244073 258.088421 
L 641.581456 259.2 
L 641.904394 260.311579 
L 642.031579 260.767209 
L 642.217454 261.423158 
L 642.5194 262.534737 
L 642.807525 263.646316 
L 643.082084 264.757895 
L 643.343323 265.869474 
L 643.421053 266.21605 
L 643.595601 266.981053 
L 643.836657 268.092632 
L 644.064834 269.204211 
L 644.280333 270.315789 
L 644.483349 271.427368 
L 644.674064 272.538947 
L 644.810526 273.387345 
L 644.853695 273.650526 
L 645.024471 274.762105 
L 645.183177 275.873684 
L 645.329956 276.985263 
L 645.464938 278.096842 
L 645.588244 279.208421 
L 645.699986 280.32 
L 645.800263 281.431579 
L 645.889168 282.543158 
L 645.966782 283.654737 
L 646.033175 284.766316 
L 646.08841 285.877895 
L 646.132537 286.989474 
L 646.165596 288.101053 
L 646.187618 289.212632 
L 646.198624 290.324211 
L 646.198624 291.435789 
L 646.187618 292.547368 
L 646.165596 293.658947 
L 646.132537 294.770526 
L 646.08841 295.882105 
L 646.033175 296.993684 
L 645.966782 298.105263 
L 645.889168 299.216842 
L 645.800263 300.328421 
L 645.699986 301.44 
L 645.588244 302.551579 
L 645.464938 303.663158 
L 645.329956 304.774737 
L 645.183177 305.886316 
L 645.024471 306.997895 
L 644.853695 308.109474 
L 644.810526 308.372655 
L 644.674064 309.221053 
L 644.483349 310.332632 
L 644.280333 311.444211 
L 644.064834 312.555789 
L 643.836657 313.667368 
L 643.595601 314.778947 
L 643.421053 315.54395 
L 643.343323 315.890526 
L 643.082084 317.002105 
L 642.807525 318.113684 
L 642.5194 319.225263 
L 642.217454 320.336842 
L 642.031579 320.992791 
L 641.904394 321.448421 
L 641.581456 322.56 
L 641.244073 323.671579 
L 640.89195 324.783158 
L 640.642105 325.541773 
L 640.527383 325.894737 
L 640.153231 327.006316 
L 639.763561 328.117895 
L 639.358034 329.229474 
L 639.252632 329.509463 
L 638.943087 330.341053 
L 638.514011 331.452632 
L 638.068144 332.564211 
L 637.863158 333.059411 
L 637.610486 333.675789 
L 637.139714 334.787368 
L 636.651093 335.898947 
L 636.473684 336.291091 
L 636.150854 337.010526 
L 635.635648 338.122105 
L 635.101407 339.233684 
L 635.084211 339.268644 
L 634.558101 340.345263 
L 633.995254 341.456842 
L 633.694737 342.033435 
L 633.417397 342.568421 
L 632.824511 343.68 
L 632.305263 344.621836 
L 632.212068 344.791579 
L 631.587515 345.903158 
L 630.940642 347.014737 
L 630.915789 347.056592 
L 630.282145 348.126316 
L 629.600667 349.237895 
L 629.526316 349.356711 
L 628.905784 350.349474 
L 628.187568 351.461053 
L 628.136842 351.538063 
L 627.455284 352.572632 
L 626.747368 353.612824 
L 626.698736 353.684211 
L 625.926922 354.795789 
L 625.357895 355.591333 
L 625.13131 355.907368 
L 624.316357 357.018947 
L 623.968421 357.482229 
L 623.479718 358.130526 
L 622.618585 359.242105 
L 622.578947 359.292414 
L 621.738522 360.353684 
L 621.189474 361.028889 
L 620.832479 361.465263 
L 619.901528 362.576842 
L 619.8 362.695981 
L 618.947937 363.688421 
L 618.410526 364.299583 
L 617.966763 364.8 
L 617.021053 365.84225 
L 616.957547 365.911579 
L 615.922615 367.023158 
L 615.631579 367.329528 
L 614.858288 368.134737 
L 614.242105 368.763383 
L 613.763056 369.246316 
L 612.852632 370.146428 
L 612.635938 370.357895 
L 611.475883 371.469474 
L 611.463158 371.481499 
L 610.282691 372.581053 
L 610.073684 372.77245 
L 609.053076 373.692632 
L 608.684211 374.019903 
L 607.785345 374.804211 
L 607.294737 375.22587 
L 606.477569 375.915789 
L 605.905263 376.392177 
L 605.127562 377.027368 
L 604.515789 377.520468 
L 603.732853 378.138947 
L 603.126316 378.612224 
L 602.290658 379.250526 
L 601.736842 379.668767 
L 600.797845 380.362105 
L 600.347368 380.691274 
L 599.250898 381.473684 
L 598.957895 381.680782 
L 597.645875 382.585263 
L 597.568421 382.638201 
L 596.178947 383.56605 
L 595.97791 383.696842 
L 594.789474 384.46449 
L 594.241597 384.808421 
L 593.4 385.333429 
L 592.431219 385.92 
L 592.010526 386.173349 
L 590.621053 386.985307 
L 590.539743 387.031579 
L 589.231579 387.77309 
L 588.5563 388.143158 
L 587.842105 388.533344 
L 586.474424 389.254737 
L 586.452632 389.266206 
L 585.063158 389.977859 
L 584.275605 390.366316 
L 583.673684 390.662965 
L 582.284211 391.323786 
L 581.949069 391.477895 
L 580.894737 391.962991 
L 579.505263 392.575918 
L 579.473531 392.589474 
L 578.115789 393.170634 
L 576.818641 393.701053 
L 576.726316 393.738909 
L 575.336842 394.289489 
L 573.951322 394.812632 
L 573.947368 394.814131 
L 572.557895 395.322439 
L 571.168421 395.805995 
L 570.814118 395.924211 
L 569.778947 396.271688 
L 568.389474 396.715839 
L 567.336539 397.035789 
L 567 397.138802 
L 565.610526 397.544909 
L 564.221053 397.928849 
L 563.386222 398.147368 
L 562.831579 398.293884 
L 561.442105 398.64163 
L 560.052632 398.968458 
L 558.735722 399.258947 
L 558.663158 399.27513 
L 557.273684 399.567047 
L 555.884211 399.839041 
L 554.494737 400.091491 
L 553.105263 400.324751 
L 552.809969 400.370526 
L 551.715789 400.542496 
L 550.326316 400.742269 
L 548.936842 400.923445 
L 547.547368 401.086278 
L 546.157895 401.230998 
L 544.768421 401.357809 
L 543.378947 401.466894 
L 543.148483 401.482105 
L 541.989474 401.55995 
L 540.6 401.635528 
L 539.210526 401.693427 
L 537.821053 401.733729 
L 536.431579 401.756489 
L 535.042105 401.761739 
L 533.652632 401.749487 
L 532.263158 401.719716 
L 530.873684 401.672383 
L 529.484211 401.607423 
L 528.094737 401.524746 
z
" clip-path="url(#p84c1a1e4fe)" style="fill: #16a085"/>
   </g>
   <g id="matplotlib.axis_1">
    <g id="xtick_1">
     <g id="line2d_1">
      <defs>
       <path id="m27668724b9" d="M 0 0 
L 0 3.5 
" style="stroke: #000000; stroke-width: 0.8"/>
      </defs>
      <g>
       <use xlink:href="#m27668724b9" x="91.8" y="512.64" style="stroke: #000000; stroke-width: 0.8"/>
      </g>
     </g>
     <g id="text_1">
      <!-- 3 -->
      <g transform="translate(83.691797 527.998281)scale(0.11 -0.11)">
       <defs>
        <path id="DejaVuSans-2212" d="M 678 2272 
L 4684 2272 
L 4684 1741 
L 678 1741 
L 678 2272 
z
" transform="scale(0.015625)"/>
        <path id="DejaVuSans-33" d="M 2597 2516 
Q 3050 2419 3304 2112 
Q 3559 1806 3559 1356 
Q 3559 666 3084 287 
Q 2609 -91 1734 -91 
Q 1441 -91 1130 -33 
Q 819 25 488 141 
L 488 750 
Q 750 597 1062 519 
Q 1375 441 1716 441 
Q 2309 441 2620 675 
Q 2931 909 2931 1356 
Q 2931 1769 2642 2001 
Q 2353 2234 1838 2234 
L 1294 2234 
L 1294 2753 
L 1863 2753 
Q 2328 2753 2575 2939 
Q 2822 3125 2822 3475 
Q 2822 3834 2567 4026 
Q 2313 4219 1838 4219 
Q 1578 4219 1281 4162 
Q 984 4106 628 3988 
L 628 4550 
Q 988 4650 1302 4700 
Q 1616 4750 1894 4750 
Q 2613 4750 3031 4423 
Q 3450 4097 3450 3541 
Q 3450 3153 3228 2886 
Q 3006 2619 2597 2516 
z
" transform="scale(0.015625)"/>
       </defs>
       <use xlink:href="#DejaVuSans-2212"/>
       <use xlink:href="#DejaVuSans-33" x="83.789062"/>
      </g>
     </g>
    </g>
    <g id="xtick_2">
     <g id="line2d_2">
      <g>
       <use xlink:href="#m27668724b9" x="202.68" y="512.64" style="stroke: #000000; stroke-width: 0.8"/>
      </g>
     </g>
     <g id="text_2">
      <!-- 2 -->
      <g transform="translate(194.571797 527.998281)scale(0.11 -0.11)">
       <defs>
        <path id="DejaVuSans-32" d="M 1228 531 
L 3431 531 
L 3431 0 
L 469 0 
L 469 531 
Q 828 903 1448 1529 
Q 2069 2156 2228 2338 
Q 2531 2678 2651 2914 
Q 2772 3150 2772 3378 
Q 2772 3750 2511 3984 
Q 2250 4219 1831 4219 
Q 1534 4219 1204 4116 
Q 875 4013 500 3803 
L 500 4441 
Q 881 4594 1212 4672 
Q 1544 4750 1819 4750 
Q 2544 4750 2975 4387 
Q 3406 4025 3406 3419 
Q 3406 3131 3298 2873 
Q 3191 2616 2906 2266 
Q 2828 2175 2409 1742 
Q 1991 1309 1228 531 
z
" transform="scale(0.015625)"/>
       </defs>
       <use xlink:href="#DejaVuSans-2212"/>
       <use xlink:href="#DejaVuSans-32" x="83.789062"/>
      </g>
     </g>
    </g>
    <g id="xtick_3">
     <g id="line2d_3">
      <g>
       <use xlink:href="#m27668724b9" x="313.56" y="512.64" style="stroke: #000000; stroke-width: 0.8"/>
      </g>
     </g>
     <g id="text_3">
      <!-- 1 -->
      <g transform="translate(305.451797 527.998281)scale(0.11 -0.11)">
       <defs>
        <path id="DejaVuSans-31" d="M 794 531 
L 1825 531 
L 1825 4091 
L 703 3866 
L 703 4441 
L 1819 4666 
L 2450 4666 
L 2450 531 
L 3481 531 
L 3481 0 
L 794 0 
L 794 531 
z
" transform="scale(0.015625)"/>
       </defs>
       <use xlink:href="#DejaVuSans-2212"/>
       <use xlink:href="#DejaVuSans-31" x="83.789062"/>
      </g>
     </g>
    </g>
    <g id="xtick_4">
     <g id="line2d_4">
      <g>
       <use xlink:href="#m27668724b9" x="424.44" y="512.64" style="stroke: #000000; stroke-width: 0.8"/>
      </g>
     </g>
     <g id="text_4">
      <!-- 0 -->
      <g transform="translate(420.940625 527.998281)scale(0.11 -0.11)">
       <defs>
        <path id="DejaVuSans-30" d="M 2034 4250 
Q 1547 4250 1301 3770 
Q 1056 3291 1056 2328 
Q 1056 1369 1301 889 
Q 1547 409 2034 409 
Q 2525 409 2770 889 
Q 3016 1369 3016 2328 
Q 3016 3291 2770 3770 
Q 2525 4250 2034 4250 
z
M 2034 4750 
Q 2819 4750 3233 4129 
Q 3647 3509 3647 2328 
Q 3647 1150 3233 529 
Q 2819 -91 2034 -91 
Q 1250 -91 836 529 
Q 422 1150 422 2328 
Q 422 3509 836 4129 
Q 1250 4750 2034 4750 
z
" transform="scale(0.015625)"/>
       </defs>
       <use xlink:href="#DejaVuSans-30"/>
      </g>
     </g>
    </g>
    <g id="xtick_5">
     <g id="line2d_5">
      <g>
       <use xlink:href="#m27668724b9" x="535.32" y="512.64" style="stroke: #000000; stroke-width: 0.8"/>
      </g>
     </g>
     <g id="text_5">
      <!-- 1 -->
      <g transform="translate(531.820625 527.998281)scale(0.11 -0.11)">
       <use xlink:href="#DejaVuSans-31"/>
      </g>
     </g>
    </g>
    <g id="xtick_6">
     <g id="line2d_6">
      <g>
       <use xlink:href="#m27668724b9" x="646.2" y="512.64" style="stroke: #000000; stroke-width: 0.8"/>
      </g>
     </g>
     <g id="text_6">
      <!-- 2 -->
      <g transform="translate(642.700625 527.998281)scale(0.11 -0.11)">
       <use xlink:href="#DejaVuSans-32"/>
      </g>
     </g>
    </g>
    <g id="text_7">
     <!-- Re(z) -->
     <g transform="translate(351.007812 544.92375)scale(0.14 -0.14)">
      <defs>
       <path id="DejaVuSans-52" d="M 2841 2188 
Q 3044 2119 3236 1894 
Q 3428 1669 3622 1275 
L 4263 0 
L 3584 0 
L 2988 1197 
Q 2756 1666 2539 1819 
Q 2322 1972 1947 1972 
L 1259 1972 
L 1259 0 
L 628 0 
L 628 4666 
L 2053 4666 
Q 2853 4666 3247 4331 
Q 3641 3997 3641 3322 
Q 3641 2881 3436 2590 
Q 3231 2300 2841 2188 
z
M 1259 4147 
L 1259 2491 
L 2053 2491 
Q 2509 2491 2742 2702 
Q 2975 2913 2975 3322 
Q 2975 3731 2742 3939 
Q 2509 4147 2053 4147 
L 1259 4147 
z
" transform="scale(0.015625)"/>
       <path id="DejaVuSans-65" d="M 3597 1894 
L 3597 1613 
L 953 1613 
Q 991 1019 1311 708 
Q 1631 397 2203 397 
Q 2534 397 2845 478 
Q 3156 559 3463 722 
L 3463 178 
Q 3153 47 2828 -22 
Q 2503 -91 2169 -91 
Q 1331 -91 842 396 
Q 353 884 353 1716 
Q 353 2575 817 3079 
Q 1281 3584 2069 3584 
Q 2775 3584 3186 3129 
Q 3597 2675 3597 1894 
z
M 3022 2063 
Q 3016 2534 2758 2815 
Q 2500 3097 2075 3097 
Q 1594 3097 1305 2825 
Q 1016 2553 972 2059 
L 3022 2063 
z
" transform="scale(0.015625)"/>
       <path id="DejaVuSans-28" d="M 1984 4856 
Q 1566 4138 1362 3434 
Q 1159 2731 1159 2009 
Q 1159 1288 1364 580 
Q 1569 -128 1984 -844 
L 1484 -844 
Q 1016 -109 783 600 
Q 550 1309 550 2009 
Q 550 2706 781 3412 
Q 1013 4119 1484 4856 
L 1984 4856 
z
" transform="scale(0.015625)"/>
       <path id="DejaVuSans-7a" d="M 353 3500 
L 3084 3500 
L 3084 2975 
L 922 459 
L 3084 459 
L 3084 0 
L 275 0 
L 275 525 
L 2438 3041 
L 353 3041 
L 353 3500 
z
" transform="scale(0.015625)"/>
       <path id="DejaVuSans-29" d="M 513 4856 
L 1013 4856 
Q 1481 4119 1714 3412 
Q 1947 2706 1947 2009 
Q 1947 1309 1714 600 
Q 1481 -109 1013 -844 
L 513 -844 
Q 928 -128 1133 580 
Q 1338 1288 1338 2009 
Q 1338 2731 1133 3434 
Q 928 4138 513 4856 
z
" transform="scale(0.015625)"/>
      </defs>
      <use xlink:href="#DejaVuSans-52"/>
      <use xlink:href="#DejaVuSans-65" x="64.982422"/>
      <use xlink:href="#DejaVuSans-28" x="126.505859"/>
      <use xlink:href="#DejaVuSans-7a" x="165.519531"/>
      <use xlink:href="#DejaVuSans-29" x="218.009766"/>
     </g>
    </g>
   </g>
   <g id="matplotlib.axis_2">
    <g id="ytick_1">
     <g id="line2d_7">
      <defs>
       <path id="mae4d63870f" d="M 0 0 
L -3.5 0 
" style="stroke: #000000; stroke-width: 0.8"/>
      </defs>
      <g>
       <use xlink:href="#mae4d63870f" x="91.8" y="512.64" style="stroke: #000000; stroke-width: 0.8"/>
      </g>
     </g>
     <g id="text_8">
      <!-- 2.0 -->
      <g transform="translate(58.088906 516.819141)scale(0.11 -0.11)">
       <defs>
        <path id="DejaVuSans-2e" d="M 684 794 
L 1344 794 
L 1344 0 
L 684 0 
L 684 794 
z
" transform="scale(0.015625)"/>
       </defs>
       <use xlink:href="#DejaVuSans-2212"/>
       <use xlink:href="#DejaVuSans-32" x="83.789062"/>
       <use xlink:href="#DejaVuSans-2e" x="147.412109"/>
       <use xlink:href="#DejaVuSans-30" x="179.199219"/>
      </g>
     </g>
    </g>
    <g id="ytick_2">
     <g id="line2d_8">
      <g>
       <use xlink:href="#mae4d63870f" x="91.8" y="457.2" style="stroke: #000000; stroke-width: 0.8"/>
      </g>
     </g>
     <g id="text_9">
      <!-- 1.5 -->
      <g transform="translate(58.088906 461.379141)scale(0.11 -0.11)">
       <defs>
        <path id="DejaVuSans-35" d="M 691 4666 
L 3169 4666 
L 3169 4134 
L 1269 4134 
L 1269 2991 
Q 1406 3038 1543 3061 
Q 1681 3084 1819 3084 
Q 2600 3084 3056 2656 
Q 3513 2228 3513 1497 
Q 3513 744 3044 326 
Q 2575 -91 1722 -91 
Q 1428 -91 1123 -41 
Q 819 9 494 109 
L 494 744 
Q 775 591 1075 516 
Q 1375 441 1709 441 
Q 2250 441 2565 725 
Q 2881 1009 2881 1497 
Q 2881 1984 2565 2268 
Q 2250 2553 1709 2553 
Q 1456 2553 1204 2497 
Q 953 2441 691 2322 
L 691 4666 
z
" transform="scale(0.015625)"/>
       </defs>
       <use xlink:href="#DejaVuSans-2212"/>
       <use xlink:href="#DejaVuSans-31" x="83.789062"/>
       <use xlink:href="#DejaVuSans-2e" x="147.412109"/>
       <use xlink:href="#DejaVuSans-35" x="179.199219"/>
      </g>
     </g>
    </g>
    <g id="ytick_3">
     <g id="line2d_9">
      <g>
       <use xlink:href="#mae4d63870f" x="91.8" y="401.76" style="stroke: #000000; stroke-width: 0.8"/>
      </g>
     </g>
     <g id="text_10">
      <!-- 1.0 -->
      <g transform="translate(58.088906 405.939141)scale(0.11 -0.11)">
       <use xlink:href="#DejaVuSans-2212"/>
       <use xlink:href="#DejaVuSans-31" x="83.789062"/>
       <use xlink:href="#DejaVuSans-2e" x="147.412109"/>
       <use xlink:href="#DejaVuSans-30" x="179.199219"/>
      </g>
     </g>
    </g>
    <g id="ytick_4">
     <g id="line2d_10">
      <g>
       <use xlink:href="#mae4d63870f" x="91.8" y="346.32" style="stroke: #000000; stroke-width: 0.8"/>
      </g>
     </g>
     <g id="text_11">
      <!-- 0.5 -->
      <g transform="translate(58.088906 350.499141)scale(0.11 -0.11)">
       <use xlink:href="#DejaVuSans-2212"/>
       <use xlink:href="#DejaVuSans-30" x="83.789062"/>
       <use xlink:href="#DejaVuSans-2e" x="147.412109"/>
       <use xlink:href="#DejaVuSans-35" x="179.199219"/>
      </g>
     </g>
    </g>
    <g id="ytick_5">
     <g id="line2d_11">
      <g>
       <use xlink:href="#mae4d63870f" x="91.8" y="290.88" style="stroke: #000000; stroke-width: 0.8"/>
      </g>
     </g>
     <g id="text_12">
      <!-- 0.0 -->
      <g transform="translate(67.306562 295.059141)scale(0.11 -0.11)">
       <use xlink:href="#DejaVuSans-30"/>
       <use xlink:href="#DejaVuSans-2e" x="63.623047"/>
       <use xlink:href="#DejaVuSans-30" x="95.410156"/>
      </g>
     </g>
    </g>
    <g id="ytick_6">
     <g id="line2d_12">
      <g>
       <use xlink:href="#mae4d63870f" x="91.8" y="235.44" style="stroke: #000000; stroke-width: 0.8"/>
      </g>
     </g>
     <g id="text_13">
      <!-- 0.5 -->
      <g transform="translate(67.306562 239.619141)scale(0.11 -0.11)">
       <use xlink:href="#DejaVuSans-30"/>
       <use xlink:href="#DejaVuSans-2e" x="63.623047"/>
       <use xlink:href="#DejaVuSans-35" x="95.410156"/>
      </g>
     </g>
    </g>
    <g id="ytick_7">
     <g id="line2d_13">
      <g>
       <use xlink:href="#mae4d63870f" x="91.8" y="180" style="stroke: #000000; stroke-width: 0.8"/>
      </g>
     </g>
     <g id="text_14">
      <!-- 1.0 -->
      <g transform="translate(67.306562 184.179141)scale(0.11 -0.11)">
       <use xlink:href="#DejaVuSans-31"/>
       <use xlink:href="#DejaVuSans-2e" x="63.623047"/>
       <use xlink:href="#DejaVuSans-30" x="95.410156"/>
      </g>
     </g>
    </g>
    <g id="ytick_8">
     <g id="line2d_14">
      <g>
       <use xlink:href="#mae4d63870f" x="91.8" y="124.56" style="stroke: #000000; stroke-width: 0.8"/>
      </g>
     </g>
     <g id="text_15">
      <!-- 1.5 -->
      <g transform="translate(67.306562 128.739141)scale(0.11 -0.11)">
       <use xlink:href="#DejaVuSans-31"/>
       <use xlink:href="#DejaVuSans-2e" x="63.623047"/>
       <use xlink:href="#DejaVuSans-35" x="95.410156"/>
      </g>
     </g>
    </g>
    <g id="ytick_9">
     <g id="line2d_15">
      <g>
       <use xlink:href="#mae4d63870f" x="91.8" y="69.12" style="stroke: #000000; stroke-width: 0.8"/>
      </g>
     </g>
     <g id="text_16">
      <!-- 2.0 -->
      <g transform="translate(67.306562 73.299141)scale(0.11 -0.11)">
       <use xlink:href="#DejaVuSans-32"/>
       <use xlink:href="#DejaVuSans-2e" x="63.623047"/>
       <use xlink:href="#DejaVuSans-30" x="95.410156"/>
      </g>
     </g>
    </g>
    <g id="text_17">
     <!-- Im(z) -->
     <g transform="translate(51.177344 308.899531)rotate(-90)scale(0.14 -0.14)">
      <defs>
       <path id="DejaVuSans-49" d="M 628 4666 
L 1259 4666 
L 1259 0 
L 628 0 
L 628 4666 
z
" transform="scale(0.015625)"/>
       <path id="DejaVuSans-6d" d="M 3328 2828 
Q 3544 3216 3844 3400 
Q 4144 3584 4550 3584 
Q 5097 3584 5394 3201 
Q 5691 2819 5691 2113 
L 5691 0 
L 5113 0 
L 5113 2094 
Q 5113 2597 4934 2840 
Q 4756 3084 4391 3084 
Q 3944 3084 3684 2787 
Q 3425 2491 3425 1978 
L 3425 0 
L 2847 0 
L 2847 2094 
Q 2847 2600 2669 2842 
Q 2491 3084 2119 3084 
Q 1678 3084 1418 2786 
Q 1159 2488 1159 1978 
L 1159 0 
L 581 0 
L 581 3500 
L 1159 3500 
L 1159 2956 
Q 1356 3278 1631 3431 
Q 1906 3584 2284 3584 
Q 2666 3584 2933 3390 
Q 3200 3197 3328 2828 
z
" transform="scale(0.015625)"/>
      </defs>
      <use xlink:href="#DejaVuSans-49"/>
      <use xlink:href="#DejaVuSans-6d" x="29.492188"/>
      <use xlink:href="#DejaVuSans-28" x="126.904297"/>
      <use xlink:href="#DejaVuSans-7a" x="165.917969"/>
      <use xlink:href="#DejaVuSans-29" x="218.408203"/>
     </g>
    </g>
   </g>
   <g id="line2d_16">
    <path d="M 91.8 290.88 
L 646.2 290.88 
" clip-path="url(#p84c1a1e4fe)" style="fill: none; stroke: #000000; stroke-width: 1.5; stroke-linecap: square"/>
   </g>
   <g id="line2d_17">
    <path d="M 424.44 512.64 
L 424.44 69.12 
" clip-path="url(#p84c1a1e4fe)" style="fill: none; stroke: #000000; stroke-width: 1.5; stroke-linecap: square"/>
   </g>
   <g id="patch_3">
    <path d="M 91.8 512.64 
L 91.8 69.12 
" style="fill: none; stroke: #000000; stroke-width: 0.8; stroke-linejoin: miter; stroke-linecap: square"/>
   </g>
   <g id="patch_4">
    <path d="M 646.2 512.64 
L 646.2 69.12 
" style="fill: none; stroke: #000000; stroke-width: 0.8; stroke-linejoin: miter; stroke-linecap: square"/>
   </g>
   <g id="patch_5">
    <path d="M 91.8 512.64 
L 646.2 512.64 
" style="fill: none; stroke: #000000; stroke-width: 0.8; stroke-linejoin: miter; stroke-linecap: square"/>
   </g>
   <g id="patch_6">
    <path d="M 91.8 69.12 
L 646.2 69.12 
" style="fill: none; stroke: #000000; stroke-width: 0.8; stroke-linejoin: miter; stroke-linecap: square"/>
   </g>
  </g>
 </g>
 <defs>
  <clipPath id="p84c1a1e4fe">
   <rect x="91.8" y="69.12" width="554.4" height="443.52"/>
  </clipPath>
 </defs>
</svg>
