<?xml version="1.0" encoding="utf-8" standalone="no"?>
<!DOCTYPE svg PUBLIC "-//W3C//DTD SVG 1.1//EN"
  "http://www.w3.org/Graphics/SVG/1.1/DTD/svg11.dtd">
<svg xmlns:xlink="http://www.w3.org/1999/xlink" width="460.8pt" height="345.6pt" viewBox="0 0 460.8 345.6" xmlns="http://www.w3.org/2000/svg" version="1.1">
 <metadata>
  <rdf:RDF xmlns:dc="http://purl.org/dc/elements/1.1/" xmlns:cc="http://creativecommons.org/ns#" xmlns:rdf="http://www.w3.org/1999/02/22-rdf-syntax-ns#">
   <cc:Work>
    <dc:type rdf:resource="http://purl.org/dc/dcmitype/StillImage"/>
    <dc:date>2023-06-05T18:34:40.601701</dc:date>
    <dc:format>image/svg+xml</dc:format>
    <dc:creator>
     <cc:Agent>
      <dc:title>Matplotlib v3.5.1, https://matplotlib.org/</dc:title>
     </cc:Agent>
    </dc:creator>
   </cc:Work>
  </rdf:RDF>
 </metadata>
 <defs>
  <style type="text/css">*{stroke-linejoin: round; stroke-linecap: butt}</style>
 </defs>
 <g id="figure_1">
  <g id="patch_1">
   <path d="M 0 345.6 
L 460.8 345.6 
L 460.8 0 
L 0 0 
z
" style="fill: #ffffff"/>
  </g>
  <g id="axes_1">
   <g id="patch_2">
    <path d="M 57.6 293.76 
L 414.72 293.76 
L 414.72 41.472 
L 57.6 41.472 
z
" style="fill: #ffffff"/>
   </g>
   <g id="matplotlib.axis_1">
    <g id="xtick_1">
     <g id="line2d_1">
      <defs>
       <path id="me15429a01b" d="M 0 0 
L 0 3.5 
" style="stroke: #000000; stroke-width: 0.8"/>
      </defs>
      <g>
       <use xlink:href="#me15429a01b" x="73.832727" y="293.76" style="stroke: #000000; stroke-width: 0.8"/>
      </g>
     </g>
     <g id="text_1">
      <!-- 0.0 -->
      <g transform="translate(63.495696 310.637969)scale(0.13 -0.13)">
       <defs>
        <path id="DejaVuSans-30" d="M 2034 4250 
Q 1547 4250 1301 3770 
Q 1056 3291 1056 2328 
Q 1056 1369 1301 889 
Q 1547 409 2034 409 
Q 2525 409 2770 889 
Q 3016 1369 3016 2328 
Q 3016 3291 2770 3770 
Q 2525 4250 2034 4250 
z
M 2034 4750 
Q 2819 4750 3233 4129 
Q 3647 3509 3647 2328 
Q 3647 1150 3233 529 
Q 2819 -91 2034 -91 
Q 1250 -91 836 529 
Q 422 1150 422 2328 
Q 422 3509 836 4129 
Q 1250 4750 2034 4750 
z
" transform="scale(0.015625)"/>
        <path id="DejaVuSans-2e" d="M 684 794 
L 1344 794 
L 1344 0 
L 684 0 
L 684 794 
z
" transform="scale(0.015625)"/>
       </defs>
       <use xlink:href="#DejaVuSans-30"/>
       <use xlink:href="#DejaVuSans-2e" x="63.623047"/>
       <use xlink:href="#DejaVuSans-30" x="95.410156"/>
      </g>
     </g>
    </g>
    <g id="xtick_2">
     <g id="line2d_2">
      <g>
       <use xlink:href="#me15429a01b" x="138.763636" y="293.76" style="stroke: #000000; stroke-width: 0.8"/>
      </g>
     </g>
     <g id="text_2">
      <!-- 0.2 -->
      <g transform="translate(128.426605 310.637969)scale(0.13 -0.13)">
       <defs>
        <path id="DejaVuSans-32" d="M 1228 531 
L 3431 531 
L 3431 0 
L 469 0 
L 469 531 
Q 828 903 1448 1529 
Q 2069 2156 2228 2338 
Q 2531 2678 2651 2914 
Q 2772 3150 2772 3378 
Q 2772 3750 2511 3984 
Q 2250 4219 1831 4219 
Q 1534 4219 1204 4116 
Q 875 4013 500 3803 
L 500 4441 
Q 881 4594 1212 4672 
Q 1544 4750 1819 4750 
Q 2544 4750 2975 4387 
Q 3406 4025 3406 3419 
Q 3406 3131 3298 2873 
Q 3191 2616 2906 2266 
Q 2828 2175 2409 1742 
Q 1991 1309 1228 531 
z
" transform="scale(0.015625)"/>
       </defs>
       <use xlink:href="#DejaVuSans-30"/>
       <use xlink:href="#DejaVuSans-2e" x="63.623047"/>
       <use xlink:href="#DejaVuSans-32" x="95.410156"/>
      </g>
     </g>
    </g>
    <g id="xtick_3">
     <g id="line2d_3">
      <g>
       <use xlink:href="#me15429a01b" x="203.694545" y="293.76" style="stroke: #000000; stroke-width: 0.8"/>
      </g>
     </g>
     <g id="text_3">
      <!-- 0.4 -->
      <g transform="translate(193.357514 310.637969)scale(0.13 -0.13)">
       <defs>
        <path id="DejaVuSans-34" d="M 2419 4116 
L 825 1625 
L 2419 1625 
L 2419 4116 
z
M 2253 4666 
L 3047 4666 
L 3047 1625 
L 3713 1625 
L 3713 1100 
L 3047 1100 
L 3047 0 
L 2419 0 
L 2419 1100 
L 313 1100 
L 313 1709 
L 2253 4666 
z
" transform="scale(0.015625)"/>
       </defs>
       <use xlink:href="#DejaVuSans-30"/>
       <use xlink:href="#DejaVuSans-2e" x="63.623047"/>
       <use xlink:href="#DejaVuSans-34" x="95.410156"/>
      </g>
     </g>
    </g>
    <g id="xtick_4">
     <g id="line2d_4">
      <g>
       <use xlink:href="#me15429a01b" x="268.625455" y="293.76" style="stroke: #000000; stroke-width: 0.8"/>
      </g>
     </g>
     <g id="text_4">
      <!-- 0.6 -->
      <g transform="translate(258.288423 310.637969)scale(0.13 -0.13)">
       <defs>
        <path id="DejaVuSans-36" d="M 2113 2584 
Q 1688 2584 1439 2293 
Q 1191 2003 1191 1497 
Q 1191 994 1439 701 
Q 1688 409 2113 409 
Q 2538 409 2786 701 
Q 3034 994 3034 1497 
Q 3034 2003 2786 2293 
Q 2538 2584 2113 2584 
z
M 3366 4563 
L 3366 3988 
Q 3128 4100 2886 4159 
Q 2644 4219 2406 4219 
Q 1781 4219 1451 3797 
Q 1122 3375 1075 2522 
Q 1259 2794 1537 2939 
Q 1816 3084 2150 3084 
Q 2853 3084 3261 2657 
Q 3669 2231 3669 1497 
Q 3669 778 3244 343 
Q 2819 -91 2113 -91 
Q 1303 -91 875 529 
Q 447 1150 447 2328 
Q 447 3434 972 4092 
Q 1497 4750 2381 4750 
Q 2619 4750 2861 4703 
Q 3103 4656 3366 4563 
z
" transform="scale(0.015625)"/>
       </defs>
       <use xlink:href="#DejaVuSans-30"/>
       <use xlink:href="#DejaVuSans-2e" x="63.623047"/>
       <use xlink:href="#DejaVuSans-36" x="95.410156"/>
      </g>
     </g>
    </g>
    <g id="xtick_5">
     <g id="line2d_5">
      <g>
       <use xlink:href="#me15429a01b" x="333.556364" y="293.76" style="stroke: #000000; stroke-width: 0.8"/>
      </g>
     </g>
     <g id="text_5">
      <!-- 0.8 -->
      <g transform="translate(323.219332 310.637969)scale(0.13 -0.13)">
       <defs>
        <path id="DejaVuSans-38" d="M 2034 2216 
Q 1584 2216 1326 1975 
Q 1069 1734 1069 1313 
Q 1069 891 1326 650 
Q 1584 409 2034 409 
Q 2484 409 2743 651 
Q 3003 894 3003 1313 
Q 3003 1734 2745 1975 
Q 2488 2216 2034 2216 
z
M 1403 2484 
Q 997 2584 770 2862 
Q 544 3141 544 3541 
Q 544 4100 942 4425 
Q 1341 4750 2034 4750 
Q 2731 4750 3128 4425 
Q 3525 4100 3525 3541 
Q 3525 3141 3298 2862 
Q 3072 2584 2669 2484 
Q 3125 2378 3379 2068 
Q 3634 1759 3634 1313 
Q 3634 634 3220 271 
Q 2806 -91 2034 -91 
Q 1263 -91 848 271 
Q 434 634 434 1313 
Q 434 1759 690 2068 
Q 947 2378 1403 2484 
z
M 1172 3481 
Q 1172 3119 1398 2916 
Q 1625 2713 2034 2713 
Q 2441 2713 2670 2916 
Q 2900 3119 2900 3481 
Q 2900 3844 2670 4047 
Q 2441 4250 2034 4250 
Q 1625 4250 1398 4047 
Q 1172 3844 1172 3481 
z
" transform="scale(0.015625)"/>
       </defs>
       <use xlink:href="#DejaVuSans-30"/>
       <use xlink:href="#DejaVuSans-2e" x="63.623047"/>
       <use xlink:href="#DejaVuSans-38" x="95.410156"/>
      </g>
     </g>
    </g>
    <g id="xtick_6">
     <g id="line2d_6">
      <g>
       <use xlink:href="#me15429a01b" x="398.487273" y="293.76" style="stroke: #000000; stroke-width: 0.8"/>
      </g>
     </g>
     <g id="text_6">
      <!-- 1.0 -->
      <g transform="translate(388.150241 310.637969)scale(0.13 -0.13)">
       <defs>
        <path id="DejaVuSans-31" d="M 794 531 
L 1825 531 
L 1825 4091 
L 703 3866 
L 703 4441 
L 1819 4666 
L 2450 4666 
L 2450 531 
L 3481 531 
L 3481 0 
L 794 0 
L 794 531 
z
" transform="scale(0.015625)"/>
       </defs>
       <use xlink:href="#DejaVuSans-31"/>
       <use xlink:href="#DejaVuSans-2e" x="63.623047"/>
       <use xlink:href="#DejaVuSans-30" x="95.410156"/>
      </g>
     </g>
    </g>
    <g id="text_7">
     <!-- t in arbitrary units -->
     <g transform="translate(163.59375 329.499062)scale(0.16 -0.16)">
      <defs>
       <path id="DejaVuSans-74" d="M 1172 4494 
L 1172 3500 
L 2356 3500 
L 2356 3053 
L 1172 3053 
L 1172 1153 
Q 1172 725 1289 603 
Q 1406 481 1766 481 
L 2356 481 
L 2356 0 
L 1766 0 
Q 1100 0 847 248 
Q 594 497 594 1153 
L 594 3053 
L 172 3053 
L 172 3500 
L 594 3500 
L 594 4494 
L 1172 4494 
z
" transform="scale(0.015625)"/>
       <path id="DejaVuSans-20" transform="scale(0.015625)"/>
       <path id="DejaVuSans-69" d="M 603 3500 
L 1178 3500 
L 1178 0 
L 603 0 
L 603 3500 
z
M 603 4863 
L 1178 4863 
L 1178 4134 
L 603 4134 
L 603 4863 
z
" transform="scale(0.015625)"/>
       <path id="DejaVuSans-6e" d="M 3513 2113 
L 3513 0 
L 2938 0 
L 2938 2094 
Q 2938 2591 2744 2837 
Q 2550 3084 2163 3084 
Q 1697 3084 1428 2787 
Q 1159 2491 1159 1978 
L 1159 0 
L 581 0 
L 581 3500 
L 1159 3500 
L 1159 2956 
Q 1366 3272 1645 3428 
Q 1925 3584 2291 3584 
Q 2894 3584 3203 3211 
Q 3513 2838 3513 2113 
z
" transform="scale(0.015625)"/>
       <path id="DejaVuSans-61" d="M 2194 1759 
Q 1497 1759 1228 1600 
Q 959 1441 959 1056 
Q 959 750 1161 570 
Q 1363 391 1709 391 
Q 2188 391 2477 730 
Q 2766 1069 2766 1631 
L 2766 1759 
L 2194 1759 
z
M 3341 1997 
L 3341 0 
L 2766 0 
L 2766 531 
Q 2569 213 2275 61 
Q 1981 -91 1556 -91 
Q 1019 -91 701 211 
Q 384 513 384 1019 
Q 384 1609 779 1909 
Q 1175 2209 1959 2209 
L 2766 2209 
L 2766 2266 
Q 2766 2663 2505 2880 
Q 2244 3097 1772 3097 
Q 1472 3097 1187 3025 
Q 903 2953 641 2809 
L 641 3341 
Q 956 3463 1253 3523 
Q 1550 3584 1831 3584 
Q 2591 3584 2966 3190 
Q 3341 2797 3341 1997 
z
" transform="scale(0.015625)"/>
       <path id="DejaVuSans-72" d="M 2631 2963 
Q 2534 3019 2420 3045 
Q 2306 3072 2169 3072 
Q 1681 3072 1420 2755 
Q 1159 2438 1159 1844 
L 1159 0 
L 581 0 
L 581 3500 
L 1159 3500 
L 1159 2956 
Q 1341 3275 1631 3429 
Q 1922 3584 2338 3584 
Q 2397 3584 2469 3576 
Q 2541 3569 2628 3553 
L 2631 2963 
z
" transform="scale(0.015625)"/>
       <path id="DejaVuSans-62" d="M 3116 1747 
Q 3116 2381 2855 2742 
Q 2594 3103 2138 3103 
Q 1681 3103 1420 2742 
Q 1159 2381 1159 1747 
Q 1159 1113 1420 752 
Q 1681 391 2138 391 
Q 2594 391 2855 752 
Q 3116 1113 3116 1747 
z
M 1159 2969 
Q 1341 3281 1617 3432 
Q 1894 3584 2278 3584 
Q 2916 3584 3314 3078 
Q 3713 2572 3713 1747 
Q 3713 922 3314 415 
Q 2916 -91 2278 -91 
Q 1894 -91 1617 61 
Q 1341 213 1159 525 
L 1159 0 
L 581 0 
L 581 4863 
L 1159 4863 
L 1159 2969 
z
" transform="scale(0.015625)"/>
       <path id="DejaVuSans-79" d="M 2059 -325 
Q 1816 -950 1584 -1140 
Q 1353 -1331 966 -1331 
L 506 -1331 
L 506 -850 
L 844 -850 
Q 1081 -850 1212 -737 
Q 1344 -625 1503 -206 
L 1606 56 
L 191 3500 
L 800 3500 
L 1894 763 
L 2988 3500 
L 3597 3500 
L 2059 -325 
z
" transform="scale(0.015625)"/>
       <path id="DejaVuSans-75" d="M 544 1381 
L 544 3500 
L 1119 3500 
L 1119 1403 
Q 1119 906 1312 657 
Q 1506 409 1894 409 
Q 2359 409 2629 706 
Q 2900 1003 2900 1516 
L 2900 3500 
L 3475 3500 
L 3475 0 
L 2900 0 
L 2900 538 
Q 2691 219 2414 64 
Q 2138 -91 1772 -91 
Q 1169 -91 856 284 
Q 544 659 544 1381 
z
M 1991 3584 
L 1991 3584 
z
" transform="scale(0.015625)"/>
       <path id="DejaVuSans-73" d="M 2834 3397 
L 2834 2853 
Q 2591 2978 2328 3040 
Q 2066 3103 1784 3103 
Q 1356 3103 1142 2972 
Q 928 2841 928 2578 
Q 928 2378 1081 2264 
Q 1234 2150 1697 2047 
L 1894 2003 
Q 2506 1872 2764 1633 
Q 3022 1394 3022 966 
Q 3022 478 2636 193 
Q 2250 -91 1575 -91 
Q 1294 -91 989 -36 
Q 684 19 347 128 
L 347 722 
Q 666 556 975 473 
Q 1284 391 1588 391 
Q 1994 391 2212 530 
Q 2431 669 2431 922 
Q 2431 1156 2273 1281 
Q 2116 1406 1581 1522 
L 1381 1569 
Q 847 1681 609 1914 
Q 372 2147 372 2553 
Q 372 3047 722 3315 
Q 1072 3584 1716 3584 
Q 2034 3584 2315 3537 
Q 2597 3491 2834 3397 
z
" transform="scale(0.015625)"/>
      </defs>
      <use xlink:href="#DejaVuSans-74"/>
      <use xlink:href="#DejaVuSans-20" x="39.208984"/>
      <use xlink:href="#DejaVuSans-69" x="70.996094"/>
      <use xlink:href="#DejaVuSans-6e" x="98.779297"/>
      <use xlink:href="#DejaVuSans-20" x="162.158203"/>
      <use xlink:href="#DejaVuSans-61" x="193.945312"/>
      <use xlink:href="#DejaVuSans-72" x="255.224609"/>
      <use xlink:href="#DejaVuSans-62" x="296.337891"/>
      <use xlink:href="#DejaVuSans-69" x="359.814453"/>
      <use xlink:href="#DejaVuSans-74" x="387.597656"/>
      <use xlink:href="#DejaVuSans-72" x="426.806641"/>
      <use xlink:href="#DejaVuSans-61" x="467.919922"/>
      <use xlink:href="#DejaVuSans-72" x="529.199219"/>
      <use xlink:href="#DejaVuSans-79" x="570.3125"/>
      <use xlink:href="#DejaVuSans-20" x="629.492188"/>
      <use xlink:href="#DejaVuSans-75" x="661.279297"/>
      <use xlink:href="#DejaVuSans-6e" x="724.658203"/>
      <use xlink:href="#DejaVuSans-69" x="788.037109"/>
      <use xlink:href="#DejaVuSans-74" x="815.820312"/>
      <use xlink:href="#DejaVuSans-73" x="855.029297"/>
     </g>
    </g>
   </g>
   <g id="matplotlib.axis_2">
    <g id="ytick_1">
     <g id="line2d_7">
      <defs>
       <path id="m0a62e0c70d" d="M 0 0 
L -3.5 0 
" style="stroke: #000000; stroke-width: 0.8"/>
      </defs>
      <g>
       <use xlink:href="#m0a62e0c70d" x="57.6" y="283.064237" style="stroke: #000000; stroke-width: 0.8"/>
      </g>
     </g>
     <g id="text_8">
      <!-- −1.0 -->
      <g transform="translate(19.032344 288.003222)scale(0.13 -0.13)">
       <defs>
        <path id="DejaVuSans-2212" d="M 678 2272 
L 4684 2272 
L 4684 1741 
L 678 1741 
L 678 2272 
z
" transform="scale(0.015625)"/>
       </defs>
       <use xlink:href="#DejaVuSans-2212"/>
       <use xlink:href="#DejaVuSans-31" x="83.789062"/>
       <use xlink:href="#DejaVuSans-2e" x="147.412109"/>
       <use xlink:href="#DejaVuSans-30" x="179.199219"/>
      </g>
     </g>
    </g>
    <g id="ytick_2">
     <g id="line2d_8">
      <g>
       <use xlink:href="#m0a62e0c70d" x="57.6" y="244.45343" style="stroke: #000000; stroke-width: 0.8"/>
      </g>
     </g>
     <g id="text_9">
      <!-- −0.5 -->
      <g transform="translate(19.032344 249.392415)scale(0.13 -0.13)">
       <defs>
        <path id="DejaVuSans-35" d="M 691 4666 
L 3169 4666 
L 3169 4134 
L 1269 4134 
L 1269 2991 
Q 1406 3038 1543 3061 
Q 1681 3084 1819 3084 
Q 2600 3084 3056 2656 
Q 3513 2228 3513 1497 
Q 3513 744 3044 326 
Q 2575 -91 1722 -91 
Q 1428 -91 1123 -41 
Q 819 9 494 109 
L 494 744 
Q 775 591 1075 516 
Q 1375 441 1709 441 
Q 2250 441 2565 725 
Q 2881 1009 2881 1497 
Q 2881 1984 2565 2268 
Q 2250 2553 1709 2553 
Q 1456 2553 1204 2497 
Q 953 2441 691 2322 
L 691 4666 
z
" transform="scale(0.015625)"/>
       </defs>
       <use xlink:href="#DejaVuSans-2212"/>
       <use xlink:href="#DejaVuSans-30" x="83.789062"/>
       <use xlink:href="#DejaVuSans-2e" x="147.412109"/>
       <use xlink:href="#DejaVuSans-35" x="179.199219"/>
      </g>
     </g>
    </g>
    <g id="ytick_3">
     <g id="line2d_9">
      <g>
       <use xlink:href="#m0a62e0c70d" x="57.6" y="205.842623" style="stroke: #000000; stroke-width: 0.8"/>
      </g>
     </g>
     <g id="text_10">
      <!-- 0.0 -->
      <g transform="translate(29.925937 210.781608)scale(0.13 -0.13)">
       <use xlink:href="#DejaVuSans-30"/>
       <use xlink:href="#DejaVuSans-2e" x="63.623047"/>
       <use xlink:href="#DejaVuSans-30" x="95.410156"/>
      </g>
     </g>
    </g>
    <g id="ytick_4">
     <g id="line2d_10">
      <g>
       <use xlink:href="#m0a62e0c70d" x="57.6" y="167.231816" style="stroke: #000000; stroke-width: 0.8"/>
      </g>
     </g>
     <g id="text_11">
      <!-- 0.5 -->
      <g transform="translate(29.925937 172.1708)scale(0.13 -0.13)">
       <use xlink:href="#DejaVuSans-30"/>
       <use xlink:href="#DejaVuSans-2e" x="63.623047"/>
       <use xlink:href="#DejaVuSans-35" x="95.410156"/>
      </g>
     </g>
    </g>
    <g id="ytick_5">
     <g id="line2d_11">
      <g>
       <use xlink:href="#m0a62e0c70d" x="57.6" y="128.621009" style="stroke: #000000; stroke-width: 0.8"/>
      </g>
     </g>
     <g id="text_12">
      <!-- 1.0 -->
      <g transform="translate(29.925937 133.559993)scale(0.13 -0.13)">
       <use xlink:href="#DejaVuSans-31"/>
       <use xlink:href="#DejaVuSans-2e" x="63.623047"/>
       <use xlink:href="#DejaVuSans-30" x="95.410156"/>
      </g>
     </g>
    </g>
    <g id="ytick_6">
     <g id="line2d_12">
      <g>
       <use xlink:href="#m0a62e0c70d" x="57.6" y="90.010202" style="stroke: #000000; stroke-width: 0.8"/>
      </g>
     </g>
     <g id="text_13">
      <!-- 1.5 -->
      <g transform="translate(29.925937 94.949186)scale(0.13 -0.13)">
       <use xlink:href="#DejaVuSans-31"/>
       <use xlink:href="#DejaVuSans-2e" x="63.623047"/>
       <use xlink:href="#DejaVuSans-35" x="95.410156"/>
      </g>
     </g>
    </g>
    <g id="ytick_7">
     <g id="line2d_13">
      <g>
       <use xlink:href="#m0a62e0c70d" x="57.6" y="51.399395" style="stroke: #000000; stroke-width: 0.8"/>
      </g>
     </g>
     <g id="text_14">
      <!-- 2.0 -->
      <g transform="translate(29.925937 56.338379)scale(0.13 -0.13)">
       <use xlink:href="#DejaVuSans-32"/>
       <use xlink:href="#DejaVuSans-2e" x="63.623047"/>
       <use xlink:href="#DejaVuSans-30" x="95.410156"/>
      </g>
     </g>
    </g>
    <g id="text_15">
     <!-- $y_1, y_2$ -->
     <g transform="translate(11.672344 188.816)rotate(-90)scale(0.16 -0.16)">
      <defs>
       <path id="DejaVuSans-Oblique-79" d="M 1588 -325 
Q 1188 -997 936 -1164 
Q 684 -1331 294 -1331 
L -159 -1331 
L -63 -850 
L 269 -850 
Q 509 -850 678 -719 
Q 847 -588 1056 -206 
L 1234 128 
L 459 3500 
L 1069 3500 
L 1650 819 
L 3256 3500 
L 3859 3500 
L 1588 -325 
z
" transform="scale(0.015625)"/>
       <path id="DejaVuSans-2c" d="M 750 794 
L 1409 794 
L 1409 256 
L 897 -744 
L 494 -744 
L 750 256 
L 750 794 
z
" transform="scale(0.015625)"/>
      </defs>
      <use xlink:href="#DejaVuSans-Oblique-79" transform="translate(0 0.3125)"/>
      <use xlink:href="#DejaVuSans-31" transform="translate(59.179688 -16.09375)scale(0.7)"/>
      <use xlink:href="#DejaVuSans-2c" transform="translate(106.450195 0.3125)"/>
      <use xlink:href="#DejaVuSans-Oblique-79" transform="translate(157.719727 0.3125)"/>
      <use xlink:href="#DejaVuSans-32" transform="translate(216.899414 -16.09375)scale(0.7)"/>
     </g>
    </g>
   </g>
   <g id="line2d_14">
    <path d="M 73.832727 128.621009 
L 77.079273 52.939636 
L 80.325818 54.457576 
L 83.572364 55.963882 
L 86.818909 57.4552 
L 90.065455 58.93168 
L 93.312 60.393468 
L 96.558545 61.840711 
L 99.805091 63.273554 
L 103.051636 64.69214 
L 106.298182 66.096611 
L 109.544727 67.487107 
L 112.791273 68.863768 
L 116.037818 70.22673 
L 119.284364 71.576131 
L 122.530909 72.912105 
L 125.777455 74.234785 
L 129.024 75.544305 
L 132.270545 76.840795 
L 135.517091 78.124385 
L 138.763636 79.395202 
L 142.010182 80.653375 
L 145.256727 81.899029 
L 148.503273 83.132288 
L 151.749818 84.353277 
L 154.996364 85.562116 
L 158.242909 86.758927 
L 161.489455 87.94383 
L 164.736 89.116942 
L 167.982545 90.278382 
L 171.229091 91.428265 
L 174.475636 92.566707 
L 177.722182 93.693822 
L 180.968727 94.809721 
L 184.215273 95.914517 
L 187.461818 97.00832 
L 190.708364 98.091239 
L 193.954909 99.163383 
L 197.201455 100.224859 
L 200.448 101.275774 
L 203.694545 102.316231 
L 206.941091 103.346336 
L 210.187636 104.366191 
L 213.434182 105.375898 
L 216.680727 106.375559 
L 219.927273 107.365273 
L 223.173818 108.345139 
L 226.420364 109.315255 
L 229.666909 110.275718 
L 232.913455 111.226625 
L 236.16 112.16807 
L 239.406545 113.100147 
L 242.653091 114.02295 
L 245.899636 114.936571 
L 249.146182 115.841102 
L 252.392727 116.736632 
L 255.639273 117.623251 
L 258.885818 118.501049 
L 262.132364 119.370112 
L 265.378909 120.230528 
L 268.625455 121.082382 
L 271.872 121.925761 
L 275.118545 122.760747 
L 278.365091 123.587426 
L 281.611636 124.405879 
L 284.858182 125.216188 
L 288.104727 126.018434 
L 291.351273 126.812698 
L 294.597818 127.599059 
L 297.844364 128.377596 
L 301.090909 129.148386 
L 304.337455 129.911506 
L 307.584 130.667033 
L 310.830545 131.415043 
L 314.077091 132.15561 
L 317.323636 132.888808 
L 320.570182 133.61471 
L 323.816727 134.33339 
L 327.063273 135.044919 
L 330.309818 135.749368 
L 333.556364 136.446807 
L 336.802909 137.137307 
L 340.049455 137.820937 
L 343.296 138.497764 
L 346.542545 139.167856 
L 349.789091 139.831281 
L 353.035636 140.488105 
L 356.282182 141.138393 
L 359.528727 141.782211 
L 362.775273 142.419623 
L 366.021818 143.050692 
L 369.268364 143.675482 
L 372.514909 144.294056 
L 375.761455 144.906474 
L 379.008 145.512799 
L 382.254545 146.113091 
L 385.501091 146.70741 
L 388.747636 147.295815 
L 391.994182 147.878365 
L 395.240727 148.455119 
L 398.487273 149.026135 
" clip-path="url(#pacac186e13)" style="fill: none; stroke: #6495ed; stroke-width: 3; stroke-linecap: square"/>
   </g>
   <g id="line2d_15">
    <path d="M 73.832727 205.842623 
L 77.079273 282.292364 
L 80.325818 281.535147 
L 83.572364 280.781994 
L 86.818909 280.036335 
L 90.065455 279.298095 
L 93.312 278.567201 
L 96.558545 277.843579 
L 99.805091 277.127158 
L 103.051636 276.417865 
L 106.298182 275.715629 
L 109.544727 275.020381 
L 112.791273 274.332051 
L 116.037818 273.65057 
L 119.284364 272.975869 
L 122.530909 272.307882 
L 125.777455 271.646542 
L 129.024 270.991782 
L 132.270545 270.343537 
L 135.517091 269.701742 
L 138.763636 269.066334 
L 142.010182 268.437247 
L 145.256727 267.81442 
L 148.503273 267.197791 
L 151.749818 266.587296 
L 154.996364 265.982877 
L 158.242909 265.384471 
L 161.489455 264.79202 
L 164.736 264.205464 
L 167.982545 263.624744 
L 171.229091 263.049802 
L 174.475636 262.480581 
L 177.722182 261.917024 
L 180.968727 261.359074 
L 184.215273 260.806676 
L 187.461818 260.259775 
L 190.708364 259.718315 
L 193.954909 259.182243 
L 197.201455 258.651505 
L 200.448 258.126048 
L 203.694545 257.605819 
L 206.941091 257.090767 
L 210.187636 256.580839 
L 213.434182 256.075986 
L 216.680727 255.576155 
L 219.927273 255.081298 
L 223.173818 254.591365 
L 226.420364 254.106307 
L 229.666909 253.626076 
L 232.913455 253.150622 
L 236.16 252.6799 
L 239.406545 252.213861 
L 242.653091 251.75246 
L 245.899636 251.295649 
L 249.146182 250.843384 
L 252.392727 250.395619 
L 255.639273 249.952309 
L 258.885818 249.51341 
L 262.132364 249.078879 
L 265.378909 248.648671 
L 268.625455 248.222744 
L 271.872 247.801054 
L 275.118545 247.383561 
L 278.365091 246.970222 
L 281.611636 246.560995 
L 284.858182 246.155841 
L 288.104727 245.754718 
L 291.351273 245.357586 
L 294.597818 244.964405 
L 297.844364 244.575137 
L 301.090909 244.189742 
L 304.337455 243.808182 
L 307.584 243.430418 
L 310.830545 243.056413 
L 314.077091 242.68613 
L 317.323636 242.319531 
L 320.570182 241.95658 
L 323.816727 241.59724 
L 327.063273 241.241475 
L 330.309818 240.889251 
L 333.556364 240.540531 
L 336.802909 240.195281 
L 340.049455 239.853466 
L 343.296 239.515053 
L 346.542545 239.180007 
L 349.789091 238.848294 
L 353.035636 238.519882 
L 356.282182 238.194738 
L 359.528727 237.872829 
L 362.775273 237.554123 
L 366.021818 237.238589 
L 369.268364 236.926194 
L 372.514909 236.616907 
L 375.761455 236.310698 
L 379.008 236.007535 
L 382.254545 235.707389 
L 385.501091 235.41023 
L 388.747636 235.116027 
L 391.994182 234.824752 
L 395.240727 234.536375 
L 398.487273 234.250867 
" clip-path="url(#pacac186e13)" style="fill: none; stroke: #ffa500; stroke-width: 3; stroke-linecap: square"/>
   </g>
   <g id="line2d_16">
    <path d="M 73.832727 128.621009 
L 77.079273 59.948682 
L 80.325818 55.080732 
L 83.572364 55.999565 
L 86.818909 57.430991 
L 90.065455 58.89567 
L 93.312 60.350159 
L 96.558545 61.79064 
L 99.805091 63.216893 
L 103.051636 64.629029 
L 106.298182 66.027183 
L 109.544727 67.411494 
L 112.791273 68.7821 
L 116.037818 70.139135 
L 119.284364 71.482734 
L 122.530909 72.813029 
L 125.777455 74.130154 
L 129.024 75.434238 
L 132.270545 76.72541 
L 135.517091 78.003798 
L 138.763636 79.269529 
L 142.010182 80.522728 
L 145.256727 81.763519 
L 148.503273 82.992025 
L 151.749818 84.208368 
L 154.996364 85.412667 
L 158.242909 86.605043 
L 161.489455 87.785613 
L 164.736 88.954495 
L 167.982545 90.111803 
L 171.229091 91.257652 
L 174.475636 92.392157 
L 177.722182 93.515429 
L 180.968727 94.62758 
L 184.215273 95.728719 
L 187.461818 96.818955 
L 190.708364 97.898397 
L 193.954909 98.967152 
L 197.201455 100.025325 
L 200.448 101.073021 
L 203.694545 102.110344 
L 206.941091 103.137396 
L 210.187636 104.15428 
L 213.434182 105.161095 
L 216.680727 106.157942 
L 219.927273 107.144919 
L 223.173818 108.122124 
L 226.420364 109.089654 
L 229.666909 110.047604 
L 232.913455 110.996069 
L 236.16 111.935144 
L 239.406545 112.864921 
L 242.653091 113.785492 
L 245.899636 114.696949 
L 249.146182 115.599382 
L 252.392727 116.492879 
L 255.639273 117.37753 
L 258.885818 118.253422 
L 262.132364 119.120642 
L 265.378909 119.979275 
L 268.625455 120.829407 
L 271.872 121.671122 
L 275.118545 122.504504 
L 278.365091 123.329633 
L 281.611636 124.146594 
L 284.858182 124.955465 
L 288.104727 125.756328 
L 291.351273 126.549262 
L 294.597818 127.334345 
L 297.844364 128.111654 
L 301.090909 128.881268 
L 304.337455 129.643262 
L 307.584 130.397711 
L 310.830545 131.14469 
L 314.077091 131.884274 
L 317.323636 132.616534 
L 320.570182 133.341545 
L 323.816727 134.059378 
L 327.063273 134.770103 
L 330.309818 135.473791 
L 333.556364 136.170512 
L 336.802909 136.860335 
L 340.049455 137.543328 
L 343.296 138.219559 
L 346.542545 138.889094 
L 349.789091 139.552 
L 353.035636 140.208343 
L 356.282182 140.858187 
L 359.528727 141.501598 
L 362.775273 142.138638 
L 366.021818 142.76937 
L 369.268364 143.393858 
L 372.514909 144.012162 
L 375.761455 144.624345 
L 379.008 145.230467 
L 382.254545 145.830587 
L 385.501091 146.424766 
L 388.747636 147.013061 
L 391.994182 147.595532 
L 395.240727 148.172236 
L 398.487273 148.74323 
" clip-path="url(#pacac186e13)" style="fill: none; stroke-dasharray: 5.55,2.4; stroke-dashoffset: 0; stroke: #000080; stroke-width: 1.5"/>
   </g>
   <g id="line2d_17">
    <path d="M 73.832727 205.842623 
L 77.079273 275.27952 
L 80.325818 280.904471 
L 83.572364 280.735143 
L 86.818909 280.045802 
L 90.065455 279.31586 
L 93.312 278.588833 
L 96.558545 277.868613 
L 99.805091 277.155488 
L 103.051636 276.44942 
L 106.298182 275.750343 
L 109.544727 275.058188 
L 112.791273 274.372885 
L 116.037818 273.694367 
L 119.284364 273.022568 
L 122.530909 272.35742 
L 125.777455 271.698858 
L 129.024 271.046816 
L 132.270545 270.40123 
L 135.517091 269.762036 
L 138.763636 269.12917 
L 142.010182 268.502571 
L 145.256727 267.882175 
L 148.503273 267.267922 
L 151.749818 266.659751 
L 154.996364 266.057601 
L 158.242909 265.461413 
L 161.489455 264.871128 
L 164.736 264.286687 
L 167.982545 263.708033 
L 171.229091 263.135109 
L 174.475636 262.567856 
L 177.722182 262.00622 
L 180.968727 261.450145 
L 184.215273 260.899575 
L 187.461818 260.354457 
L 190.708364 259.814736 
L 193.954909 259.280359 
L 197.201455 258.751272 
L 200.448 258.227424 
L 203.694545 257.708763 
L 206.941091 257.195237 
L 210.187636 256.686795 
L 213.434182 256.183387 
L 216.680727 255.684964 
L 219.927273 255.191475 
L 223.173818 254.702873 
L 226.420364 254.219108 
L 229.666909 253.740133 
L 232.913455 253.2659 
L 236.16 252.796363 
L 239.406545 252.331474 
L 242.653091 251.871189 
L 245.899636 251.41546 
L 249.146182 250.964244 
L 252.392727 250.517495 
L 255.639273 250.07517 
L 258.885818 249.637224 
L 262.132364 249.203614 
L 265.378909 248.774297 
L 268.625455 248.349231 
L 271.872 247.928374 
L 275.118545 247.511683 
L 278.365091 247.099118 
L 281.611636 246.690638 
L 284.858182 246.286202 
L 288.104727 245.885771 
L 291.351273 245.489304 
L 294.597818 245.096762 
L 297.844364 244.708108 
L 301.090909 244.323301 
L 304.337455 243.942304 
L 307.584 243.565079 
L 310.830545 243.19159 
L 314.077091 242.821798 
L 317.323636 242.455668 
L 320.570182 242.093162 
L 323.816727 241.734246 
L 327.063273 241.378883 
L 330.309818 241.027039 
L 333.556364 240.678679 
L 336.802909 240.333767 
L 340.049455 239.992271 
L 343.296 239.654155 
L 346.542545 239.319388 
L 349.789091 238.987935 
L 353.035636 238.659763 
L 356.282182 238.334841 
L 359.528727 238.013136 
L 362.775273 237.694616 
L 366.021818 237.37925 
L 369.268364 237.067006 
L 372.514909 236.757854 
L 375.761455 236.451762 
L 379.008 236.148701 
L 382.254545 235.848641 
L 385.501091 235.551552 
L 388.747636 235.257404 
L 391.994182 234.966169 
L 395.240727 234.677817 
L 398.487273 234.39232 
" clip-path="url(#pacac186e13)" style="fill: none; stroke-dasharray: 5.55,2.4; stroke-dashoffset: 0; stroke: #ff0000; stroke-width: 1.5"/>
   </g>
   <g id="patch_3">
    <path d="M 57.6 293.76 
L 57.6 41.472 
" style="fill: none; stroke: #000000; stroke-width: 0.8; stroke-linejoin: miter; stroke-linecap: square"/>
   </g>
   <g id="patch_4">
    <path d="M 414.72 293.76 
L 414.72 41.472 
" style="fill: none; stroke: #000000; stroke-width: 0.8; stroke-linejoin: miter; stroke-linecap: square"/>
   </g>
   <g id="patch_5">
    <path d="M 57.6 293.76 
L 414.72 293.76 
" style="fill: none; stroke: #000000; stroke-width: 0.8; stroke-linejoin: miter; stroke-linecap: square"/>
   </g>
   <g id="patch_6">
    <path d="M 57.6 41.472 
L 414.72 41.472 
" style="fill: none; stroke: #000000; stroke-width: 0.8; stroke-linejoin: miter; stroke-linecap: square"/>
   </g>
   <g id="text_16">
    <!-- Implicit Euler Scheme, $\Delta t = $0.01 -->
    <g transform="translate(107.84 21.472)scale(0.16 -0.16)">
     <defs>
      <path id="DejaVuSans-49" d="M 628 4666 
L 1259 4666 
L 1259 0 
L 628 0 
L 628 4666 
z
" transform="scale(0.015625)"/>
      <path id="DejaVuSans-6d" d="M 3328 2828 
Q 3544 3216 3844 3400 
Q 4144 3584 4550 3584 
Q 5097 3584 5394 3201 
Q 5691 2819 5691 2113 
L 5691 0 
L 5113 0 
L 5113 2094 
Q 5113 2597 4934 2840 
Q 4756 3084 4391 3084 
Q 3944 3084 3684 2787 
Q 3425 2491 3425 1978 
L 3425 0 
L 2847 0 
L 2847 2094 
Q 2847 2600 2669 2842 
Q 2491 3084 2119 3084 
Q 1678 3084 1418 2786 
Q 1159 2488 1159 1978 
L 1159 0 
L 581 0 
L 581 3500 
L 1159 3500 
L 1159 2956 
Q 1356 3278 1631 3431 
Q 1906 3584 2284 3584 
Q 2666 3584 2933 3390 
Q 3200 3197 3328 2828 
z
" transform="scale(0.015625)"/>
      <path id="DejaVuSans-70" d="M 1159 525 
L 1159 -1331 
L 581 -1331 
L 581 3500 
L 1159 3500 
L 1159 2969 
Q 1341 3281 1617 3432 
Q 1894 3584 2278 3584 
Q 2916 3584 3314 3078 
Q 3713 2572 3713 1747 
Q 3713 922 3314 415 
Q 2916 -91 2278 -91 
Q 1894 -91 1617 61 
Q 1341 213 1159 525 
z
M 3116 1747 
Q 3116 2381 2855 2742 
Q 2594 3103 2138 3103 
Q 1681 3103 1420 2742 
Q 1159 2381 1159 1747 
Q 1159 1113 1420 752 
Q 1681 391 2138 391 
Q 2594 391 2855 752 
Q 3116 1113 3116 1747 
z
" transform="scale(0.015625)"/>
      <path id="DejaVuSans-6c" d="M 603 4863 
L 1178 4863 
L 1178 0 
L 603 0 
L 603 4863 
z
" transform="scale(0.015625)"/>
      <path id="DejaVuSans-63" d="M 3122 3366 
L 3122 2828 
Q 2878 2963 2633 3030 
Q 2388 3097 2138 3097 
Q 1578 3097 1268 2742 
Q 959 2388 959 1747 
Q 959 1106 1268 751 
Q 1578 397 2138 397 
Q 2388 397 2633 464 
Q 2878 531 3122 666 
L 3122 134 
Q 2881 22 2623 -34 
Q 2366 -91 2075 -91 
Q 1284 -91 818 406 
Q 353 903 353 1747 
Q 353 2603 823 3093 
Q 1294 3584 2113 3584 
Q 2378 3584 2631 3529 
Q 2884 3475 3122 3366 
z
" transform="scale(0.015625)"/>
      <path id="DejaVuSans-45" d="M 628 4666 
L 3578 4666 
L 3578 4134 
L 1259 4134 
L 1259 2753 
L 3481 2753 
L 3481 2222 
L 1259 2222 
L 1259 531 
L 3634 531 
L 3634 0 
L 628 0 
L 628 4666 
z
" transform="scale(0.015625)"/>
      <path id="DejaVuSans-65" d="M 3597 1894 
L 3597 1613 
L 953 1613 
Q 991 1019 1311 708 
Q 1631 397 2203 397 
Q 2534 397 2845 478 
Q 3156 559 3463 722 
L 3463 178 
Q 3153 47 2828 -22 
Q 2503 -91 2169 -91 
Q 1331 -91 842 396 
Q 353 884 353 1716 
Q 353 2575 817 3079 
Q 1281 3584 2069 3584 
Q 2775 3584 3186 3129 
Q 3597 2675 3597 1894 
z
M 3022 2063 
Q 3016 2534 2758 2815 
Q 2500 3097 2075 3097 
Q 1594 3097 1305 2825 
Q 1016 2553 972 2059 
L 3022 2063 
z
" transform="scale(0.015625)"/>
      <path id="DejaVuSans-53" d="M 3425 4513 
L 3425 3897 
Q 3066 4069 2747 4153 
Q 2428 4238 2131 4238 
Q 1616 4238 1336 4038 
Q 1056 3838 1056 3469 
Q 1056 3159 1242 3001 
Q 1428 2844 1947 2747 
L 2328 2669 
Q 3034 2534 3370 2195 
Q 3706 1856 3706 1288 
Q 3706 609 3251 259 
Q 2797 -91 1919 -91 
Q 1588 -91 1214 -16 
Q 841 59 441 206 
L 441 856 
Q 825 641 1194 531 
Q 1563 422 1919 422 
Q 2459 422 2753 634 
Q 3047 847 3047 1241 
Q 3047 1584 2836 1778 
Q 2625 1972 2144 2069 
L 1759 2144 
Q 1053 2284 737 2584 
Q 422 2884 422 3419 
Q 422 4038 858 4394 
Q 1294 4750 2059 4750 
Q 2388 4750 2728 4690 
Q 3069 4631 3425 4513 
z
" transform="scale(0.015625)"/>
      <path id="DejaVuSans-68" d="M 3513 2113 
L 3513 0 
L 2938 0 
L 2938 2094 
Q 2938 2591 2744 2837 
Q 2550 3084 2163 3084 
Q 1697 3084 1428 2787 
Q 1159 2491 1159 1978 
L 1159 0 
L 581 0 
L 581 4863 
L 1159 4863 
L 1159 2956 
Q 1366 3272 1645 3428 
Q 1925 3584 2291 3584 
Q 2894 3584 3203 3211 
Q 3513 2838 3513 2113 
z
" transform="scale(0.015625)"/>
      <path id="DejaVuSans-394" d="M 2188 4044 
L 906 525 
L 3472 525 
L 2188 4044 
z
M 50 0 
L 1831 4666 
L 2547 4666 
L 4325 0 
L 50 0 
z
" transform="scale(0.015625)"/>
      <path id="DejaVuSans-Oblique-74" d="M 2706 3500 
L 2619 3053 
L 1472 3053 
L 1100 1153 
Q 1081 1047 1072 975 
Q 1063 903 1063 863 
Q 1063 663 1183 572 
Q 1303 481 1569 481 
L 2150 481 
L 2053 0 
L 1503 0 
Q 991 0 739 200 
Q 488 400 488 806 
Q 488 878 497 964 
Q 506 1050 525 1153 
L 897 3053 
L 409 3053 
L 500 3500 
L 978 3500 
L 1172 4494 
L 1747 4494 
L 1556 3500 
L 2706 3500 
z
" transform="scale(0.015625)"/>
      <path id="DejaVuSans-3d" d="M 678 2906 
L 4684 2906 
L 4684 2381 
L 678 2381 
L 678 2906 
z
M 678 1631 
L 4684 1631 
L 4684 1100 
L 678 1100 
L 678 1631 
z
" transform="scale(0.015625)"/>
     </defs>
     <use xlink:href="#DejaVuSans-49" transform="translate(0 0.015625)"/>
     <use xlink:href="#DejaVuSans-6d" transform="translate(25.867188 0.015625)"/>
     <use xlink:href="#DejaVuSans-70" transform="translate(123.279297 0.015625)"/>
     <use xlink:href="#DejaVuSans-6c" transform="translate(186.755859 0.015625)"/>
     <use xlink:href="#DejaVuSans-69" transform="translate(214.539062 0.015625)"/>
     <use xlink:href="#DejaVuSans-63" transform="translate(242.322266 0.015625)"/>
     <use xlink:href="#DejaVuSans-69" transform="translate(297.302734 0.015625)"/>
     <use xlink:href="#DejaVuSans-74" transform="translate(325.085938 0.015625)"/>
     <use xlink:href="#DejaVuSans-20" transform="translate(364.294922 0.015625)"/>
     <use xlink:href="#DejaVuSans-45" transform="translate(396.082031 0.015625)"/>
     <use xlink:href="#DejaVuSans-75" transform="translate(459.265625 0.015625)"/>
     <use xlink:href="#DejaVuSans-6c" transform="translate(522.644531 0.015625)"/>
     <use xlink:href="#DejaVuSans-65" transform="translate(550.427734 0.015625)"/>
     <use xlink:href="#DejaVuSans-72" transform="translate(611.951172 0.015625)"/>
     <use xlink:href="#DejaVuSans-20" transform="translate(653.064453 0.015625)"/>
     <use xlink:href="#DejaVuSans-53" transform="translate(684.851562 0.015625)"/>
     <use xlink:href="#DejaVuSans-63" transform="translate(748.328125 0.015625)"/>
     <use xlink:href="#DejaVuSans-68" transform="translate(803.308594 0.015625)"/>
     <use xlink:href="#DejaVuSans-65" transform="translate(866.6875 0.015625)"/>
     <use xlink:href="#DejaVuSans-6d" transform="translate(928.210938 0.015625)"/>
     <use xlink:href="#DejaVuSans-65" transform="translate(1025.623047 0.015625)"/>
     <use xlink:href="#DejaVuSans-2c" transform="translate(1087.146484 0.015625)"/>
     <use xlink:href="#DejaVuSans-20" transform="translate(1118.933594 0.015625)"/>
     <use xlink:href="#DejaVuSans-394" transform="translate(1150.720703 0.015625)"/>
     <use xlink:href="#DejaVuSans-Oblique-74" transform="translate(1219.128906 0.015625)"/>
     <use xlink:href="#DejaVuSans-3d" transform="translate(1277.820312 0.015625)"/>
     <use xlink:href="#DejaVuSans-30" transform="translate(1381.091797 0.015625)"/>
     <use xlink:href="#DejaVuSans-2e" transform="translate(1444.714844 0.015625)"/>
     <use xlink:href="#DejaVuSans-30" transform="translate(1476.501953 0.015625)"/>
     <use xlink:href="#DejaVuSans-31" transform="translate(1540.125 0.015625)"/>
    </g>
   </g>
   <g id="legend_1">
    <g id="patch_7">
     <path d="M 315.14 128.303875 
L 405.62 128.303875 
Q 408.22 128.303875 408.22 125.703875 
L 408.22 50.572 
Q 408.22 47.972 405.62 47.972 
L 315.14 47.972 
Q 312.54 47.972 312.54 50.572 
L 312.54 125.703875 
Q 312.54 128.303875 315.14 128.303875 
z
" style="fill: #ffffff; opacity: 0.8; stroke: #cccccc; stroke-linejoin: miter"/>
    </g>
    <g id="line2d_18">
     <path d="M 317.74 58.499969 
L 330.74 58.499969 
L 343.74 58.499969 
" style="fill: none; stroke: #6495ed; stroke-width: 3; stroke-linecap: square"/>
    </g>
    <g id="text_17">
     <!-- true $y_1$ -->
     <g transform="translate(354.14 63.049969)scale(0.13 -0.13)">
      <use xlink:href="#DejaVuSans-74" transform="translate(0 0.78125)"/>
      <use xlink:href="#DejaVuSans-72" transform="translate(39.208984 0.78125)"/>
      <use xlink:href="#DejaVuSans-75" transform="translate(80.322266 0.78125)"/>
      <use xlink:href="#DejaVuSans-65" transform="translate(143.701172 0.78125)"/>
      <use xlink:href="#DejaVuSans-20" transform="translate(205.224609 0.78125)"/>
      <use xlink:href="#DejaVuSans-Oblique-79" transform="translate(237.011719 0.78125)"/>
      <use xlink:href="#DejaVuSans-31" transform="translate(296.191406 -15.625)scale(0.7)"/>
     </g>
    </g>
    <g id="line2d_19">
     <path d="M 317.74 77.607938 
L 330.74 77.607938 
L 343.74 77.607938 
" style="fill: none; stroke: #ffa500; stroke-width: 3; stroke-linecap: square"/>
    </g>
    <g id="text_18">
     <!--  true $y_2$ -->
     <g transform="translate(354.14 82.157938)scale(0.13 -0.13)">
      <use xlink:href="#DejaVuSans-20" transform="translate(0 0.78125)"/>
      <use xlink:href="#DejaVuSans-74" transform="translate(31.787109 0.78125)"/>
      <use xlink:href="#DejaVuSans-72" transform="translate(70.996094 0.78125)"/>
      <use xlink:href="#DejaVuSans-75" transform="translate(112.109375 0.78125)"/>
      <use xlink:href="#DejaVuSans-65" transform="translate(175.488281 0.78125)"/>
      <use xlink:href="#DejaVuSans-20" transform="translate(237.011719 0.78125)"/>
      <use xlink:href="#DejaVuSans-Oblique-79" transform="translate(268.798828 0.78125)"/>
      <use xlink:href="#DejaVuSans-32" transform="translate(327.978516 -15.625)scale(0.7)"/>
     </g>
    </g>
    <g id="line2d_20">
     <path d="M 317.74 96.715906 
L 330.74 96.715906 
L 343.74 96.715906 
" style="fill: none; stroke-dasharray: 5.55,2.4; stroke-dashoffset: 0; stroke: #000080; stroke-width: 1.5"/>
    </g>
    <g id="text_19">
     <!-- $y_1$ -->
     <g transform="translate(354.14 101.265906)scale(0.13 -0.13)">
      <use xlink:href="#DejaVuSans-Oblique-79" transform="translate(0 0.3125)"/>
      <use xlink:href="#DejaVuSans-31" transform="translate(59.179688 -16.09375)scale(0.7)"/>
     </g>
    </g>
    <g id="line2d_21">
     <path d="M 317.74 115.823875 
L 330.74 115.823875 
L 343.74 115.823875 
" style="fill: none; stroke-dasharray: 5.55,2.4; stroke-dashoffset: 0; stroke: #ff0000; stroke-width: 1.5"/>
    </g>
    <g id="text_20">
     <!-- $y_2$ -->
     <g transform="translate(354.14 120.373875)scale(0.13 -0.13)">
      <use xlink:href="#DejaVuSans-Oblique-79" transform="translate(0 0.3125)"/>
      <use xlink:href="#DejaVuSans-32" transform="translate(59.179688 -16.09375)scale(0.7)"/>
     </g>
    </g>
   </g>
  </g>
 </g>
 <defs>
  <clipPath id="pacac186e13">
   <rect x="57.6" y="41.472" width="357.12" height="252.288"/>
  </clipPath>
 </defs>
</svg>
