<?xml version="1.0" encoding="utf-8" standalone="no"?>
<!DOCTYPE svg PUBLIC "-//W3C//DTD SVG 1.1//EN"
  "http://www.w3.org/Graphics/SVG/1.1/DTD/svg11.dtd">
<svg xmlns:xlink="http://www.w3.org/1999/xlink" width="460.8pt" height="345.6pt" viewBox="0 0 460.8 345.6" xmlns="http://www.w3.org/2000/svg" version="1.1">
 <metadata>
  <rdf:RDF xmlns:dc="http://purl.org/dc/elements/1.1/" xmlns:cc="http://creativecommons.org/ns#" xmlns:rdf="http://www.w3.org/1999/02/22-rdf-syntax-ns#">
   <cc:Work>
    <dc:type rdf:resource="http://purl.org/dc/dcmitype/StillImage"/>
    <dc:date>2023-06-05T18:34:40.462408</dc:date>
    <dc:format>image/svg+xml</dc:format>
    <dc:creator>
     <cc:Agent>
      <dc:title>Matplotlib v3.5.1, https://matplotlib.org/</dc:title>
     </cc:Agent>
    </dc:creator>
   </cc:Work>
  </rdf:RDF>
 </metadata>
 <defs>
  <style type="text/css">*{stroke-linejoin: round; stroke-linecap: butt}</style>
 </defs>
 <g id="figure_1">
  <g id="patch_1">
   <path d="M 0 345.6 
L 460.8 345.6 
L 460.8 0 
L 0 0 
z
" style="fill: #ffffff"/>
  </g>
  <g id="axes_1">
   <g id="patch_2">
    <path d="M 57.6 293.76 
L 414.72 293.76 
L 414.72 41.472 
L 57.6 41.472 
z
" style="fill: #ffffff"/>
   </g>
   <g id="matplotlib.axis_1">
    <g id="xtick_1">
     <g id="line2d_1">
      <defs>
       <path id="m89ec1f7b15" d="M 0 0 
L 0 3.5 
" style="stroke: #000000; stroke-width: 0.8"/>
      </defs>
      <g>
       <use xlink:href="#m89ec1f7b15" x="73.832727" y="293.76" style="stroke: #000000; stroke-width: 0.8"/>
      </g>
     </g>
     <g id="text_1">
      <!-- 0.0 -->
      <g transform="translate(63.495696 310.637969)scale(0.13 -0.13)">
       <defs>
        <path id="DejaVuSans-30" d="M 2034 4250 
Q 1547 4250 1301 3770 
Q 1056 3291 1056 2328 
Q 1056 1369 1301 889 
Q 1547 409 2034 409 
Q 2525 409 2770 889 
Q 3016 1369 3016 2328 
Q 3016 3291 2770 3770 
Q 2525 4250 2034 4250 
z
M 2034 4750 
Q 2819 4750 3233 4129 
Q 3647 3509 3647 2328 
Q 3647 1150 3233 529 
Q 2819 -91 2034 -91 
Q 1250 -91 836 529 
Q 422 1150 422 2328 
Q 422 3509 836 4129 
Q 1250 4750 2034 4750 
z
" transform="scale(0.015625)"/>
        <path id="DejaVuSans-2e" d="M 684 794 
L 1344 794 
L 1344 0 
L 684 0 
L 684 794 
z
" transform="scale(0.015625)"/>
       </defs>
       <use xlink:href="#DejaVuSans-30"/>
       <use xlink:href="#DejaVuSans-2e" x="63.623047"/>
       <use xlink:href="#DejaVuSans-30" x="95.410156"/>
      </g>
     </g>
    </g>
    <g id="xtick_2">
     <g id="line2d_2">
      <g>
       <use xlink:href="#m89ec1f7b15" x="138.763636" y="293.76" style="stroke: #000000; stroke-width: 0.8"/>
      </g>
     </g>
     <g id="text_2">
      <!-- 0.2 -->
      <g transform="translate(128.426605 310.637969)scale(0.13 -0.13)">
       <defs>
        <path id="DejaVuSans-32" d="M 1228 531 
L 3431 531 
L 3431 0 
L 469 0 
L 469 531 
Q 828 903 1448 1529 
Q 2069 2156 2228 2338 
Q 2531 2678 2651 2914 
Q 2772 3150 2772 3378 
Q 2772 3750 2511 3984 
Q 2250 4219 1831 4219 
Q 1534 4219 1204 4116 
Q 875 4013 500 3803 
L 500 4441 
Q 881 4594 1212 4672 
Q 1544 4750 1819 4750 
Q 2544 4750 2975 4387 
Q 3406 4025 3406 3419 
Q 3406 3131 3298 2873 
Q 3191 2616 2906 2266 
Q 2828 2175 2409 1742 
Q 1991 1309 1228 531 
z
" transform="scale(0.015625)"/>
       </defs>
       <use xlink:href="#DejaVuSans-30"/>
       <use xlink:href="#DejaVuSans-2e" x="63.623047"/>
       <use xlink:href="#DejaVuSans-32" x="95.410156"/>
      </g>
     </g>
    </g>
    <g id="xtick_3">
     <g id="line2d_3">
      <g>
       <use xlink:href="#m89ec1f7b15" x="203.694545" y="293.76" style="stroke: #000000; stroke-width: 0.8"/>
      </g>
     </g>
     <g id="text_3">
      <!-- 0.4 -->
      <g transform="translate(193.357514 310.637969)scale(0.13 -0.13)">
       <defs>
        <path id="DejaVuSans-34" d="M 2419 4116 
L 825 1625 
L 2419 1625 
L 2419 4116 
z
M 2253 4666 
L 3047 4666 
L 3047 1625 
L 3713 1625 
L 3713 1100 
L 3047 1100 
L 3047 0 
L 2419 0 
L 2419 1100 
L 313 1100 
L 313 1709 
L 2253 4666 
z
" transform="scale(0.015625)"/>
       </defs>
       <use xlink:href="#DejaVuSans-30"/>
       <use xlink:href="#DejaVuSans-2e" x="63.623047"/>
       <use xlink:href="#DejaVuSans-34" x="95.410156"/>
      </g>
     </g>
    </g>
    <g id="xtick_4">
     <g id="line2d_4">
      <g>
       <use xlink:href="#m89ec1f7b15" x="268.625455" y="293.76" style="stroke: #000000; stroke-width: 0.8"/>
      </g>
     </g>
     <g id="text_4">
      <!-- 0.6 -->
      <g transform="translate(258.288423 310.637969)scale(0.13 -0.13)">
       <defs>
        <path id="DejaVuSans-36" d="M 2113 2584 
Q 1688 2584 1439 2293 
Q 1191 2003 1191 1497 
Q 1191 994 1439 701 
Q 1688 409 2113 409 
Q 2538 409 2786 701 
Q 3034 994 3034 1497 
Q 3034 2003 2786 2293 
Q 2538 2584 2113 2584 
z
M 3366 4563 
L 3366 3988 
Q 3128 4100 2886 4159 
Q 2644 4219 2406 4219 
Q 1781 4219 1451 3797 
Q 1122 3375 1075 2522 
Q 1259 2794 1537 2939 
Q 1816 3084 2150 3084 
Q 2853 3084 3261 2657 
Q 3669 2231 3669 1497 
Q 3669 778 3244 343 
Q 2819 -91 2113 -91 
Q 1303 -91 875 529 
Q 447 1150 447 2328 
Q 447 3434 972 4092 
Q 1497 4750 2381 4750 
Q 2619 4750 2861 4703 
Q 3103 4656 3366 4563 
z
" transform="scale(0.015625)"/>
       </defs>
       <use xlink:href="#DejaVuSans-30"/>
       <use xlink:href="#DejaVuSans-2e" x="63.623047"/>
       <use xlink:href="#DejaVuSans-36" x="95.410156"/>
      </g>
     </g>
    </g>
    <g id="xtick_5">
     <g id="line2d_5">
      <g>
       <use xlink:href="#m89ec1f7b15" x="333.556364" y="293.76" style="stroke: #000000; stroke-width: 0.8"/>
      </g>
     </g>
     <g id="text_5">
      <!-- 0.8 -->
      <g transform="translate(323.219332 310.637969)scale(0.13 -0.13)">
       <defs>
        <path id="DejaVuSans-38" d="M 2034 2216 
Q 1584 2216 1326 1975 
Q 1069 1734 1069 1313 
Q 1069 891 1326 650 
Q 1584 409 2034 409 
Q 2484 409 2743 651 
Q 3003 894 3003 1313 
Q 3003 1734 2745 1975 
Q 2488 2216 2034 2216 
z
M 1403 2484 
Q 997 2584 770 2862 
Q 544 3141 544 3541 
Q 544 4100 942 4425 
Q 1341 4750 2034 4750 
Q 2731 4750 3128 4425 
Q 3525 4100 3525 3541 
Q 3525 3141 3298 2862 
Q 3072 2584 2669 2484 
Q 3125 2378 3379 2068 
Q 3634 1759 3634 1313 
Q 3634 634 3220 271 
Q 2806 -91 2034 -91 
Q 1263 -91 848 271 
Q 434 634 434 1313 
Q 434 1759 690 2068 
Q 947 2378 1403 2484 
z
M 1172 3481 
Q 1172 3119 1398 2916 
Q 1625 2713 2034 2713 
Q 2441 2713 2670 2916 
Q 2900 3119 2900 3481 
Q 2900 3844 2670 4047 
Q 2441 4250 2034 4250 
Q 1625 4250 1398 4047 
Q 1172 3844 1172 3481 
z
" transform="scale(0.015625)"/>
       </defs>
       <use xlink:href="#DejaVuSans-30"/>
       <use xlink:href="#DejaVuSans-2e" x="63.623047"/>
       <use xlink:href="#DejaVuSans-38" x="95.410156"/>
      </g>
     </g>
    </g>
    <g id="xtick_6">
     <g id="line2d_6">
      <g>
       <use xlink:href="#m89ec1f7b15" x="398.487273" y="293.76" style="stroke: #000000; stroke-width: 0.8"/>
      </g>
     </g>
     <g id="text_6">
      <!-- 1.0 -->
      <g transform="translate(388.150241 310.637969)scale(0.13 -0.13)">
       <defs>
        <path id="DejaVuSans-31" d="M 794 531 
L 1825 531 
L 1825 4091 
L 703 3866 
L 703 4441 
L 1819 4666 
L 2450 4666 
L 2450 531 
L 3481 531 
L 3481 0 
L 794 0 
L 794 531 
z
" transform="scale(0.015625)"/>
       </defs>
       <use xlink:href="#DejaVuSans-31"/>
       <use xlink:href="#DejaVuSans-2e" x="63.623047"/>
       <use xlink:href="#DejaVuSans-30" x="95.410156"/>
      </g>
     </g>
    </g>
    <g id="text_7">
     <!-- t in arbitrary units -->
     <g transform="translate(163.59375 329.499062)scale(0.16 -0.16)">
      <defs>
       <path id="DejaVuSans-74" d="M 1172 4494 
L 1172 3500 
L 2356 3500 
L 2356 3053 
L 1172 3053 
L 1172 1153 
Q 1172 725 1289 603 
Q 1406 481 1766 481 
L 2356 481 
L 2356 0 
L 1766 0 
Q 1100 0 847 248 
Q 594 497 594 1153 
L 594 3053 
L 172 3053 
L 172 3500 
L 594 3500 
L 594 4494 
L 1172 4494 
z
" transform="scale(0.015625)"/>
       <path id="DejaVuSans-20" transform="scale(0.015625)"/>
       <path id="DejaVuSans-69" d="M 603 3500 
L 1178 3500 
L 1178 0 
L 603 0 
L 603 3500 
z
M 603 4863 
L 1178 4863 
L 1178 4134 
L 603 4134 
L 603 4863 
z
" transform="scale(0.015625)"/>
       <path id="DejaVuSans-6e" d="M 3513 2113 
L 3513 0 
L 2938 0 
L 2938 2094 
Q 2938 2591 2744 2837 
Q 2550 3084 2163 3084 
Q 1697 3084 1428 2787 
Q 1159 2491 1159 1978 
L 1159 0 
L 581 0 
L 581 3500 
L 1159 3500 
L 1159 2956 
Q 1366 3272 1645 3428 
Q 1925 3584 2291 3584 
Q 2894 3584 3203 3211 
Q 3513 2838 3513 2113 
z
" transform="scale(0.015625)"/>
       <path id="DejaVuSans-61" d="M 2194 1759 
Q 1497 1759 1228 1600 
Q 959 1441 959 1056 
Q 959 750 1161 570 
Q 1363 391 1709 391 
Q 2188 391 2477 730 
Q 2766 1069 2766 1631 
L 2766 1759 
L 2194 1759 
z
M 3341 1997 
L 3341 0 
L 2766 0 
L 2766 531 
Q 2569 213 2275 61 
Q 1981 -91 1556 -91 
Q 1019 -91 701 211 
Q 384 513 384 1019 
Q 384 1609 779 1909 
Q 1175 2209 1959 2209 
L 2766 2209 
L 2766 2266 
Q 2766 2663 2505 2880 
Q 2244 3097 1772 3097 
Q 1472 3097 1187 3025 
Q 903 2953 641 2809 
L 641 3341 
Q 956 3463 1253 3523 
Q 1550 3584 1831 3584 
Q 2591 3584 2966 3190 
Q 3341 2797 3341 1997 
z
" transform="scale(0.015625)"/>
       <path id="DejaVuSans-72" d="M 2631 2963 
Q 2534 3019 2420 3045 
Q 2306 3072 2169 3072 
Q 1681 3072 1420 2755 
Q 1159 2438 1159 1844 
L 1159 0 
L 581 0 
L 581 3500 
L 1159 3500 
L 1159 2956 
Q 1341 3275 1631 3429 
Q 1922 3584 2338 3584 
Q 2397 3584 2469 3576 
Q 2541 3569 2628 3553 
L 2631 2963 
z
" transform="scale(0.015625)"/>
       <path id="DejaVuSans-62" d="M 3116 1747 
Q 3116 2381 2855 2742 
Q 2594 3103 2138 3103 
Q 1681 3103 1420 2742 
Q 1159 2381 1159 1747 
Q 1159 1113 1420 752 
Q 1681 391 2138 391 
Q 2594 391 2855 752 
Q 3116 1113 3116 1747 
z
M 1159 2969 
Q 1341 3281 1617 3432 
Q 1894 3584 2278 3584 
Q 2916 3584 3314 3078 
Q 3713 2572 3713 1747 
Q 3713 922 3314 415 
Q 2916 -91 2278 -91 
Q 1894 -91 1617 61 
Q 1341 213 1159 525 
L 1159 0 
L 581 0 
L 581 4863 
L 1159 4863 
L 1159 2969 
z
" transform="scale(0.015625)"/>
       <path id="DejaVuSans-79" d="M 2059 -325 
Q 1816 -950 1584 -1140 
Q 1353 -1331 966 -1331 
L 506 -1331 
L 506 -850 
L 844 -850 
Q 1081 -850 1212 -737 
Q 1344 -625 1503 -206 
L 1606 56 
L 191 3500 
L 800 3500 
L 1894 763 
L 2988 3500 
L 3597 3500 
L 2059 -325 
z
" transform="scale(0.015625)"/>
       <path id="DejaVuSans-75" d="M 544 1381 
L 544 3500 
L 1119 3500 
L 1119 1403 
Q 1119 906 1312 657 
Q 1506 409 1894 409 
Q 2359 409 2629 706 
Q 2900 1003 2900 1516 
L 2900 3500 
L 3475 3500 
L 3475 0 
L 2900 0 
L 2900 538 
Q 2691 219 2414 64 
Q 2138 -91 1772 -91 
Q 1169 -91 856 284 
Q 544 659 544 1381 
z
M 1991 3584 
L 1991 3584 
z
" transform="scale(0.015625)"/>
       <path id="DejaVuSans-73" d="M 2834 3397 
L 2834 2853 
Q 2591 2978 2328 3040 
Q 2066 3103 1784 3103 
Q 1356 3103 1142 2972 
Q 928 2841 928 2578 
Q 928 2378 1081 2264 
Q 1234 2150 1697 2047 
L 1894 2003 
Q 2506 1872 2764 1633 
Q 3022 1394 3022 966 
Q 3022 478 2636 193 
Q 2250 -91 1575 -91 
Q 1294 -91 989 -36 
Q 684 19 347 128 
L 347 722 
Q 666 556 975 473 
Q 1284 391 1588 391 
Q 1994 391 2212 530 
Q 2431 669 2431 922 
Q 2431 1156 2273 1281 
Q 2116 1406 1581 1522 
L 1381 1569 
Q 847 1681 609 1914 
Q 372 2147 372 2553 
Q 372 3047 722 3315 
Q 1072 3584 1716 3584 
Q 2034 3584 2315 3537 
Q 2597 3491 2834 3397 
z
" transform="scale(0.015625)"/>
      </defs>
      <use xlink:href="#DejaVuSans-74"/>
      <use xlink:href="#DejaVuSans-20" x="39.208984"/>
      <use xlink:href="#DejaVuSans-69" x="70.996094"/>
      <use xlink:href="#DejaVuSans-6e" x="98.779297"/>
      <use xlink:href="#DejaVuSans-20" x="162.158203"/>
      <use xlink:href="#DejaVuSans-61" x="193.945312"/>
      <use xlink:href="#DejaVuSans-72" x="255.224609"/>
      <use xlink:href="#DejaVuSans-62" x="296.337891"/>
      <use xlink:href="#DejaVuSans-69" x="359.814453"/>
      <use xlink:href="#DejaVuSans-74" x="387.597656"/>
      <use xlink:href="#DejaVuSans-72" x="426.806641"/>
      <use xlink:href="#DejaVuSans-61" x="467.919922"/>
      <use xlink:href="#DejaVuSans-72" x="529.199219"/>
      <use xlink:href="#DejaVuSans-79" x="570.3125"/>
      <use xlink:href="#DejaVuSans-20" x="629.492188"/>
      <use xlink:href="#DejaVuSans-75" x="661.279297"/>
      <use xlink:href="#DejaVuSans-6e" x="724.658203"/>
      <use xlink:href="#DejaVuSans-69" x="788.037109"/>
      <use xlink:href="#DejaVuSans-74" x="815.820312"/>
      <use xlink:href="#DejaVuSans-73" x="855.029297"/>
     </g>
    </g>
   </g>
   <g id="matplotlib.axis_2">
    <g id="ytick_1">
     <g id="line2d_7">
      <defs>
       <path id="m2e0ebccfd9" d="M 0 0 
L -3.5 0 
" style="stroke: #000000; stroke-width: 0.8"/>
      </defs>
      <g>
       <use xlink:href="#m2e0ebccfd9" x="57.6" y="282.384215" style="stroke: #000000; stroke-width: 0.8"/>
      </g>
     </g>
     <g id="text_8">
      <!-- −2 -->
      <g transform="translate(31.435156 287.323199)scale(0.13 -0.13)">
       <defs>
        <path id="DejaVuSans-2212" d="M 678 2272 
L 4684 2272 
L 4684 1741 
L 678 1741 
L 678 2272 
z
" transform="scale(0.015625)"/>
       </defs>
       <use xlink:href="#DejaVuSans-2212"/>
       <use xlink:href="#DejaVuSans-32" x="83.789062"/>
      </g>
     </g>
    </g>
    <g id="ytick_2">
     <g id="line2d_8">
      <g>
       <use xlink:href="#m2e0ebccfd9" x="57.6" y="236.458559" style="stroke: #000000; stroke-width: 0.8"/>
      </g>
     </g>
     <g id="text_9">
      <!-- −1 -->
      <g transform="translate(31.435156 241.397543)scale(0.13 -0.13)">
       <use xlink:href="#DejaVuSans-2212"/>
       <use xlink:href="#DejaVuSans-31" x="83.789062"/>
      </g>
     </g>
    </g>
    <g id="ytick_3">
     <g id="line2d_9">
      <g>
       <use xlink:href="#m2e0ebccfd9" x="57.6" y="190.532902" style="stroke: #000000; stroke-width: 0.8"/>
      </g>
     </g>
     <g id="text_10">
      <!-- 0 -->
      <g transform="translate(42.32875 195.471887)scale(0.13 -0.13)">
       <use xlink:href="#DejaVuSans-30"/>
      </g>
     </g>
    </g>
    <g id="ytick_4">
     <g id="line2d_10">
      <g>
       <use xlink:href="#m2e0ebccfd9" x="57.6" y="144.607246" style="stroke: #000000; stroke-width: 0.8"/>
      </g>
     </g>
     <g id="text_11">
      <!-- 1 -->
      <g transform="translate(42.32875 149.546231)scale(0.13 -0.13)">
       <use xlink:href="#DejaVuSans-31"/>
      </g>
     </g>
    </g>
    <g id="ytick_5">
     <g id="line2d_11">
      <g>
       <use xlink:href="#m2e0ebccfd9" x="57.6" y="98.68159" style="stroke: #000000; stroke-width: 0.8"/>
      </g>
     </g>
     <g id="text_12">
      <!-- 2 -->
      <g transform="translate(42.32875 103.620574)scale(0.13 -0.13)">
       <use xlink:href="#DejaVuSans-32"/>
      </g>
     </g>
    </g>
    <g id="ytick_6">
     <g id="line2d_12">
      <g>
       <use xlink:href="#m2e0ebccfd9" x="57.6" y="52.755934" style="stroke: #000000; stroke-width: 0.8"/>
      </g>
     </g>
     <g id="text_13">
      <!-- 3 -->
      <g transform="translate(42.32875 57.694918)scale(0.13 -0.13)">
       <defs>
        <path id="DejaVuSans-33" d="M 2597 2516 
Q 3050 2419 3304 2112 
Q 3559 1806 3559 1356 
Q 3559 666 3084 287 
Q 2609 -91 1734 -91 
Q 1441 -91 1130 -33 
Q 819 25 488 141 
L 488 750 
Q 750 597 1062 519 
Q 1375 441 1716 441 
Q 2309 441 2620 675 
Q 2931 909 2931 1356 
Q 2931 1769 2642 2001 
Q 2353 2234 1838 2234 
L 1294 2234 
L 1294 2753 
L 1863 2753 
Q 2328 2753 2575 2939 
Q 2822 3125 2822 3475 
Q 2822 3834 2567 4026 
Q 2313 4219 1838 4219 
Q 1578 4219 1281 4162 
Q 984 4106 628 3988 
L 628 4550 
Q 988 4650 1302 4700 
Q 1616 4750 1894 4750 
Q 2613 4750 3031 4423 
Q 3450 4097 3450 3541 
Q 3450 3153 3228 2886 
Q 3006 2619 2597 2516 
z
" transform="scale(0.015625)"/>
       </defs>
       <use xlink:href="#DejaVuSans-33"/>
      </g>
     </g>
    </g>
    <g id="text_14">
     <!-- $y_1, y_2$ -->
     <g transform="translate(24.075156 188.816)rotate(-90)scale(0.16 -0.16)">
      <defs>
       <path id="DejaVuSans-Oblique-79" d="M 1588 -325 
Q 1188 -997 936 -1164 
Q 684 -1331 294 -1331 
L -159 -1331 
L -63 -850 
L 269 -850 
Q 509 -850 678 -719 
Q 847 -588 1056 -206 
L 1234 128 
L 459 3500 
L 1069 3500 
L 1650 819 
L 3256 3500 
L 3859 3500 
L 1588 -325 
z
" transform="scale(0.015625)"/>
       <path id="DejaVuSans-2c" d="M 750 794 
L 1409 794 
L 1409 256 
L 897 -744 
L 494 -744 
L 750 256 
L 750 794 
z
" transform="scale(0.015625)"/>
      </defs>
      <use xlink:href="#DejaVuSans-Oblique-79" transform="translate(0 0.3125)"/>
      <use xlink:href="#DejaVuSans-31" transform="translate(59.179688 -16.09375)scale(0.7)"/>
      <use xlink:href="#DejaVuSans-2c" transform="translate(106.450195 0.3125)"/>
      <use xlink:href="#DejaVuSans-Oblique-79" transform="translate(157.719727 0.3125)"/>
      <use xlink:href="#DejaVuSans-32" transform="translate(216.899414 -16.09375)scale(0.7)"/>
     </g>
    </g>
   </g>
   <g id="line2d_13">
    <path d="M 73.832727 144.607246 
L 74.482036 105.080471 
L 75.131345 99.889419 
L 75.780655 99.344886 
L 77.079273 99.597611 
L 97.207855 105.062418 
L 114.089891 109.393305 
L 131.621236 113.658642 
L 149.801891 117.845281 
L 167.982545 121.803912 
L 186.812509 125.676794 
L 206.291782 129.45372 
L 226.420364 133.125624 
L 247.198255 136.684588 
L 268.625455 140.123833 
L 290.701964 143.437702 
L 313.427782 146.621628 
L 336.802909 149.672105 
L 361.476655 152.662453 
L 386.799709 155.504084 
L 398.487273 156.742693 
L 398.487273 156.742693 
" clip-path="url(#p225b7d7940)" style="fill: none; stroke: #6495ed; stroke-width: 3; stroke-linecap: square"/>
   </g>
   <g id="line2d_14">
    <path d="M 73.832727 190.532902 
L 74.482036 230.151437 
L 75.131345 235.434065 
L 75.780655 236.069991 
L 77.079273 235.999506 
L 107.5968 231.922266 
L 131.621236 228.970033 
L 156.944291 226.08588 
L 182.916655 223.352438 
L 210.187636 220.708209 
L 238.757236 218.166267 
L 268.625455 215.737437 
L 299.792291 213.430315 
L 332.257745 211.251338 
L 366.671127 209.167574 
L 398.487273 207.428007 
L 398.487273 207.428007 
" clip-path="url(#p225b7d7940)" style="fill: none; stroke: #ffa500; stroke-width: 3; stroke-linecap: square"/>
   </g>
   <g id="line2d_15">
    <path d="M 73.832727 144.607246 
L 74.482036 52.939636 
L 75.131345 144.974284 
L 75.780655 53.30594 
L 76.429964 145.339855 
L 77.079273 53.67078 
L 77.728582 145.703966 
L 78.377891 54.034162 
L 79.0272 146.066621 
L 79.676509 54.396092 
L 80.325818 146.427827 
L 80.975127 54.756576 
L 81.624436 146.78759 
L 82.273745 55.115619 
L 82.923055 147.145915 
L 83.572364 55.473228 
L 84.221673 147.502808 
L 84.870982 55.829407 
L 85.520291 147.858276 
L 86.1696 56.184164 
L 86.818909 148.212322 
L 87.468218 56.537502 
L 88.117527 148.564954 
L 88.766836 56.889429 
L 89.416145 148.916177 
L 90.065455 57.239949 
L 90.714764 149.265996 
L 91.364073 57.589069 
L 92.013382 149.614418 
L 92.662691 57.936794 
L 93.312 149.961447 
L 93.961309 58.283129 
L 94.610618 150.30709 
L 95.259927 58.62808 
L 95.909236 150.651351 
L 96.558545 58.971653 
L 97.207855 150.994236 
L 97.857164 59.313853 
L 98.506473 151.335752 
L 99.155782 59.654685 
L 99.805091 151.675903 
L 100.4544 59.994155 
L 101.103709 152.014694 
L 101.753018 60.332269 
L 102.402327 152.352132 
L 103.051636 60.669032 
L 103.700945 152.688221 
L 104.350255 61.004449 
L 104.999564 153.022967 
L 105.648873 61.338526 
L 106.298182 153.356376 
L 106.947491 61.671268 
L 107.5968 153.688452 
L 108.246109 62.00268 
L 108.895418 154.019202 
L 109.544727 62.332768 
L 110.194036 154.348629 
L 110.843345 62.661537 
L 111.492655 154.676741 
L 112.141964 62.988992 
L 112.791273 155.003541 
L 113.440582 63.315138 
L 114.089891 155.329035 
L 114.7392 63.639982 
L 115.388509 155.653229 
L 116.037818 63.963527 
L 116.687127 155.976127 
L 117.336436 64.285779 
L 117.985745 156.297734 
L 118.635055 64.606744 
L 119.284364 156.618057 
L 119.933673 64.926426 
L 120.582982 156.9371 
L 121.232291 65.24483 
L 121.8816 157.254868 
L 122.530909 65.561962 
L 123.180218 157.571365 
L 123.829527 65.877827 
L 124.478836 157.886599 
L 125.128145 66.19243 
L 125.777455 158.200572 
L 126.426764 66.505776 
L 127.076073 158.513291 
L 127.725382 66.817869 
L 128.374691 158.82476 
L 129.024 67.128716 
L 129.673309 159.134985 
L 130.322618 67.43832 
L 130.971927 159.44397 
L 131.621236 67.746687 
L 132.270545 159.75172 
L 132.919855 68.053822 
L 133.569164 160.058241 
L 134.218473 68.359729 
L 134.867782 160.363537 
L 135.517091 68.664414 
L 136.1664 160.667612 
L 136.815709 68.967882 
L 137.465018 160.970473 
L 138.114327 69.270137 
L 138.763636 161.272123 
L 139.412945 69.571184 
L 140.062255 161.572568 
L 140.711564 69.871028 
L 141.360873 161.871813 
L 142.010182 70.169674 
L 142.659491 162.169861 
L 143.3088 70.467126 
L 143.958109 162.466719 
L 144.607418 70.76339 
L 145.256727 162.76239 
L 145.906036 71.05847 
L 146.555345 163.05688 
L 147.204655 71.352371 
L 147.853964 163.350193 
L 148.503273 71.645098 
L 149.152582 163.642334 
L 149.801891 71.936654 
L 150.4512 163.933308 
L 151.100509 72.227046 
L 151.749818 164.223119 
L 152.399127 72.516277 
L 153.048436 164.511772 
L 153.697745 72.804353 
L 154.347055 164.799271 
L 154.996364 73.091277 
L 155.645673 165.085622 
L 156.294982 73.377055 
L 156.944291 165.370828 
L 157.5936 73.661691 
L 158.242909 165.654894 
L 158.892218 73.945189 
L 159.541527 165.937826 
L 160.190836 74.227555 
L 160.840145 166.219627 
L 161.489455 74.508792 
L 162.138764 166.500302 
L 162.788073 74.788906 
L 163.437382 166.779855 
L 164.086691 75.0679 
L 164.736 167.058291 
L 165.385309 75.345779 
L 166.034618 167.335614 
L 166.683927 75.622548 
L 167.333236 167.61183 
L 167.982545 75.898211 
L 168.631855 167.886941 
L 169.281164 76.172772 
L 169.930473 168.160953 
L 170.579782 76.446236 
L 171.229091 168.433871 
L 171.8784 76.718607 
L 172.527709 168.705697 
L 173.177018 76.98989 
L 173.826327 168.976438 
L 174.475636 77.260089 
L 175.124945 169.246096 
L 175.774255 77.529209 
L 176.423564 169.514677 
L 177.072873 77.797252 
L 177.722182 169.782185 
L 178.371491 78.064225 
L 179.0208 170.048624 
L 179.670109 78.330131 
L 180.319418 170.313998 
L 180.968727 78.594974 
L 181.618036 170.578312 
L 182.267345 78.85876 
L 182.916655 170.841569 
L 183.565964 79.12149 
L 184.215273 171.103774 
L 184.864582 79.383172 
L 185.513891 171.364932 
L 186.1632 79.643807 
L 186.812509 171.625046 
L 187.461818 79.903401 
L 188.111127 171.884121 
L 188.760436 80.161957 
L 189.409745 172.14216 
L 190.059055 80.419481 
L 190.708364 172.399169 
L 191.357673 80.675975 
L 192.006982 172.65515 
L 192.656291 80.931444 
L 193.3056 172.910109 
L 193.954909 81.185893 
L 194.604218 173.164048 
L 195.253527 81.439325 
L 195.902836 173.416973 
L 196.552145 81.691744 
L 197.201455 173.668887 
L 197.850764 81.943154 
L 198.500073 173.919795 
L 199.149382 82.19356 
L 199.798691 174.1697 
L 200.448 82.442965 
L 201.097309 174.418606 
L 201.746618 82.691373 
L 202.395927 174.666518 
L 203.045236 82.938789 
L 203.694545 174.913439 
L 204.343855 83.185216 
L 204.993164 175.159373 
L 205.642473 83.430659 
L 206.291782 175.404324 
L 206.941091 83.67512 
L 207.5904 175.648297 
L 208.239709 83.918605 
L 208.889018 175.891295 
L 209.538327 84.161117 
L 210.187636 176.133322 
L 210.836945 84.40266 
L 211.486255 176.374381 
L 212.135564 84.643237 
L 212.784873 176.614478 
L 213.434182 84.882853 
L 214.083491 176.853615 
L 214.7328 85.121512 
L 215.382109 177.091796 
L 216.031418 85.359217 
L 216.680727 177.329026 
L 217.330036 85.595972 
L 217.979345 177.565307 
L 218.628655 85.831781 
L 219.277964 177.800645 
L 219.927273 86.066648 
L 220.576582 178.035042 
L 221.225891 86.300576 
L 221.8752 178.268502 
L 222.524509 86.53357 
L 223.173818 178.50103 
L 223.823127 86.765632 
L 224.472436 178.732628 
L 225.121745 86.996767 
L 225.771055 178.963301 
L 226.420364 87.226979 
L 227.069673 179.193052 
L 227.718982 87.45627 
L 228.368291 179.421885 
L 229.0176 87.684646 
L 229.666909 179.649803 
L 230.316218 87.912108 
L 230.965527 179.876811 
L 231.614836 88.138662 
L 232.264145 180.102912 
L 232.913455 88.36431 
L 233.562764 180.328109 
L 234.212073 88.589057 
L 234.861382 180.552406 
L 235.510691 88.812906 
L 236.16 180.775807 
L 236.809309 89.03586 
L 237.458618 180.998315 
L 238.107927 89.257923 
L 238.757236 181.219934 
L 239.406545 89.479099 
L 240.055855 181.440668 
L 240.705164 89.699391 
L 241.354473 181.66052 
L 242.003782 89.918803 
L 242.653091 181.879492 
L 243.3024 90.137338 
L 243.951709 182.09759 
L 244.601018 90.355 
L 245.250327 182.314817 
L 245.899636 90.571792 
L 246.548945 182.531175 
L 247.198255 90.787718 
L 247.847564 182.746669 
L 248.496873 91.00278 
L 249.146182 182.961302 
L 249.795491 91.216984 
L 250.4448 183.175077 
L 251.094109 91.430331 
L 251.743418 183.387998 
L 252.392727 91.642826 
L 253.042036 183.600068 
L 253.691345 91.854472 
L 254.340655 183.81129 
L 254.989964 92.065272 
L 255.639273 184.021669 
L 256.288582 92.27523 
L 256.937891 184.231206 
L 257.5872 92.484349 
L 258.236509 184.439907 
L 258.885818 92.692632 
L 259.535127 184.647773 
L 260.184436 92.900083 
L 260.833745 184.854809 
L 261.483055 93.106704 
L 262.132364 185.061018 
L 262.781673 93.312501 
L 263.430982 185.266403 
L 264.080291 93.517474 
L 264.7296 185.470966 
L 265.378909 93.721629 
L 266.028218 185.674713 
L 266.677527 93.924968 
L 267.326836 185.877645 
L 267.976145 94.127494 
L 268.625455 186.079766 
L 269.274764 94.329211 
L 269.924073 186.28108 
L 270.573382 94.530122 
L 271.222691 186.481589 
L 271.872 94.730231 
L 272.521309 186.681297 
L 273.170618 94.929539 
L 273.819927 186.880207 
L 274.469236 95.128051 
L 275.118545 187.078322 
L 275.767855 95.32577 
L 276.417164 187.275646 
L 277.066473 95.522699 
L 277.715782 187.472181 
L 278.365091 95.718841 
L 279.0144 187.66793 
L 279.663709 95.914199 
L 280.313018 187.862897 
L 280.962327 96.108776 
L 281.611636 188.057086 
L 282.260945 96.302576 
L 282.910255 188.250498 
L 283.559564 96.495602 
L 284.208873 188.443137 
L 284.858182 96.687856 
L 285.507491 188.635007 
L 286.1568 96.879342 
L 286.806109 188.82611 
L 287.455418 97.070062 
L 288.104727 189.016449 
L 288.754036 97.260021 
L 289.403345 189.206028 
L 290.052655 97.44922 
L 290.701964 189.394849 
L 291.351273 97.637664 
L 292.000582 189.582916 
L 292.649891 97.825354 
L 293.2992 189.770231 
L 293.948509 98.012295 
L 294.597818 189.956797 
L 295.247127 98.198488 
L 295.896436 190.142618 
L 296.545745 98.383938 
L 297.195055 190.327697 
L 297.844364 98.568646 
L 298.493673 190.512036 
L 299.142982 98.752616 
L 299.792291 190.695638 
L 300.4416 98.935851 
L 301.090909 190.878507 
L 301.740218 99.118354 
L 302.389527 191.060645 
L 303.038836 99.300128 
L 303.688145 191.242055 
L 304.337455 99.481175 
L 304.986764 191.42274 
L 305.636073 99.661499 
L 306.285382 191.602703 
L 306.934691 99.841102 
L 307.584 191.781947 
L 308.233309 100.019988 
L 308.882618 191.960475 
L 309.531927 100.198158 
L 310.181236 192.138289 
L 310.830545 100.375617 
L 311.479855 192.315393 
L 312.129164 100.552367 
L 312.778473 192.491789 
L 313.427782 100.72841 
L 314.077091 192.66748 
L 314.7264 100.90375 
L 315.375709 192.842469 
L 316.025018 101.078389 
L 316.674327 193.016759 
L 317.323636 101.25233 
L 317.972945 193.190353 
L 318.622255 101.425576 
L 319.271564 193.363252 
L 319.920873 101.59813 
L 320.570182 193.535461 
L 321.219491 101.769995 
L 321.8688 193.706982 
L 322.518109 101.941172 
L 323.167418 193.877817 
L 323.816727 102.111666 
L 324.466036 194.04797 
L 325.115345 102.281478 
L 325.764655 194.217442 
L 326.413964 102.450612 
L 327.063273 194.386238 
L 327.712582 102.61907 
L 328.361891 194.554359 
L 329.0112 102.786855 
L 329.660509 194.721808 
L 330.309818 102.953969 
L 330.959127 194.888588 
L 331.608436 103.120416 
L 332.257745 195.054702 
L 332.907055 103.286197 
L 333.556364 195.220152 
L 334.205673 103.451316 
L 334.854982 195.38494 
L 335.504291 103.615775 
L 336.1536 195.54907 
L 336.802909 103.779577 
L 337.452218 195.712545 
L 338.101527 103.942724 
L 338.750836 195.875366 
L 339.400145 104.10522 
L 340.049455 196.037536 
L 340.698764 104.267066 
L 341.348073 196.199059 
L 341.997382 104.428265 
L 342.646691 196.359936 
L 343.296 104.58882 
L 343.945309 196.52017 
L 344.594618 104.748734 
L 345.243927 196.679764 
L 345.893236 104.908009 
L 346.542545 196.83872 
L 347.191855 105.066647 
L 347.841164 196.997041 
L 348.490473 105.224651 
L 349.139782 197.154729 
L 349.789091 105.382024 
L 350.4384 197.311787 
L 351.087709 105.538768 
L 351.737018 197.468217 
L 352.386327 105.694886 
L 353.035636 197.624023 
L 353.684945 105.850379 
L 354.334255 197.779206 
L 354.983564 106.005252 
L 355.632873 197.933768 
L 356.282182 106.159505 
L 356.931491 198.087713 
L 357.5808 106.313143 
L 358.230109 198.241043 
L 358.879418 106.466166 
L 359.528727 198.39376 
L 360.178036 106.618578 
L 360.827345 198.545867 
L 361.476655 106.77038 
L 362.125964 198.697366 
L 362.775273 106.921576 
L 363.424582 198.84826 
L 364.073891 107.072168 
L 364.7232 198.998551 
L 365.372509 107.222158 
L 366.021818 199.148241 
L 366.671127 107.371549 
L 367.320436 199.297333 
L 367.969745 107.520343 
L 368.619055 199.445829 
L 369.268364 107.668542 
L 369.917673 199.593732 
L 370.566982 107.816149 
L 371.216291 199.741044 
L 371.8656 107.963167 
L 372.514909 199.887767 
L 373.164218 108.109596 
L 373.813527 200.033904 
L 374.462836 108.255441 
L 375.112145 200.179457 
L 375.761455 108.400703 
L 376.410764 200.324428 
L 377.060073 108.545384 
L 377.709382 200.46882 
L 378.358691 108.689487 
L 379.008 200.612635 
L 379.657309 108.833015 
L 380.306618 200.755876 
L 380.955927 108.975969 
L 381.605236 200.898544 
L 382.254545 109.118351 
L 382.903855 201.040641 
L 383.553164 109.260165 
L 384.202473 201.182171 
L 384.851782 109.401412 
L 385.501091 201.323136 
L 386.1504 109.542094 
L 386.799709 201.463537 
L 387.449018 109.682215 
L 388.098327 201.603377 
L 388.747636 109.821775 
L 389.396945 201.742658 
L 390.046255 109.960778 
L 390.695564 201.881383 
L 391.344873 110.099225 
L 391.994182 202.019554 
L 392.643491 110.237119 
L 393.2928 202.157172 
L 393.942109 110.374462 
L 394.591418 202.29424 
L 395.240727 110.511256 
L 395.890036 202.430761 
L 396.539345 110.647504 
L 397.188655 202.566736 
L 397.837964 110.783207 
L 398.487273 202.702168 
L 398.487273 202.702168 
" clip-path="url(#p225b7d7940)" style="fill: none; stroke-dasharray: 5.55,2.4; stroke-dashoffset: 0; stroke: #000080; stroke-width: 1.5"/>
   </g>
   <g id="line2d_16">
    <path d="M 73.832727 190.532902 
L 74.482036 282.292364 
L 75.131345 190.349384 
L 75.780655 282.109212 
L 76.429964 190.166598 
L 77.079273 281.926792 
L 77.728582 189.984543 
L 78.377891 281.745101 
L 79.0272 189.803215 
L 79.676509 281.564136 
L 80.325818 189.622612 
L 80.975127 281.383894 
L 81.624436 189.442731 
L 82.273745 281.204372 
L 82.923055 189.263568 
L 83.572364 281.025568 
L 84.221673 189.085121 
L 84.870982 280.847478 
L 85.520291 188.907388 
L 86.1696 280.6701 
L 86.818909 188.730364 
L 87.468218 280.493431 
L 88.117527 188.554048 
L 88.766836 280.317467 
L 89.416145 188.378437 
L 90.065455 280.142207 
L 90.714764 188.203527 
L 91.364073 279.967647 
L 92.013382 188.029317 
L 92.662691 279.793785 
L 93.312 187.855802 
L 93.961309 279.620617 
L 94.610618 187.682981 
L 95.259927 279.448142 
L 95.909236 187.51085 
L 96.558545 279.276355 
L 97.207855 187.339407 
L 97.857164 279.105255 
L 98.506473 187.16865 
L 99.155782 278.934839 
L 99.805091 186.998574 
L 100.4544 278.765104 
L 101.103709 186.829179 
L 101.753018 278.596047 
L 102.402327 186.66046 
L 103.051636 278.427666 
L 103.700945 186.492415 
L 104.350255 278.259957 
L 104.999564 186.325042 
L 105.648873 278.092919 
L 106.298182 186.158338 
L 106.947491 277.926548 
L 107.5968 185.992299 
L 108.246109 277.760842 
L 108.895418 185.826925 
L 109.544727 277.595798 
L 110.194036 185.662211 
L 110.843345 277.431413 
L 111.492655 185.498155 
L 112.141964 277.267686 
L 112.791273 185.334755 
L 113.440582 277.104613 
L 114.089891 185.172008 
L 114.7392 276.942191 
L 115.388509 185.009911 
L 116.037818 276.780418 
L 116.687127 184.848462 
L 117.336436 276.619292 
L 117.985745 184.687658 
L 118.635055 276.45881 
L 119.284364 184.527497 
L 119.933673 276.298969 
L 120.582982 184.367976 
L 121.232291 276.139767 
L 121.8816 184.209092 
L 122.530909 275.981201 
L 123.180218 184.050843 
L 123.829527 275.823268 
L 124.478836 183.893226 
L 125.128145 275.665967 
L 125.777455 183.736239 
L 126.426764 275.509294 
L 127.076073 183.57988 
L 127.725382 275.353247 
L 128.374691 183.424145 
L 129.024 275.197824 
L 129.673309 183.269033 
L 130.322618 275.043022 
L 130.971927 183.114541 
L 131.621236 274.888838 
L 132.270545 182.960665 
L 132.919855 274.735271 
L 133.569164 182.807405 
L 134.218473 274.582317 
L 134.867782 182.654757 
L 135.517091 274.429975 
L 136.1664 182.502719 
L 136.815709 274.278241 
L 137.465018 182.351289 
L 138.114327 274.127113 
L 138.763636 182.200464 
L 139.412945 273.97659 
L 140.062255 182.050241 
L 140.711564 273.826668 
L 141.360873 181.900619 
L 142.010182 273.677345 
L 142.659491 181.751595 
L 143.3088 273.528619 
L 143.958109 181.603166 
L 144.607418 273.380487 
L 145.256727 181.45533 
L 145.906036 273.232947 
L 146.555345 181.308085 
L 147.204655 273.085996 
L 147.853964 181.161429 
L 148.503273 272.939633 
L 149.152582 181.015358 
L 149.801891 272.793855 
L 150.4512 180.869872 
L 151.100509 272.648659 
L 151.749818 180.724966 
L 152.399127 272.504043 
L 153.048436 180.58064 
L 153.697745 272.360005 
L 154.347055 180.43689 
L 154.996364 272.216543 
L 155.645673 180.293715 
L 156.294982 272.073654 
L 156.944291 180.151112 
L 157.5936 271.931336 
L 158.242909 180.009078 
L 158.892218 271.789587 
L 159.541527 179.867613 
L 160.190836 271.648404 
L 160.840145 179.726712 
L 161.489455 271.507786 
L 162.138764 179.586375 
L 162.788073 271.367729 
L 163.437382 179.446598 
L 164.086691 271.228232 
L 164.736 179.30738 
L 165.385309 271.089292 
L 166.034618 179.168718 
L 166.683927 270.950908 
L 167.333236 179.030611 
L 167.982545 270.813077 
L 168.631855 178.893055 
L 169.281164 270.675796 
L 169.930473 178.756049 
L 170.579782 270.539064 
L 171.229091 178.61959 
L 171.8784 270.402878 
L 172.527709 178.483677 
L 173.177018 270.267237 
L 173.826327 178.348307 
L 174.475636 270.132137 
L 175.124945 178.213477 
L 175.774255 269.997577 
L 176.423564 178.079187 
L 177.072873 269.863556 
L 177.722182 177.945433 
L 178.371491 269.730069 
L 179.0208 177.812214 
L 179.670109 269.597116 
L 180.319418 177.679527 
L 180.968727 269.464695 
L 181.618036 177.54737 
L 182.267345 269.332802 
L 182.916655 177.415741 
L 183.565964 269.201437 
L 184.215273 177.284638 
L 184.864582 269.070596 
L 185.513891 177.154059 
L 186.1632 268.940278 
L 186.812509 177.024002 
L 187.461818 268.810481 
L 188.111127 176.894465 
L 188.760436 268.681203 
L 189.409745 176.765445 
L 190.059055 268.552441 
L 190.708364 176.636941 
L 191.357673 268.424194 
L 192.006982 176.508951 
L 192.656291 268.29646 
L 193.3056 176.381471 
L 193.954909 268.169235 
L 194.604218 176.254501 
L 195.253527 268.042519 
L 195.902836 176.128039 
L 196.552145 267.91631 
L 197.201455 176.002082 
L 197.850764 267.790605 
L 198.500073 175.876628 
L 199.149382 267.665402 
L 199.798691 175.751676 
L 200.448 267.540699 
L 201.097309 175.627223 
L 201.746618 267.416495 
L 202.395927 175.503267 
L 203.045236 267.292787 
L 203.694545 175.379806 
L 204.343855 267.169574 
L 204.993164 175.256839 
L 205.642473 267.046852 
L 206.291782 175.134363 
L 206.941091 266.924622 
L 207.5904 175.012377 
L 208.239709 266.802879 
L 208.889018 174.890878 
L 209.538327 266.681623 
L 210.187636 174.769865 
L 210.836945 266.560852 
L 211.486255 174.649335 
L 212.135564 266.440563 
L 212.784873 174.529287 
L 213.434182 266.320755 
L 214.083491 174.409718 
L 214.7328 266.201426 
L 215.382109 174.290628 
L 216.031418 266.082573 
L 216.680727 174.172013 
L 217.330036 265.964196 
L 217.979345 174.053872 
L 218.628655 265.846291 
L 219.277964 173.936203 
L 219.927273 265.728858 
L 220.576582 173.819005 
L 221.225891 265.611894 
L 221.8752 173.702275 
L 222.524509 265.495397 
L 223.173818 173.586011 
L 223.823127 265.379366 
L 224.472436 173.470212 
L 225.121745 265.263798 
L 225.771055 173.354875 
L 226.420364 265.148692 
L 227.069673 173.24 
L 227.718982 265.034047 
L 228.368291 173.125583 
L 229.0176 264.919859 
L 229.666909 173.011624 
L 230.316218 264.806128 
L 230.965527 172.89812 
L 231.614836 264.692851 
L 232.264145 172.78507 
L 232.913455 264.580027 
L 233.562764 172.672471 
L 234.212073 264.467653 
L 234.861382 172.560323 
L 235.510691 264.355729 
L 236.16 172.448622 
L 236.809309 264.244252 
L 237.458618 172.337368 
L 238.107927 264.13322 
L 238.757236 172.226558 
L 239.406545 264.022632 
L 240.055855 172.116192 
L 240.705164 263.912486 
L 241.354473 172.006266 
L 242.003782 263.80278 
L 242.653091 171.896779 
L 243.3024 263.693513 
L 243.951709 171.78773 
L 244.601018 263.584682 
L 245.250327 171.679117 
L 245.899636 263.476286 
L 246.548945 171.570938 
L 247.198255 263.368323 
L 247.847564 171.463191 
L 248.496873 263.260792 
L 249.146182 171.355875 
L 249.795491 263.15369 
L 250.4448 171.248987 
L 251.094109 263.047016 
L 251.743418 171.142527 
L 252.392727 262.940769 
L 253.042036 171.036492 
L 253.691345 262.834946 
L 254.340655 170.930881 
L 254.989964 262.729546 
L 255.639273 170.825691 
L 256.288582 262.624567 
L 256.937891 170.720922 
L 257.5872 262.520007 
L 258.236509 170.616572 
L 258.885818 262.415866 
L 259.535127 170.512639 
L 260.184436 262.312141 
L 260.833745 170.409121 
L 261.483055 262.20883 
L 262.132364 170.306017 
L 262.781673 262.105932 
L 263.430982 170.203324 
L 264.080291 262.003445 
L 264.7296 170.101042 
L 265.378909 261.901367 
L 266.028218 169.999169 
L 266.677527 261.799698 
L 267.326836 169.897703 
L 267.976145 261.698435 
L 268.625455 169.796642 
L 269.274764 261.597576 
L 269.924073 169.695986 
L 270.573382 261.497121 
L 271.222691 169.595731 
L 271.872 261.397066 
L 272.521309 169.495877 
L 273.170618 261.297412 
L 273.819927 169.396422 
L 274.469236 261.198156 
L 275.118545 169.297364 
L 275.767855 261.099297 
L 276.417164 169.198703 
L 277.066473 261.000832 
L 277.715782 169.100435 
L 278.365091 260.902761 
L 279.0144 169.002561 
L 279.663709 260.805082 
L 280.313018 168.905077 
L 280.962327 260.707794 
L 281.611636 168.807983 
L 282.260945 260.610894 
L 282.910255 168.711277 
L 283.559564 260.514381 
L 284.208873 168.614957 
L 284.858182 260.418254 
L 285.507491 168.519022 
L 286.1568 260.322511 
L 286.806109 168.423471 
L 287.455418 260.227151 
L 288.104727 168.328301 
L 288.754036 260.132171 
L 289.403345 168.233512 
L 290.052655 260.037572 
L 290.701964 168.139101 
L 291.351273 259.94335 
L 292.000582 168.045068 
L 292.649891 259.849505 
L 293.2992 167.95141 
L 293.948509 259.756034 
L 294.597818 167.858127 
L 295.247127 259.662938 
L 295.896436 167.765216 
L 296.545745 259.570213 
L 297.195055 167.672677 
L 297.844364 259.477859 
L 298.493673 167.580508 
L 299.142982 259.385874 
L 299.792291 167.488707 
L 300.4416 259.294256 
L 301.090909 167.397272 
L 301.740218 259.203005 
L 302.389527 167.306203 
L 303.038836 259.112118 
L 303.688145 167.215498 
L 304.337455 259.021594 
L 304.986764 167.125156 
L 305.636073 258.931432 
L 306.285382 167.035174 
L 306.934691 258.841631 
L 307.584 166.945552 
L 308.233309 258.752188 
L 308.882618 166.856288 
L 309.531927 258.663103 
L 310.181236 166.767381 
L 310.830545 258.574373 
L 311.479855 166.678829 
L 312.129164 258.485999 
L 312.778473 166.590631 
L 313.427782 258.397977 
L 314.077091 166.502786 
L 314.7264 258.310307 
L 315.375709 166.415291 
L 316.025018 258.222987 
L 316.674327 166.328146 
L 317.323636 258.136017 
L 317.972945 166.241349 
L 318.622255 258.049394 
L 319.271564 166.154899 
L 319.920873 257.963117 
L 320.570182 166.068795 
L 321.219491 257.877184 
L 321.8688 165.983035 
L 322.518109 257.791596 
L 323.167418 165.897617 
L 323.816727 257.706349 
L 324.466036 165.812541 
L 325.115345 257.621443 
L 325.764655 165.727804 
L 326.413964 257.536876 
L 327.063273 165.643407 
L 327.712582 257.452647 
L 328.361891 165.559346 
L 329.0112 257.368754 
L 329.660509 165.475621 
L 330.309818 257.285197 
L 330.959127 165.392231 
L 331.608436 257.201974 
L 332.257745 165.309175 
L 332.907055 257.119083 
L 333.556364 165.22645 
L 334.205673 257.036524 
L 334.854982 165.144055 
L 335.504291 256.954294 
L 336.1536 165.06199 
L 336.802909 256.872393 
L 337.452218 164.980253 
L 338.101527 256.79082 
L 338.750836 164.898843 
L 339.400145 256.709572 
L 340.049455 164.817757 
L 340.698764 256.628649 
L 341.348073 164.736996 
L 341.997382 256.548049 
L 342.646691 164.656558 
L 343.296 256.467772 
L 343.945309 164.576441 
L 344.594618 256.387815 
L 345.243927 164.496644 
L 345.893236 256.308177 
L 346.542545 164.417166 
L 347.191855 256.228858 
L 347.841164 164.338005 
L 348.490473 256.149856 
L 349.139782 164.259161 
L 349.789091 256.07117 
L 350.4384 164.180632 
L 351.087709 255.992798 
L 351.737018 164.102417 
L 352.386327 255.914739 
L 353.035636 164.024514 
L 353.684945 255.836992 
L 354.334255 163.946923 
L 354.983564 255.759556 
L 355.632873 163.869641 
L 356.282182 255.682429 
L 356.931491 163.792669 
L 357.5808 255.605611 
L 358.230109 163.716004 
L 358.879418 255.529099 
L 359.528727 163.639645 
L 360.178036 255.452893 
L 360.827345 163.563592 
L 361.476655 255.376992 
L 362.125964 163.487842 
L 362.775273 255.301394 
L 363.424582 163.412395 
L 364.073891 255.226098 
L 364.7232 163.33725 
L 365.372509 255.151103 
L 366.021818 163.262405 
L 366.671127 255.076407 
L 367.320436 163.187859 
L 367.969745 255.00201 
L 368.619055 163.113611 
L 369.268364 254.927911 
L 369.917673 163.039659 
L 370.566982 254.854107 
L 371.216291 162.966004 
L 371.8656 254.780598 
L 372.514909 162.892642 
L 373.164218 254.707384 
L 373.813527 162.819573 
L 374.462836 254.634461 
L 375.112145 162.746797 
L 375.761455 254.56183 
L 376.410764 162.674311 
L 377.060073 254.48949 
L 377.709382 162.602115 
L 378.358691 254.417438 
L 379.008 162.530208 
L 379.657309 254.345674 
L 380.306618 162.458588 
L 380.955927 254.274198 
L 381.605236 162.387254 
L 382.254545 254.203006 
L 382.903855 162.316205 
L 383.553164 254.132099 
L 384.202473 162.24544 
L 384.851782 254.061476 
L 385.501091 162.174958 
L 386.1504 253.991135 
L 386.799709 162.104757 
L 387.449018 253.921075 
L 388.098327 162.034837 
L 388.747636 253.851294 
L 389.396945 161.965196 
L 390.046255 253.781793 
L 390.695564 161.895834 
L 391.344873 253.712569 
L 391.994182 161.826749 
L 392.643491 253.643622 
L 393.2928 161.75794 
L 393.942109 253.574951 
L 394.591418 161.689405 
L 395.240727 253.506554 
L 395.890036 161.621145 
L 396.539345 253.43843 
L 397.188655 161.553158 
L 397.837964 253.370578 
L 398.487273 161.485442 
L 398.487273 161.485442 
" clip-path="url(#p225b7d7940)" style="fill: none; stroke-dasharray: 5.55,2.4; stroke-dashoffset: 0; stroke: #ff0000; stroke-width: 1.5"/>
   </g>
   <g id="patch_3">
    <path d="M 57.6 293.76 
L 57.6 41.472 
" style="fill: none; stroke: #000000; stroke-width: 0.8; stroke-linejoin: miter; stroke-linecap: square"/>
   </g>
   <g id="patch_4">
    <path d="M 414.72 293.76 
L 414.72 41.472 
" style="fill: none; stroke: #000000; stroke-width: 0.8; stroke-linejoin: miter; stroke-linecap: square"/>
   </g>
   <g id="patch_5">
    <path d="M 57.6 293.76 
L 414.72 293.76 
" style="fill: none; stroke: #000000; stroke-width: 0.8; stroke-linejoin: miter; stroke-linecap: square"/>
   </g>
   <g id="patch_6">
    <path d="M 57.6 41.472 
L 414.72 41.472 
" style="fill: none; stroke: #000000; stroke-width: 0.8; stroke-linejoin: miter; stroke-linecap: square"/>
   </g>
   <g id="text_15">
    <!-- Explicit Euler Scheme, $\Delta t =$ 0.002 -->
    <g transform="translate(100.24 21.472)scale(0.16 -0.16)">
     <defs>
      <path id="DejaVuSans-45" d="M 628 4666 
L 3578 4666 
L 3578 4134 
L 1259 4134 
L 1259 2753 
L 3481 2753 
L 3481 2222 
L 1259 2222 
L 1259 531 
L 3634 531 
L 3634 0 
L 628 0 
L 628 4666 
z
" transform="scale(0.015625)"/>
      <path id="DejaVuSans-78" d="M 3513 3500 
L 2247 1797 
L 3578 0 
L 2900 0 
L 1881 1375 
L 863 0 
L 184 0 
L 1544 1831 
L 300 3500 
L 978 3500 
L 1906 2253 
L 2834 3500 
L 3513 3500 
z
" transform="scale(0.015625)"/>
      <path id="DejaVuSans-70" d="M 1159 525 
L 1159 -1331 
L 581 -1331 
L 581 3500 
L 1159 3500 
L 1159 2969 
Q 1341 3281 1617 3432 
Q 1894 3584 2278 3584 
Q 2916 3584 3314 3078 
Q 3713 2572 3713 1747 
Q 3713 922 3314 415 
Q 2916 -91 2278 -91 
Q 1894 -91 1617 61 
Q 1341 213 1159 525 
z
M 3116 1747 
Q 3116 2381 2855 2742 
Q 2594 3103 2138 3103 
Q 1681 3103 1420 2742 
Q 1159 2381 1159 1747 
Q 1159 1113 1420 752 
Q 1681 391 2138 391 
Q 2594 391 2855 752 
Q 3116 1113 3116 1747 
z
" transform="scale(0.015625)"/>
      <path id="DejaVuSans-6c" d="M 603 4863 
L 1178 4863 
L 1178 0 
L 603 0 
L 603 4863 
z
" transform="scale(0.015625)"/>
      <path id="DejaVuSans-63" d="M 3122 3366 
L 3122 2828 
Q 2878 2963 2633 3030 
Q 2388 3097 2138 3097 
Q 1578 3097 1268 2742 
Q 959 2388 959 1747 
Q 959 1106 1268 751 
Q 1578 397 2138 397 
Q 2388 397 2633 464 
Q 2878 531 3122 666 
L 3122 134 
Q 2881 22 2623 -34 
Q 2366 -91 2075 -91 
Q 1284 -91 818 406 
Q 353 903 353 1747 
Q 353 2603 823 3093 
Q 1294 3584 2113 3584 
Q 2378 3584 2631 3529 
Q 2884 3475 3122 3366 
z
" transform="scale(0.015625)"/>
      <path id="DejaVuSans-65" d="M 3597 1894 
L 3597 1613 
L 953 1613 
Q 991 1019 1311 708 
Q 1631 397 2203 397 
Q 2534 397 2845 478 
Q 3156 559 3463 722 
L 3463 178 
Q 3153 47 2828 -22 
Q 2503 -91 2169 -91 
Q 1331 -91 842 396 
Q 353 884 353 1716 
Q 353 2575 817 3079 
Q 1281 3584 2069 3584 
Q 2775 3584 3186 3129 
Q 3597 2675 3597 1894 
z
M 3022 2063 
Q 3016 2534 2758 2815 
Q 2500 3097 2075 3097 
Q 1594 3097 1305 2825 
Q 1016 2553 972 2059 
L 3022 2063 
z
" transform="scale(0.015625)"/>
      <path id="DejaVuSans-53" d="M 3425 4513 
L 3425 3897 
Q 3066 4069 2747 4153 
Q 2428 4238 2131 4238 
Q 1616 4238 1336 4038 
Q 1056 3838 1056 3469 
Q 1056 3159 1242 3001 
Q 1428 2844 1947 2747 
L 2328 2669 
Q 3034 2534 3370 2195 
Q 3706 1856 3706 1288 
Q 3706 609 3251 259 
Q 2797 -91 1919 -91 
Q 1588 -91 1214 -16 
Q 841 59 441 206 
L 441 856 
Q 825 641 1194 531 
Q 1563 422 1919 422 
Q 2459 422 2753 634 
Q 3047 847 3047 1241 
Q 3047 1584 2836 1778 
Q 2625 1972 2144 2069 
L 1759 2144 
Q 1053 2284 737 2584 
Q 422 2884 422 3419 
Q 422 4038 858 4394 
Q 1294 4750 2059 4750 
Q 2388 4750 2728 4690 
Q 3069 4631 3425 4513 
z
" transform="scale(0.015625)"/>
      <path id="DejaVuSans-68" d="M 3513 2113 
L 3513 0 
L 2938 0 
L 2938 2094 
Q 2938 2591 2744 2837 
Q 2550 3084 2163 3084 
Q 1697 3084 1428 2787 
Q 1159 2491 1159 1978 
L 1159 0 
L 581 0 
L 581 4863 
L 1159 4863 
L 1159 2956 
Q 1366 3272 1645 3428 
Q 1925 3584 2291 3584 
Q 2894 3584 3203 3211 
Q 3513 2838 3513 2113 
z
" transform="scale(0.015625)"/>
      <path id="DejaVuSans-6d" d="M 3328 2828 
Q 3544 3216 3844 3400 
Q 4144 3584 4550 3584 
Q 5097 3584 5394 3201 
Q 5691 2819 5691 2113 
L 5691 0 
L 5113 0 
L 5113 2094 
Q 5113 2597 4934 2840 
Q 4756 3084 4391 3084 
Q 3944 3084 3684 2787 
Q 3425 2491 3425 1978 
L 3425 0 
L 2847 0 
L 2847 2094 
Q 2847 2600 2669 2842 
Q 2491 3084 2119 3084 
Q 1678 3084 1418 2786 
Q 1159 2488 1159 1978 
L 1159 0 
L 581 0 
L 581 3500 
L 1159 3500 
L 1159 2956 
Q 1356 3278 1631 3431 
Q 1906 3584 2284 3584 
Q 2666 3584 2933 3390 
Q 3200 3197 3328 2828 
z
" transform="scale(0.015625)"/>
      <path id="DejaVuSans-394" d="M 2188 4044 
L 906 525 
L 3472 525 
L 2188 4044 
z
M 50 0 
L 1831 4666 
L 2547 4666 
L 4325 0 
L 50 0 
z
" transform="scale(0.015625)"/>
      <path id="DejaVuSans-Oblique-74" d="M 2706 3500 
L 2619 3053 
L 1472 3053 
L 1100 1153 
Q 1081 1047 1072 975 
Q 1063 903 1063 863 
Q 1063 663 1183 572 
Q 1303 481 1569 481 
L 2150 481 
L 2053 0 
L 1503 0 
Q 991 0 739 200 
Q 488 400 488 806 
Q 488 878 497 964 
Q 506 1050 525 1153 
L 897 3053 
L 409 3053 
L 500 3500 
L 978 3500 
L 1172 4494 
L 1747 4494 
L 1556 3500 
L 2706 3500 
z
" transform="scale(0.015625)"/>
      <path id="DejaVuSans-3d" d="M 678 2906 
L 4684 2906 
L 4684 2381 
L 678 2381 
L 678 2906 
z
M 678 1631 
L 4684 1631 
L 4684 1100 
L 678 1100 
L 678 1631 
z
" transform="scale(0.015625)"/>
     </defs>
     <use xlink:href="#DejaVuSans-45" transform="translate(0 0.015625)"/>
     <use xlink:href="#DejaVuSans-78" transform="translate(63.183594 0.015625)"/>
     <use xlink:href="#DejaVuSans-70" transform="translate(122.363281 0.015625)"/>
     <use xlink:href="#DejaVuSans-6c" transform="translate(185.839844 0.015625)"/>
     <use xlink:href="#DejaVuSans-69" transform="translate(213.623047 0.015625)"/>
     <use xlink:href="#DejaVuSans-63" transform="translate(241.40625 0.015625)"/>
     <use xlink:href="#DejaVuSans-69" transform="translate(296.386719 0.015625)"/>
     <use xlink:href="#DejaVuSans-74" transform="translate(324.169922 0.015625)"/>
     <use xlink:href="#DejaVuSans-20" transform="translate(363.378906 0.015625)"/>
     <use xlink:href="#DejaVuSans-45" transform="translate(395.166016 0.015625)"/>
     <use xlink:href="#DejaVuSans-75" transform="translate(458.349609 0.015625)"/>
     <use xlink:href="#DejaVuSans-6c" transform="translate(521.728516 0.015625)"/>
     <use xlink:href="#DejaVuSans-65" transform="translate(549.511719 0.015625)"/>
     <use xlink:href="#DejaVuSans-72" transform="translate(611.035156 0.015625)"/>
     <use xlink:href="#DejaVuSans-20" transform="translate(652.148438 0.015625)"/>
     <use xlink:href="#DejaVuSans-53" transform="translate(683.935547 0.015625)"/>
     <use xlink:href="#DejaVuSans-63" transform="translate(747.412109 0.015625)"/>
     <use xlink:href="#DejaVuSans-68" transform="translate(802.392578 0.015625)"/>
     <use xlink:href="#DejaVuSans-65" transform="translate(865.771484 0.015625)"/>
     <use xlink:href="#DejaVuSans-6d" transform="translate(927.294922 0.015625)"/>
     <use xlink:href="#DejaVuSans-65" transform="translate(1024.707031 0.015625)"/>
     <use xlink:href="#DejaVuSans-2c" transform="translate(1086.230469 0.015625)"/>
     <use xlink:href="#DejaVuSans-20" transform="translate(1118.017578 0.015625)"/>
     <use xlink:href="#DejaVuSans-394" transform="translate(1149.804688 0.015625)"/>
     <use xlink:href="#DejaVuSans-Oblique-74" transform="translate(1218.212891 0.015625)"/>
     <use xlink:href="#DejaVuSans-3d" transform="translate(1276.904297 0.015625)"/>
     <use xlink:href="#DejaVuSans-20" transform="translate(1380.175781 0.015625)"/>
     <use xlink:href="#DejaVuSans-30" transform="translate(1411.962891 0.015625)"/>
     <use xlink:href="#DejaVuSans-2e" transform="translate(1475.585938 0.015625)"/>
     <use xlink:href="#DejaVuSans-30" transform="translate(1507.373047 0.015625)"/>
     <use xlink:href="#DejaVuSans-30" transform="translate(1570.996094 0.015625)"/>
     <use xlink:href="#DejaVuSans-32" transform="translate(1634.619141 0.015625)"/>
    </g>
   </g>
   <g id="legend_1">
    <g id="patch_7">
     <path d="M 319.3 128.303875 
L 405.62 128.303875 
Q 408.22 128.303875 408.22 125.703875 
L 408.22 50.572 
Q 408.22 47.972 405.62 47.972 
L 319.3 47.972 
Q 316.7 47.972 316.7 50.572 
L 316.7 125.703875 
Q 316.7 128.303875 319.3 128.303875 
z
" style="fill: #ffffff; opacity: 0.8; stroke: #cccccc; stroke-linejoin: miter"/>
    </g>
    <g id="line2d_17">
     <path d="M 321.9 58.499969 
L 334.9 58.499969 
L 347.9 58.499969 
" style="fill: none; stroke: #6495ed; stroke-width: 3; stroke-linecap: square"/>
    </g>
    <g id="text_16">
     <!-- true $y_1$ -->
     <g transform="translate(358.3 63.049969)scale(0.13 -0.13)">
      <use xlink:href="#DejaVuSans-74" transform="translate(0 0.78125)"/>
      <use xlink:href="#DejaVuSans-72" transform="translate(39.208984 0.78125)"/>
      <use xlink:href="#DejaVuSans-75" transform="translate(80.322266 0.78125)"/>
      <use xlink:href="#DejaVuSans-65" transform="translate(143.701172 0.78125)"/>
      <use xlink:href="#DejaVuSans-20" transform="translate(205.224609 0.78125)"/>
      <use xlink:href="#DejaVuSans-Oblique-79" transform="translate(237.011719 0.78125)"/>
      <use xlink:href="#DejaVuSans-31" transform="translate(296.191406 -15.625)scale(0.7)"/>
     </g>
    </g>
    <g id="line2d_18">
     <path d="M 321.9 77.607938 
L 334.9 77.607938 
L 347.9 77.607938 
" style="fill: none; stroke: #ffa500; stroke-width: 3; stroke-linecap: square"/>
    </g>
    <g id="text_17">
     <!-- true $y_1$ -->
     <g transform="translate(358.3 82.157938)scale(0.13 -0.13)">
      <use xlink:href="#DejaVuSans-74" transform="translate(0 0.78125)"/>
      <use xlink:href="#DejaVuSans-72" transform="translate(39.208984 0.78125)"/>
      <use xlink:href="#DejaVuSans-75" transform="translate(80.322266 0.78125)"/>
      <use xlink:href="#DejaVuSans-65" transform="translate(143.701172 0.78125)"/>
      <use xlink:href="#DejaVuSans-20" transform="translate(205.224609 0.78125)"/>
      <use xlink:href="#DejaVuSans-Oblique-79" transform="translate(237.011719 0.78125)"/>
      <use xlink:href="#DejaVuSans-31" transform="translate(296.191406 -15.625)scale(0.7)"/>
     </g>
    </g>
    <g id="line2d_19">
     <path d="M 321.9 96.715906 
L 334.9 96.715906 
L 347.9 96.715906 
" style="fill: none; stroke-dasharray: 5.55,2.4; stroke-dashoffset: 0; stroke: #000080; stroke-width: 1.5"/>
    </g>
    <g id="text_18">
     <!-- $y_1$ -->
     <g transform="translate(358.3 101.265906)scale(0.13 -0.13)">
      <use xlink:href="#DejaVuSans-Oblique-79" transform="translate(0 0.3125)"/>
      <use xlink:href="#DejaVuSans-31" transform="translate(59.179688 -16.09375)scale(0.7)"/>
     </g>
    </g>
    <g id="line2d_20">
     <path d="M 321.9 115.823875 
L 334.9 115.823875 
L 347.9 115.823875 
" style="fill: none; stroke-dasharray: 5.55,2.4; stroke-dashoffset: 0; stroke: #ff0000; stroke-width: 1.5"/>
    </g>
    <g id="text_19">
     <!-- $y_2$ -->
     <g transform="translate(358.3 120.373875)scale(0.13 -0.13)">
      <use xlink:href="#DejaVuSans-Oblique-79" transform="translate(0 0.3125)"/>
      <use xlink:href="#DejaVuSans-32" transform="translate(59.179688 -16.09375)scale(0.7)"/>
     </g>
    </g>
   </g>
  </g>
 </g>
 <defs>
  <clipPath id="p225b7d7940">
   <rect x="57.6" y="41.472" width="357.12" height="252.288"/>
  </clipPath>
 </defs>
</svg>
