<?xml version="1.0" encoding="utf-8" standalone="no"?>
<!DOCTYPE svg PUBLIC "-//W3C//DTD SVG 1.1//EN"
  "http://www.w3.org/Graphics/SVG/1.1/DTD/svg11.dtd">
<svg xmlns:xlink="http://www.w3.org/1999/xlink" width="460.8pt" height="345.6pt" viewBox="0 0 460.8 345.6" xmlns="http://www.w3.org/2000/svg" version="1.1">
 <metadata>
  <rdf:RDF xmlns:dc="http://purl.org/dc/elements/1.1/" xmlns:cc="http://creativecommons.org/ns#" xmlns:rdf="http://www.w3.org/1999/02/22-rdf-syntax-ns#">
   <cc:Work>
    <dc:type rdf:resource="http://purl.org/dc/dcmitype/StillImage"/>
    <dc:date>2023-05-05T12:11:27.692509</dc:date>
    <dc:format>image/svg+xml</dc:format>
    <dc:creator>
     <cc:Agent>
      <dc:title>Matplotlib v3.5.1, https://matplotlib.org/</dc:title>
     </cc:Agent>
    </dc:creator>
   </cc:Work>
  </rdf:RDF>
 </metadata>
 <defs>
  <style type="text/css">*{stroke-linejoin: round; stroke-linecap: butt}</style>
 </defs>
 <g id="figure_1">
  <g id="patch_1">
   <path d="M 0 345.6 
L 460.8 345.6 
L 460.8 0 
L 0 0 
z
" style="fill: #ffffff"/>
  </g>
  <g id="axes_1">
   <g id="patch_2">
    <path d="M 57.6 293.76 
L 414.72 293.76 
L 414.72 41.472 
L 57.6 41.472 
z
" style="fill: #ffffff"/>
   </g>
   <g id="matplotlib.axis_1">
    <g id="xtick_1">
     <g id="line2d_1">
      <defs>
       <path id="m238acc330b" d="M 0 0 
L 0 3.5 
" style="stroke: #000000; stroke-width: 0.8"/>
      </defs>
      <g>
       <use xlink:href="#m238acc330b" x="73.832727" y="293.76" style="stroke: #000000; stroke-width: 0.8"/>
      </g>
     </g>
     <g id="text_1">
      <text style="font: 13px 'sans-serif'; text-anchor: middle" x="73.832727" y="310.637969" transform="rotate(-0, 73.832727, 310.637969)">0.0</text>
     </g>
    </g>
    <g id="xtick_2">
     <g id="line2d_2">
      <g>
       <use xlink:href="#m238acc330b" x="138.763636" y="293.76" style="stroke: #000000; stroke-width: 0.8"/>
      </g>
     </g>
     <g id="text_2">
      <text style="font: 13px 'sans-serif'; text-anchor: middle" x="138.763636" y="310.637969" transform="rotate(-0, 138.763636, 310.637969)">0.2</text>
     </g>
    </g>
    <g id="xtick_3">
     <g id="line2d_3">
      <g>
       <use xlink:href="#m238acc330b" x="203.694545" y="293.76" style="stroke: #000000; stroke-width: 0.8"/>
      </g>
     </g>
     <g id="text_3">
      <text style="font: 13px 'sans-serif'; text-anchor: middle" x="203.694545" y="310.637969" transform="rotate(-0, 203.694545, 310.637969)">0.4</text>
     </g>
    </g>
    <g id="xtick_4">
     <g id="line2d_4">
      <g>
       <use xlink:href="#m238acc330b" x="268.625455" y="293.76" style="stroke: #000000; stroke-width: 0.8"/>
      </g>
     </g>
     <g id="text_4">
      <text style="font: 13px 'sans-serif'; text-anchor: middle" x="268.625455" y="310.637969" transform="rotate(-0, 268.625455, 310.637969)">0.6</text>
     </g>
    </g>
    <g id="xtick_5">
     <g id="line2d_5">
      <g>
       <use xlink:href="#m238acc330b" x="333.556364" y="293.76" style="stroke: #000000; stroke-width: 0.8"/>
      </g>
     </g>
     <g id="text_5">
      <text style="font: 13px 'sans-serif'; text-anchor: middle" x="333.556364" y="310.637969" transform="rotate(-0, 333.556364, 310.637969)">0.8</text>
     </g>
    </g>
    <g id="xtick_6">
     <g id="line2d_6">
      <g>
       <use xlink:href="#m238acc330b" x="398.487273" y="293.76" style="stroke: #000000; stroke-width: 0.8"/>
      </g>
     </g>
     <g id="text_6">
      <text style="font: 13px 'sans-serif'; text-anchor: middle" x="398.487273" y="310.637969" transform="rotate(-0, 398.487273, 310.637969)">1.0</text>
     </g>
    </g>
    <g id="text_7">
     <text style="font: 16px 'sans-serif'; text-anchor: middle" x="236.16" y="329.499062" transform="rotate(-0, 236.16, 329.499062)">t in arbitrary units</text>
    </g>
   </g>
   <g id="matplotlib.axis_2">
    <g id="ytick_1">
     <g id="line2d_7">
      <defs>
       <path id="mff082f2529" d="M 0 0 
L -3.5 0 
" style="stroke: #000000; stroke-width: 0.8"/>
      </defs>
      <g>
       <use xlink:href="#mff082f2529" x="57.6" y="283.064237" style="stroke: #000000; stroke-width: 0.8"/>
      </g>
     </g>
     <g id="text_8">
      <text style="font: 13px 'sans-serif'; text-anchor: end" x="50.6" y="288.003222" transform="rotate(-0, 50.6, 288.003222)">−1.0</text>
     </g>
    </g>
    <g id="ytick_2">
     <g id="line2d_8">
      <g>
       <use xlink:href="#mff082f2529" x="57.6" y="244.45343" style="stroke: #000000; stroke-width: 0.8"/>
      </g>
     </g>
     <g id="text_9">
      <text style="font: 13px 'sans-serif'; text-anchor: end" x="50.6" y="249.392415" transform="rotate(-0, 50.6, 249.392415)">−0.5</text>
     </g>
    </g>
    <g id="ytick_3">
     <g id="line2d_9">
      <g>
       <use xlink:href="#mff082f2529" x="57.6" y="205.842623" style="stroke: #000000; stroke-width: 0.8"/>
      </g>
     </g>
     <g id="text_10">
      <text style="font: 13px 'sans-serif'; text-anchor: end" x="50.6" y="210.781608" transform="rotate(-0, 50.6, 210.781608)">0.0</text>
     </g>
    </g>
    <g id="ytick_4">
     <g id="line2d_10">
      <g>
       <use xlink:href="#mff082f2529" x="57.6" y="167.231816" style="stroke: #000000; stroke-width: 0.8"/>
      </g>
     </g>
     <g id="text_11">
      <text style="font: 13px 'sans-serif'; text-anchor: end" x="50.6" y="172.1708" transform="rotate(-0, 50.6, 172.1708)">0.5</text>
     </g>
    </g>
    <g id="ytick_5">
     <g id="line2d_11">
      <g>
       <use xlink:href="#mff082f2529" x="57.6" y="128.621009" style="stroke: #000000; stroke-width: 0.8"/>
      </g>
     </g>
     <g id="text_12">
      <text style="font: 13px 'sans-serif'; text-anchor: end" x="50.6" y="133.559993" transform="rotate(-0, 50.6, 133.559993)">1.0</text>
     </g>
    </g>
    <g id="ytick_6">
     <g id="line2d_12">
      <g>
       <use xlink:href="#mff082f2529" x="57.6" y="90.010202" style="stroke: #000000; stroke-width: 0.8"/>
      </g>
     </g>
     <g id="text_13">
      <text style="font: 13px 'sans-serif'; text-anchor: end" x="50.6" y="94.949186" transform="rotate(-0, 50.6, 94.949186)">1.5</text>
     </g>
    </g>
    <g id="ytick_7">
     <g id="line2d_13">
      <g>
       <use xlink:href="#mff082f2529" x="57.6" y="51.399395" style="stroke: #000000; stroke-width: 0.8"/>
      </g>
     </g>
     <g id="text_14">
      <text style="font: 13px 'sans-serif'; text-anchor: end" x="50.6" y="56.338379" transform="rotate(-0, 50.6, 56.338379)">2.0</text>
     </g>
    </g>
    <g id="text_15">
     <!-- $y_1, y_2$ -->
     <g transform="translate(11.672344 188.816)rotate(-90)">
      <text>
       <tspan style="font: oblique 16px 'DejaVu Sans'" x="0 25.235156" y="-0.25">yy</tspan>
       <tspan style="font: 11.2px 'DejaVu Sans'" x="9.46875 34.703906" y="2.375">12</tspan>
       <tspan style="font: 16px 'DejaVu Sans'" x="17.032031" y="-0.25">,</tspan>
      </text>
     </g>
    </g>
   </g>
   <g id="line2d_14">
    <path d="M 73.832727 128.621009 
L 77.079273 52.939636 
L 80.325818 54.457576 
L 83.572364 55.963882 
L 86.818909 57.4552 
L 90.065455 58.93168 
L 93.312 60.393468 
L 96.558545 61.840711 
L 99.805091 63.273554 
L 103.051636 64.69214 
L 106.298182 66.096611 
L 109.544727 67.487107 
L 112.791273 68.863768 
L 116.037818 70.22673 
L 119.284364 71.576131 
L 122.530909 72.912105 
L 125.777455 74.234785 
L 129.024 75.544305 
L 132.270545 76.840795 
L 135.517091 78.124385 
L 138.763636 79.395202 
L 142.010182 80.653375 
L 145.256727 81.899029 
L 148.503273 83.132288 
L 151.749818 84.353277 
L 154.996364 85.562116 
L 158.242909 86.758927 
L 161.489455 87.94383 
L 164.736 89.116942 
L 167.982545 90.278382 
L 171.229091 91.428265 
L 174.475636 92.566707 
L 177.722182 93.693822 
L 180.968727 94.809721 
L 184.215273 95.914517 
L 187.461818 97.00832 
L 190.708364 98.091239 
L 193.954909 99.163383 
L 197.201455 100.224859 
L 200.448 101.275774 
L 203.694545 102.316231 
L 206.941091 103.346336 
L 210.187636 104.366191 
L 213.434182 105.375898 
L 216.680727 106.375559 
L 219.927273 107.365273 
L 223.173818 108.345139 
L 226.420364 109.315255 
L 229.666909 110.275718 
L 232.913455 111.226625 
L 236.16 112.16807 
L 239.406545 113.100147 
L 242.653091 114.02295 
L 245.899636 114.936571 
L 249.146182 115.841102 
L 252.392727 116.736632 
L 255.639273 117.623251 
L 258.885818 118.501049 
L 262.132364 119.370112 
L 265.378909 120.230528 
L 268.625455 121.082382 
L 271.872 121.925761 
L 275.118545 122.760747 
L 278.365091 123.587426 
L 281.611636 124.405879 
L 284.858182 125.216188 
L 288.104727 126.018434 
L 291.351273 126.812698 
L 294.597818 127.599059 
L 297.844364 128.377596 
L 301.090909 129.148386 
L 304.337455 129.911506 
L 307.584 130.667033 
L 310.830545 131.415043 
L 314.077091 132.15561 
L 317.323636 132.888808 
L 320.570182 133.61471 
L 323.816727 134.33339 
L 327.063273 135.044919 
L 330.309818 135.749368 
L 333.556364 136.446807 
L 336.802909 137.137307 
L 340.049455 137.820937 
L 343.296 138.497764 
L 346.542545 139.167856 
L 349.789091 139.831281 
L 353.035636 140.488105 
L 356.282182 141.138393 
L 359.528727 141.782211 
L 362.775273 142.419623 
L 366.021818 143.050692 
L 369.268364 143.675482 
L 372.514909 144.294056 
L 375.761455 144.906474 
L 379.008 145.512799 
L 382.254545 146.113091 
L 385.501091 146.70741 
L 388.747636 147.295815 
L 391.994182 147.878365 
L 395.240727 148.455119 
L 398.487273 149.026135 
" clip-path="url(#p4baac03fc4)" style="fill: none; stroke: #6495ed; stroke-width: 3; stroke-linecap: square"/>
   </g>
   <g id="line2d_15">
    <path d="M 73.832727 205.842623 
L 77.079273 282.292364 
L 80.325818 281.535147 
L 83.572364 280.781994 
L 86.818909 280.036335 
L 90.065455 279.298095 
L 93.312 278.567201 
L 96.558545 277.843579 
L 99.805091 277.127158 
L 103.051636 276.417865 
L 106.298182 275.715629 
L 109.544727 275.020381 
L 112.791273 274.332051 
L 116.037818 273.65057 
L 119.284364 272.975869 
L 122.530909 272.307882 
L 125.777455 271.646542 
L 129.024 270.991782 
L 132.270545 270.343537 
L 135.517091 269.701742 
L 138.763636 269.066334 
L 142.010182 268.437247 
L 145.256727 267.81442 
L 148.503273 267.197791 
L 151.749818 266.587296 
L 154.996364 265.982877 
L 158.242909 265.384471 
L 161.489455 264.79202 
L 164.736 264.205464 
L 167.982545 263.624744 
L 171.229091 263.049802 
L 174.475636 262.480581 
L 177.722182 261.917024 
L 180.968727 261.359074 
L 184.215273 260.806676 
L 187.461818 260.259775 
L 190.708364 259.718315 
L 193.954909 259.182243 
L 197.201455 258.651505 
L 200.448 258.126048 
L 203.694545 257.605819 
L 206.941091 257.090767 
L 210.187636 256.580839 
L 213.434182 256.075986 
L 216.680727 255.576155 
L 219.927273 255.081298 
L 223.173818 254.591365 
L 226.420364 254.106307 
L 229.666909 253.626076 
L 232.913455 253.150622 
L 236.16 252.6799 
L 239.406545 252.213861 
L 242.653091 251.75246 
L 245.899636 251.295649 
L 249.146182 250.843384 
L 252.392727 250.395619 
L 255.639273 249.952309 
L 258.885818 249.51341 
L 262.132364 249.078879 
L 265.378909 248.648671 
L 268.625455 248.222744 
L 271.872 247.801054 
L 275.118545 247.383561 
L 278.365091 246.970222 
L 281.611636 246.560995 
L 284.858182 246.155841 
L 288.104727 245.754718 
L 291.351273 245.357586 
L 294.597818 244.964405 
L 297.844364 244.575137 
L 301.090909 244.189742 
L 304.337455 243.808182 
L 307.584 243.430418 
L 310.830545 243.056413 
L 314.077091 242.68613 
L 317.323636 242.319531 
L 320.570182 241.95658 
L 323.816727 241.59724 
L 327.063273 241.241475 
L 330.309818 240.889251 
L 333.556364 240.540531 
L 336.802909 240.195281 
L 340.049455 239.853466 
L 343.296 239.515053 
L 346.542545 239.180007 
L 349.789091 238.848294 
L 353.035636 238.519882 
L 356.282182 238.194738 
L 359.528727 237.872829 
L 362.775273 237.554123 
L 366.021818 237.238589 
L 369.268364 236.926194 
L 372.514909 236.616907 
L 375.761455 236.310698 
L 379.008 236.007535 
L 382.254545 235.707389 
L 385.501091 235.41023 
L 388.747636 235.116027 
L 391.994182 234.824752 
L 395.240727 234.536375 
L 398.487273 234.250867 
" clip-path="url(#p4baac03fc4)" style="fill: none; stroke: #ffa500; stroke-width: 3; stroke-linecap: square"/>
   </g>
   <g id="line2d_16">
    <path d="M 73.832727 128.621009 
L 77.079273 59.948682 
L 80.325818 55.080732 
L 83.572364 55.999565 
L 86.818909 57.430991 
L 90.065455 58.89567 
L 93.312 60.350159 
L 96.558545 61.79064 
L 99.805091 63.216893 
L 103.051636 64.629029 
L 106.298182 66.027183 
L 109.544727 67.411494 
L 112.791273 68.7821 
L 116.037818 70.139135 
L 119.284364 71.482734 
L 122.530909 72.813029 
L 125.777455 74.130154 
L 129.024 75.434238 
L 132.270545 76.72541 
L 135.517091 78.003798 
L 138.763636 79.269529 
L 142.010182 80.522728 
L 145.256727 81.763519 
L 148.503273 82.992025 
L 151.749818 84.208368 
L 154.996364 85.412667 
L 158.242909 86.605043 
L 161.489455 87.785613 
L 164.736 88.954495 
L 167.982545 90.111803 
L 171.229091 91.257652 
L 174.475636 92.392157 
L 177.722182 93.515429 
L 180.968727 94.62758 
L 184.215273 95.728719 
L 187.461818 96.818955 
L 190.708364 97.898397 
L 193.954909 98.967152 
L 197.201455 100.025325 
L 200.448 101.073021 
L 203.694545 102.110344 
L 206.941091 103.137396 
L 210.187636 104.15428 
L 213.434182 105.161095 
L 216.680727 106.157942 
L 219.927273 107.144919 
L 223.173818 108.122124 
L 226.420364 109.089654 
L 229.666909 110.047604 
L 232.913455 110.996069 
L 236.16 111.935144 
L 239.406545 112.864921 
L 242.653091 113.785492 
L 245.899636 114.696949 
L 249.146182 115.599382 
L 252.392727 116.492879 
L 255.639273 117.37753 
L 258.885818 118.253422 
L 262.132364 119.120642 
L 265.378909 119.979275 
L 268.625455 120.829407 
L 271.872 121.671122 
L 275.118545 122.504504 
L 278.365091 123.329633 
L 281.611636 124.146594 
L 284.858182 124.955465 
L 288.104727 125.756328 
L 291.351273 126.549262 
L 294.597818 127.334345 
L 297.844364 128.111654 
L 301.090909 128.881268 
L 304.337455 129.643262 
L 307.584 130.397711 
L 310.830545 131.14469 
L 314.077091 131.884274 
L 317.323636 132.616534 
L 320.570182 133.341545 
L 323.816727 134.059378 
L 327.063273 134.770103 
L 330.309818 135.473791 
L 333.556364 136.170512 
L 336.802909 136.860335 
L 340.049455 137.543328 
L 343.296 138.219559 
L 346.542545 138.889094 
L 349.789091 139.552 
L 353.035636 140.208343 
L 356.282182 140.858187 
L 359.528727 141.501598 
L 362.775273 142.138638 
L 366.021818 142.76937 
L 369.268364 143.393858 
L 372.514909 144.012162 
L 375.761455 144.624345 
L 379.008 145.230467 
L 382.254545 145.830587 
L 385.501091 146.424766 
L 388.747636 147.013061 
L 391.994182 147.595532 
L 395.240727 148.172236 
L 398.487273 148.74323 
" clip-path="url(#p4baac03fc4)" style="fill: none; stroke-dasharray: 5.55,2.4; stroke-dashoffset: 0; stroke: #000080; stroke-width: 1.5"/>
   </g>
   <g id="line2d_17">
    <path d="M 73.832727 205.842623 
L 77.079273 275.27952 
L 80.325818 280.904471 
L 83.572364 280.735143 
L 86.818909 280.045802 
L 90.065455 279.31586 
L 93.312 278.588833 
L 96.558545 277.868613 
L 99.805091 277.155488 
L 103.051636 276.44942 
L 106.298182 275.750343 
L 109.544727 275.058188 
L 112.791273 274.372885 
L 116.037818 273.694367 
L 119.284364 273.022568 
L 122.530909 272.35742 
L 125.777455 271.698858 
L 129.024 271.046816 
L 132.270545 270.40123 
L 135.517091 269.762036 
L 138.763636 269.12917 
L 142.010182 268.502571 
L 145.256727 267.882175 
L 148.503273 267.267922 
L 151.749818 266.659751 
L 154.996364 266.057601 
L 158.242909 265.461413 
L 161.489455 264.871128 
L 164.736 264.286687 
L 167.982545 263.708033 
L 171.229091 263.135109 
L 174.475636 262.567856 
L 177.722182 262.00622 
L 180.968727 261.450145 
L 184.215273 260.899575 
L 187.461818 260.354457 
L 190.708364 259.814736 
L 193.954909 259.280359 
L 197.201455 258.751272 
L 200.448 258.227424 
L 203.694545 257.708763 
L 206.941091 257.195237 
L 210.187636 256.686795 
L 213.434182 256.183387 
L 216.680727 255.684964 
L 219.927273 255.191475 
L 223.173818 254.702873 
L 226.420364 254.219108 
L 229.666909 253.740133 
L 232.913455 253.2659 
L 236.16 252.796363 
L 239.406545 252.331474 
L 242.653091 251.871189 
L 245.899636 251.41546 
L 249.146182 250.964244 
L 252.392727 250.517495 
L 255.639273 250.07517 
L 258.885818 249.637224 
L 262.132364 249.203614 
L 265.378909 248.774297 
L 268.625455 248.349231 
L 271.872 247.928374 
L 275.118545 247.511683 
L 278.365091 247.099118 
L 281.611636 246.690638 
L 284.858182 246.286202 
L 288.104727 245.885771 
L 291.351273 245.489304 
L 294.597818 245.096762 
L 297.844364 244.708108 
L 301.090909 244.323301 
L 304.337455 243.942304 
L 307.584 243.565079 
L 310.830545 243.19159 
L 314.077091 242.821798 
L 317.323636 242.455668 
L 320.570182 242.093162 
L 323.816727 241.734246 
L 327.063273 241.378883 
L 330.309818 241.027039 
L 333.556364 240.678679 
L 336.802909 240.333767 
L 340.049455 239.992271 
L 343.296 239.654155 
L 346.542545 239.319388 
L 349.789091 238.987935 
L 353.035636 238.659763 
L 356.282182 238.334841 
L 359.528727 238.013136 
L 362.775273 237.694616 
L 366.021818 237.37925 
L 369.268364 237.067006 
L 372.514909 236.757854 
L 375.761455 236.451762 
L 379.008 236.148701 
L 382.254545 235.848641 
L 385.501091 235.551552 
L 388.747636 235.257404 
L 391.994182 234.966169 
L 395.240727 234.677817 
L 398.487273 234.39232 
" clip-path="url(#p4baac03fc4)" style="fill: none; stroke-dasharray: 5.55,2.4; stroke-dashoffset: 0; stroke: #ff0000; stroke-width: 1.5"/>
   </g>
   <g id="patch_3">
    <path d="M 57.6 293.76 
L 57.6 41.472 
" style="fill: none; stroke: #000000; stroke-width: 0.8; stroke-linejoin: miter; stroke-linecap: square"/>
   </g>
   <g id="patch_4">
    <path d="M 414.72 293.76 
L 414.72 41.472 
" style="fill: none; stroke: #000000; stroke-width: 0.8; stroke-linejoin: miter; stroke-linecap: square"/>
   </g>
   <g id="patch_5">
    <path d="M 57.6 293.76 
L 414.72 293.76 
" style="fill: none; stroke: #000000; stroke-width: 0.8; stroke-linejoin: miter; stroke-linecap: square"/>
   </g>
   <g id="patch_6">
    <path d="M 57.6 41.472 
L 414.72 41.472 
" style="fill: none; stroke: #000000; stroke-width: 0.8; stroke-linejoin: miter; stroke-linecap: square"/>
   </g>
   <g id="text_16">
    <text style="font: 16px 'sans-serif'; text-anchor: middle" x="236.16" y="21.472" transform="rotate(-0, 236.16, 21.472)">Implicit Euler Scheme, dt = 0.01</text>
   </g>
   <g id="legend_1">
    <g id="patch_7">
     <path d="M 315.14 128.303875 
L 405.62 128.303875 
Q 408.22 128.303875 408.22 125.703875 
L 408.22 50.572 
Q 408.22 47.972 405.62 47.972 
L 315.14 47.972 
Q 312.54 47.972 312.54 50.572 
L 312.54 125.703875 
Q 312.54 128.303875 315.14 128.303875 
z
" style="fill: #ffffff; opacity: 0.8; stroke: #cccccc; stroke-linejoin: miter"/>
    </g>
    <g id="line2d_18">
     <path d="M 317.74 58.499969 
L 330.74 58.499969 
L 343.74 58.499969 
" style="fill: none; stroke: #6495ed; stroke-width: 3; stroke-linecap: square"/>
    </g>
    <g id="text_17">
     <!-- true $y_1$ -->
     <g transform="translate(354.14 63.049969)">
      <text>
       <tspan style="font: 13px 'DejaVu Sans'" x="0 5.097168 10.441895 18.681152 26.679199" y="-0.875">true </tspan>
       <tspan style="font: oblique 13px 'DejaVu Sans'" x="30.811523" y="-0.875">y</tspan>
       <tspan style="font: 9.1px 'DejaVu Sans'" x="38.504883" y="1.2578125">1</tspan>
      </text>
     </g>
    </g>
    <g id="line2d_19">
     <path d="M 317.74 77.607938 
L 330.74 77.607938 
L 343.74 77.607938 
" style="fill: none; stroke: #ffa500; stroke-width: 3; stroke-linecap: square"/>
    </g>
    <g id="text_18">
     <!--  true $y_2$ -->
     <g transform="translate(354.14 82.157938)">
      <text>
       <tspan style="font: 13px 'DejaVu Sans'" x="0 4.132324 9.229492 14.574219 22.813477 30.811523" y="-0.875"> true </tspan>
       <tspan style="font: oblique 13px 'DejaVu Sans'" x="34.943848" y="-0.875">y</tspan>
       <tspan style="font: 9.1px 'DejaVu Sans'" x="42.637207" y="1.2578125">2</tspan>
      </text>
     </g>
    </g>
    <g id="line2d_20">
     <path d="M 317.74 96.715906 
L 330.74 96.715906 
L 343.74 96.715906 
" style="fill: none; stroke-dasharray: 5.55,2.4; stroke-dashoffset: 0; stroke: #000080; stroke-width: 1.5"/>
    </g>
    <g id="text_19">
     <!-- $y_1$ -->
     <g transform="translate(354.14 101.265906)">
      <text>
       <tspan style="font: oblique 13px 'DejaVu Sans'" x="0" y="-0.890625">y</tspan>
       <tspan style="font: 9.1px 'DejaVu Sans'" x="7.693359" y="1.2421875">1</tspan>
      </text>
     </g>
    </g>
    <g id="line2d_21">
     <path d="M 317.74 115.823875 
L 330.74 115.823875 
L 343.74 115.823875 
" style="fill: none; stroke-dasharray: 5.55,2.4; stroke-dashoffset: 0; stroke: #ff0000; stroke-width: 1.5"/>
    </g>
    <g id="text_20">
     <!-- $y_2$ -->
     <g transform="translate(354.14 120.373875)">
      <text>
       <tspan style="font: oblique 13px 'DejaVu Sans'" x="0" y="-0.890625">y</tspan>
       <tspan style="font: 9.1px 'DejaVu Sans'" x="7.693359" y="1.2421875">2</tspan>
      </text>
     </g>
    </g>
   </g>
  </g>
 </g>
 <defs>
  <clipPath id="p4baac03fc4">
   <rect x="57.6" y="41.472" width="357.12" height="252.288"/>
  </clipPath>
 </defs>
</svg>
